<svg version="1.1" xmlns="http://www.w3.org/2000/svg" xmlns:xlink="http://www.w3.org/1999/xlink" stroke-linecap="round" stroke-linejoin="round" stroke-width="0" fill-rule="evenodd" width="3.74016in" height="3.8189in" viewBox="443 630.5 3740.16 3818.9" id="gCGeeSPEqzgNYgTFTjBY"><g transform="translate(0,5079.9) scale(1,-1)" fill="currentColor" stroke="currentColor"><path d="M 561.11 630.5 4065.05 630.5 4067.9 630.53 4070.76 630.64 4073.61 630.81 4076.45 631.05 4079.29 631.36 4082.12 631.74 4084.93 632.19 4087.74 632.7 4090.54 633.28 4093.32 633.93 4096.08 634.65 4098.82 635.43 4101.55 636.28 4104.25 637.2 4106.93 638.18 4109.59 639.22 4112.22 640.33 4114.82 641.5 4117.4 642.73 4119.94 644.03 4122.45 645.39 4124.93 646.8 4127.37 648.28 4129.78 649.81 4132.14 651.41 4134.47 653.06 4136.76 654.76 4139.01 656.52 4141.21 658.34 4143.37 660.2 4145.48 662.12 4147.55 664.09 4149.57 666.11 4151.54 668.18 4153.46 670.29 4155.32 672.45 4157.14 674.65 4158.9 676.9 4160.6 679.19 4162.25 681.52 4163.85 683.88 4165.38 686.29 4166.86 688.73 4168.27 691.21 4169.63 693.72 4170.93 696.26 4172.16 698.84 4173.33 701.44 4174.44 704.07 4175.48 706.73 4176.46 709.41 4177.38 712.11 4178.23 714.84 4179.01 717.58 4179.73 720.34 4180.38 723.12 4180.96 725.92 4181.47 728.73 4181.92 731.54 4182.3 734.37 4182.61 737.21 4182.85 740.05 4183.02 742.9 4183.13 745.76 4183.16 748.61 4183.16 4252.55 4183.13 4255.4 4183.02 4258.26 4182.85 4261.11 4182.61 4263.95 4182.3 4266.79 4181.92 4269.62 4181.47 4272.43 4180.96 4275.24 4180.38 4278.04 4179.73 4280.82 4179.01 4283.58 4178.23 4286.32 4177.38 4289.05 4176.46 4291.75 4175.48 4294.43 4174.44 4297.09 4173.33 4299.72 4172.16 4302.32 4170.93 4304.9 4169.63 4307.44 4168.27 4309.95 4166.86 4312.43 4165.38 4314.87 4163.85 4317.28 4162.25 4319.64 4160.6 4321.97 4158.9 4324.26 4157.14 4326.51 4155.32 4328.71 4153.46 4330.87 4151.54 4332.98 4149.57 4335.05 4147.55 4337.07 4145.48 4339.04 4143.37 4340.96 4141.21 4342.82 4139.01 4344.64 4136.76 4346.4 4134.47 4348.1 4132.14 4349.75 4129.78 4351.35 4127.37 4352.88 4124.93 4354.36 4122.45 4355.77 4119.94 4357.13 4117.4 4358.43 4114.82 4359.66 4112.22 4360.83 4109.59 4361.94 4106.93 4362.98 4104.25 4363.96 4101.55 4364.88 4098.82 4365.73 4096.08 4366.51 4093.32 4367.23 4090.54 4367.88 4087.74 4368.46 4084.93 4368.97 4082.12 4369.42 4079.29 4369.8 4076.45 4370.11 4073.61 4370.35 4070.76 4370.52 4067.9 4370.63 4065.05 4370.66 3494.18 4370.66 3494.18 4449.4 3061.11 4449.4 3061.11 4370.66 2746.15 4370.66 2746.15 4449.4 2313.08 4449.4 2313.08 4370.66 561.11 4370.66 558.26 4370.63 555.4 4370.52 552.55 4370.35 549.71 4370.11 546.87 4369.8 544.04 4369.42 541.23 4368.97 538.42 4368.46 535.62 4367.88 532.84 4367.23 530.08 4366.51 527.34 4365.73 524.61 4364.88 521.91 4363.96 519.23 4362.98 516.57 4361.94 513.94 4360.83 511.34 4359.66 508.76 4358.43 506.22 4357.13 503.71 4355.77 501.23 4354.36 498.79 4352.88 496.38 4351.35 494.02 4349.75 491.69 4348.1 489.4 4346.4 487.15 4344.64 484.95 4342.82 482.79 4340.96 480.68 4339.04 478.61 4337.07 476.59 4335.05 474.62 4332.98 472.7 4330.87 470.84 4328.71 469.02 4326.51 467.26 4324.26 465.56 4321.97 463.91 4319.64 462.31 4317.28 460.78 4314.87 459.3 4312.43 457.89 4309.95 456.53 4307.44 455.23 4304.9 454 4302.32 452.83 4299.72 451.72 4297.09 450.68 4294.43 449.7 4291.75 448.78 4289.05 447.93 4286.32 447.15 4283.58 446.43 4280.82 445.78 4278.04 445.2 4275.24 444.69 4272.43 444.24 4269.62 443.86 4266.79 443.55 4263.95 443.31 4261.11 443.14 4258.26 443.03 4255.4 443 4252.55 443 748.61 443.03 745.76 443.14 742.9 443.31 740.05 443.55 737.21 443.86 734.37 444.24 731.54 444.69 728.73 445.2 725.92 445.78 723.12 446.43 720.34 447.15 717.58 447.93 714.84 448.78 712.11 449.7 709.41 450.68 706.73 451.72 704.07 452.83 701.44 454 698.84 455.23 696.26 456.53 693.72 457.89 691.21 459.3 688.73 460.78 686.29 462.31 683.88 463.91 681.52 465.56 679.19 467.26 676.9 469.02 674.65 470.84 672.45 472.7 670.29 474.62 668.18 476.59 666.11 478.61 664.09 480.68 662.12 482.79 660.2 484.95 658.34 487.15 656.52 489.4 654.76 491.69 653.06 494.02 651.41 496.38 649.81 498.79 648.28 501.23 646.8 503.71 645.39 506.22 644.03 508.76 642.73 511.34 641.5 513.94 640.33 516.57 639.22 519.23 638.18 521.91 637.2 524.61 636.28 527.34 635.43 530.08 634.65 532.84 633.93 535.62 633.28 538.42 632.7 541.23 632.19 544.04 631.74 546.87 631.36 549.71 631.05 552.55 630.81 555.4 630.64 558.26 630.53 561.11 630.5 M 675.29 925.78 675.31 927.36 675.37 928.94 675.47 930.52 675.61 932.1 675.79 933.67 676 935.24 676.26 936.8 676.56 938.36 676.89 939.91 677.27 941.44 677.68 942.97 678.13 944.49 678.62 946 679.15 947.49 679.71 948.97 680.31 950.43 680.95 951.88 681.63 953.31 682.34 954.73 683.08 956.13 683.86 957.5 684.68 958.86 685.52 960.2 686.41 961.51 687.32 962.8 688.27 964.07 689.24 965.32 690.25 966.54 691.29 967.73 692.36 968.9 693.46 970.04 694.59 971.15 695.74 972.24 696.92 973.29 698.13 974.31 699.36 975.31 700.62 976.27 701.9 977.2 703.2 978.1 704.53 978.96 705.88 979.8 707.24 980.59 708.63 981.36 710.04 982.08 711.46 982.78 712.9 983.43 714.36 984.05 715.83 984.63 717.32 985.18 718.82 985.69 720.33 986.16 721.85 986.59 723.38 986.98 724.93 987.34 726.48 987.65 728.04 987.93 729.6 988.17 731.17 988.37 732.75 988.53 734.32 988.65 735.91 988.73 737.49 988.77 739.07 988.77 740.65 988.73 742.24 988.65 743.81 988.53 745.39 988.37 746.96 988.17 748.52 987.93 750.08 987.65 751.63 987.34 753.18 986.98 754.71 986.59 756.23 986.16 757.74 985.69 759.24 985.18 760.73 984.63 762.2 984.05 763.66 983.43 765.1 982.78 766.52 982.08 767.93 981.36 769.32 980.59 770.68 979.8 772.03 978.96 773.36 978.1 774.66 977.2 775.94 976.27 777.2 975.31 778.43 974.31 779.64 973.29 780.82 972.24 781.97 971.15 783.1 970.04 784.2 968.9 785.27 967.73 786.31 966.54 787.32 965.32 788.29 964.07 789.24 962.8 790.15 961.51 791.04 960.2 791.88 958.86 792.7 957.5 793.48 956.13 794.22 954.73 794.93 953.31 795.61 951.88 796.25 950.43 796.85 948.97 797.41 947.49 797.94 946 798.43 944.49 798.88 942.97 799.29 941.44 799.67 939.91 800 938.36 800.3 936.8 800.56 935.24 800.77 933.67 800.95 932.1 801.09 930.52 801.19 928.94 801.25 927.36 801.27 925.78 801.25 924.2 801.19 922.62 801.09 921.04 800.95 919.46 800.77 917.89 800.56 916.32 800.3 914.76 800 913.2 799.67 911.65 799.29 910.12 798.88 908.59 798.43 907.07 797.94 905.56 797.41 904.07 796.85 902.59 796.25 901.13 795.61 899.68 794.93 898.25 794.22 896.83 793.48 895.43 792.7 894.06 791.88 892.7 791.04 891.36 790.15 890.05 789.24 888.76 788.29 887.49 787.32 886.24 786.31 885.02 785.27 883.83 784.2 882.66 783.1 881.52 781.97 880.41 780.82 879.32 779.64 878.27 778.43 877.25 777.2 876.25 775.94 875.29 774.66 874.36 773.36 873.46 772.03 872.6 770.68 871.76 769.32 870.97 767.93 870.2 766.52 869.48 765.1 868.78 763.66 868.13 762.2 867.51 760.73 866.93 759.24 866.38 757.74 865.87 756.23 865.4 754.71 864.97 753.18 864.58 751.63 864.22 750.08 863.91 748.52 863.63 746.96 863.39 745.39 863.19 743.81 863.03 742.24 862.91 740.65 862.83 739.07 862.79 737.49 862.79 735.91 862.83 734.32 862.91 732.75 863.03 731.17 863.19 729.6 863.39 728.04 863.63 726.48 863.91 724.93 864.22 723.38 864.58 721.85 864.97 720.33 865.4 718.82 865.87 717.32 866.38 715.83 866.93 714.36 867.51 712.9 868.13 711.46 868.78 710.04 869.48 708.63 870.2 707.24 870.97 705.88 871.76 704.53 872.6 703.2 873.46 701.9 874.36 700.62 875.29 699.36 876.25 698.13 877.25 696.92 878.27 695.74 879.32 694.59 880.41 693.46 881.52 692.36 882.66 691.29 883.83 690.25 885.02 689.24 886.24 688.27 887.49 687.32 888.76 686.41 890.05 685.52 891.36 684.68 892.7 683.86 894.06 683.08 895.43 682.34 896.83 681.63 898.25 680.95 899.68 680.31 901.13 679.71 902.59 679.15 904.07 678.62 905.56 678.13 907.07 677.68 908.59 677.27 910.12 676.89 911.65 676.56 913.2 676.26 914.76 676 916.32 675.79 917.89 675.61 919.46 675.47 921.04 675.37 922.62 675.31 924.2 675.29 925.78 M 1366.52 967.7 1366.54 969.3 1366.6 970.89 1366.7 972.48 1366.84 974.07 1367.02 975.66 1367.23 977.24 1367.49 978.81 1367.79 980.38 1368.12 981.94 1368.5 983.49 1368.91 985.03 1369.36 986.56 1369.85 988.08 1370.38 989.58 1370.94 991.07 1371.54 992.55 1372.18 994.01 1372.86 995.46 1373.57 996.89 1374.31 998.3 1375.09 999.69 1375.91 1001.06 1376.76 1002.41 1377.64 1003.74 1378.55 1005.05 1379.5 1006.33 1380.48 1007.59 1381.49 1008.83 1382.53 1010.03 1383.6 1011.22 1384.7 1012.37 1385.83 1013.5 1386.98 1014.6 1388.17 1015.67 1389.37 1016.71 1390.61 1017.72 1391.87 1018.7 1393.15 1019.65 1394.46 1020.56 1395.79 1021.44 1397.14 1022.29 1398.51 1023.11 1399.9 1023.89 1401.31 1024.63 1402.74 1025.34 1404.19 1026.02 1405.65 1026.66 1407.13 1027.26 1408.62 1027.82 1410.12 1028.35 1411.64 1028.84 1413.17 1029.29 1414.71 1029.7 1416.26 1030.08 1417.82 1030.41 1419.39 1030.71 1420.96 1030.97 1422.54 1031.18 1424.13 1031.36 1425.72 1031.5 1427.31 1031.6 1428.9 1031.66 1430.5 1031.68 1432.1 1031.66 1433.69 1031.6 1435.28 1031.5 1436.87 1031.36 1438.46 1031.18 1440.04 1030.97 1441.61 1030.71 1443.18 1030.41 1444.74 1030.08 1446.29 1029.7 1447.83 1029.29 1449.36 1028.84 1450.88 1028.35 1452.38 1027.82 1453.87 1027.26 1455.35 1026.66 1456.81 1026.02 1458.26 1025.34 1459.69 1024.63 1461.1 1023.89 1462.49 1023.11 1463.86 1022.29 1465.21 1021.44 1466.54 1020.56 1467.85 1019.65 1469.13 1018.7 1470.39 1017.72 1471.63 1016.71 1472.83 1015.67 1474.02 1014.6 1475.17 1013.5 1476.3 1012.37 1477.4 1011.22 1478.47 1010.03 1479.51 1008.83 1480.52 1007.59 1481.5 1006.33 1482.45 1005.05 1483.36 1003.74 1484.24 1002.41 1485.09 1001.06 1485.91 999.69 1486.69 998.3 1487.43 996.89 1488.14 995.46 1488.82 994.01 1489.46 992.55 1490.06 991.07 1490.62 989.58 1491.15 988.08 1491.64 986.56 1492.09 985.03 1492.5 983.49 1492.88 981.94 1493.21 980.38 1493.51 978.81 1493.77 977.24 1493.98 975.66 1494.16 974.07 1494.3 972.48 1494.4 970.89 1494.46 969.3 1494.48 967.7 1494.46 966.1 1494.4 964.51 1494.3 962.92 1494.16 961.33 1493.98 959.74 1493.77 958.16 1493.51 956.59 1493.21 955.02 1492.88 953.46 1492.5 951.91 1492.09 950.37 1491.64 948.84 1491.15 947.32 1490.62 945.82 1490.06 944.33 1489.46 942.85 1488.82 941.39 1488.14 939.94 1487.43 938.51 1486.69 937.1 1485.91 935.71 1485.09 934.34 1484.24 932.99 1483.36 931.66 1482.45 930.35 1481.5 929.07 1480.52 927.81 1479.51 926.57 1478.47 925.37 1477.4 924.18 1476.3 923.03 1475.17 921.9 1474.02 920.8 1472.83 919.73 1471.63 918.69 1470.39 917.68 1469.13 916.7 1467.85 915.75 1466.54 914.84 1465.21 913.96 1463.86 913.11 1462.49 912.29 1461.1 911.51 1459.69 910.77 1458.26 910.06 1456.81 909.38 1455.35 908.74 1453.87 908.14 1452.38 907.58 1450.88 907.05 1449.36 906.56 1447.83 906.11 1446.29 905.7 1444.74 905.32 1443.18 904.99 1441.61 904.69 1440.04 904.43 1438.46 904.22 1436.87 904.04 1435.28 903.9 1433.69 903.8 1432.1 903.74 1430.5 903.72 1428.9 903.74 1427.31 903.8 1425.72 903.9 1424.13 904.04 1422.54 904.22 1420.96 904.43 1419.39 904.69 1417.82 904.99 1416.26 905.32 1414.71 905.7 1413.17 906.11 1411.64 906.56 1410.12 907.05 1408.62 907.58 1407.13 908.14 1405.65 908.74 1404.19 909.38 1402.74 910.06 1401.31 910.77 1399.9 911.51 1398.51 912.29 1397.14 913.11 1395.79 913.96 1394.46 914.84 1393.15 915.75 1391.87 916.7 1390.61 917.68 1389.37 918.69 1388.17 919.73 1386.98 920.8 1385.83 921.9 1384.7 923.03 1383.6 924.18 1382.53 925.37 1381.49 926.57 1380.48 927.81 1379.5 929.07 1378.55 930.35 1377.64 931.66 1376.76 932.99 1375.91 934.34 1375.09 935.71 1374.31 937.1 1373.57 938.51 1372.86 939.94 1372.18 941.39 1371.54 942.85 1370.94 944.33 1370.38 945.82 1369.85 947.32 1369.36 948.84 1368.91 950.37 1368.5 951.91 1368.12 953.46 1367.79 955.02 1367.49 956.59 1367.23 958.16 1367.02 959.74 1366.84 961.33 1366.7 962.92 1366.6 964.51 1366.54 966.1 1366.52 967.7 M 2366.52 967.7 2366.54 969.3 2366.6 970.89 2366.7 972.48 2366.84 974.07 2367.02 975.66 2367.23 977.24 2367.49 978.81 2367.79 980.38 2368.12 981.94 2368.5 983.49 2368.91 985.03 2369.36 986.56 2369.85 988.08 2370.38 989.58 2370.94 991.07 2371.54 992.55 2372.18 994.01 2372.86 995.46 2373.57 996.89 2374.31 998.3 2375.09 999.69 2375.91 1001.06 2376.76 1002.41 2377.64 1003.74 2378.55 1005.05 2379.5 1006.33 2380.48 1007.59 2381.49 1008.83 2382.53 1010.03 2383.6 1011.22 2384.7 1012.37 2385.83 1013.5 2386.98 1014.6 2388.17 1015.67 2389.37 1016.71 2390.61 1017.72 2391.87 1018.7 2393.15 1019.65 2394.46 1020.56 2395.79 1021.44 2397.14 1022.29 2398.51 1023.11 2399.9 1023.89 2401.31 1024.63 2402.74 1025.34 2404.19 1026.02 2405.65 1026.66 2407.13 1027.26 2408.62 1027.82 2410.12 1028.35 2411.64 1028.84 2413.17 1029.29 2414.71 1029.7 2416.26 1030.08 2417.82 1030.41 2419.39 1030.71 2420.96 1030.97 2422.54 1031.18 2424.13 1031.36 2425.72 1031.5 2427.31 1031.6 2428.9 1031.66 2430.5 1031.68 2432.1 1031.66 2433.69 1031.6 2435.28 1031.5 2436.87 1031.36 2438.46 1031.18 2440.04 1030.97 2441.61 1030.71 2443.18 1030.41 2444.74 1030.08 2446.29 1029.7 2447.83 1029.29 2449.36 1028.84 2450.88 1028.35 2452.38 1027.82 2453.87 1027.26 2455.35 1026.66 2456.81 1026.02 2458.26 1025.34 2459.69 1024.63 2461.1 1023.89 2462.49 1023.11 2463.86 1022.29 2465.21 1021.44 2466.54 1020.56 2467.85 1019.65 2469.13 1018.7 2470.39 1017.72 2471.63 1016.71 2472.83 1015.67 2474.02 1014.6 2475.17 1013.5 2476.3 1012.37 2477.4 1011.22 2478.47 1010.03 2479.51 1008.83 2480.52 1007.59 2481.5 1006.33 2482.45 1005.05 2483.36 1003.74 2484.24 1002.41 2485.09 1001.06 2485.91 999.69 2486.69 998.3 2487.43 996.89 2488.14 995.46 2488.82 994.01 2489.46 992.55 2490.06 991.07 2490.62 989.58 2491.15 988.08 2491.64 986.56 2492.09 985.03 2492.5 983.49 2492.88 981.94 2493.21 980.38 2493.51 978.81 2493.77 977.24 2493.98 975.66 2494.16 974.07 2494.3 972.48 2494.4 970.89 2494.46 969.3 2494.48 967.7 2494.46 966.1 2494.4 964.51 2494.3 962.92 2494.16 961.33 2493.98 959.74 2493.77 958.16 2493.51 956.59 2493.21 955.02 2492.88 953.46 2492.5 951.91 2492.09 950.37 2491.64 948.84 2491.15 947.32 2490.62 945.82 2490.06 944.33 2489.46 942.85 2488.82 941.39 2488.14 939.94 2487.43 938.51 2486.69 937.1 2485.91 935.71 2485.09 934.34 2484.24 932.99 2483.36 931.66 2482.45 930.35 2481.5 929.07 2480.52 927.81 2479.51 926.57 2478.47 925.37 2477.4 924.18 2476.3 923.03 2475.17 921.9 2474.02 920.8 2472.83 919.73 2471.63 918.69 2470.39 917.68 2469.13 916.7 2467.85 915.75 2466.54 914.84 2465.21 913.96 2463.86 913.11 2462.49 912.29 2461.1 911.51 2459.69 910.77 2458.26 910.06 2456.81 909.38 2455.35 908.74 2453.87 908.14 2452.38 907.58 2450.88 907.05 2449.36 906.56 2447.83 906.11 2446.29 905.7 2444.74 905.32 2443.18 904.99 2441.61 904.69 2440.04 904.43 2438.46 904.22 2436.87 904.04 2435.28 903.9 2433.69 903.8 2432.1 903.74 2430.5 903.72 2428.9 903.74 2427.31 903.8 2425.72 903.9 2424.13 904.04 2422.54 904.22 2420.96 904.43 2419.39 904.69 2417.82 904.99 2416.26 905.32 2414.71 905.7 2413.17 906.11 2411.64 906.56 2410.12 907.05 2408.62 907.58 2407.13 908.14 2405.65 908.74 2404.19 909.38 2402.74 910.06 2401.31 910.77 2399.9 911.51 2398.51 912.29 2397.14 913.11 2395.79 913.96 2394.46 914.84 2393.15 915.75 2391.87 916.7 2390.61 917.68 2389.37 918.69 2388.17 919.73 2386.98 920.8 2385.83 921.9 2384.7 923.03 2383.6 924.18 2382.53 925.37 2381.49 926.57 2380.48 927.81 2379.5 929.07 2378.55 930.35 2377.64 931.66 2376.76 932.99 2375.91 934.34 2375.09 935.71 2374.31 937.1 2373.57 938.51 2372.86 939.94 2372.18 941.39 2371.54 942.85 2370.94 944.33 2370.38 945.82 2369.85 947.32 2369.36 948.84 2368.91 950.37 2368.5 951.91 2368.12 953.46 2367.79 955.02 2367.49 956.59 2367.23 958.16 2367.02 959.74 2366.84 961.33 2366.7 962.92 2366.6 964.51 2366.54 966.1 2366.52 967.7 M 3824.89 925.78 3824.91 927.36 3824.97 928.94 3825.07 930.52 3825.21 932.1 3825.39 933.67 3825.6 935.24 3825.86 936.8 3826.16 938.36 3826.49 939.91 3826.87 941.44 3827.28 942.97 3827.73 944.49 3828.22 946 3828.75 947.49 3829.31 948.97 3829.91 950.43 3830.55 951.88 3831.23 953.31 3831.94 954.73 3832.68 956.13 3833.46 957.5 3834.28 958.86 3835.12 960.2 3836.01 961.51 3836.92 962.8 3837.87 964.07 3838.84 965.32 3839.85 966.54 3840.89 967.73 3841.96 968.9 3843.06 970.04 3844.19 971.15 3845.34 972.24 3846.52 973.29 3847.73 974.31 3848.96 975.31 3850.22 976.27 3851.5 977.2 3852.8 978.1 3854.13 978.96 3855.48 979.8 3856.84 980.59 3858.23 981.36 3859.64 982.08 3861.06 982.78 3862.5 983.43 3863.96 984.05 3865.43 984.63 3866.92 985.18 3868.42 985.69 3869.93 986.16 3871.45 986.59 3872.98 986.98 3874.53 987.34 3876.08 987.65 3877.64 987.93 3879.2 988.17 3880.77 988.37 3882.35 988.53 3883.92 988.65 3885.51 988.73 3887.09 988.77 3888.67 988.77 3890.25 988.73 3891.84 988.65 3893.41 988.53 3894.99 988.37 3896.56 988.17 3898.12 987.93 3899.68 987.65 3901.23 987.34 3902.78 986.98 3904.31 986.59 3905.83 986.16 3907.34 985.69 3908.84 985.18 3910.33 984.63 3911.8 984.05 3913.26 983.43 3914.7 982.78 3916.12 982.08 3917.53 981.36 3918.92 980.59 3920.28 979.8 3921.63 978.96 3922.96 978.1 3924.26 977.2 3925.54 976.27 3926.8 975.31 3928.03 974.31 3929.24 973.29 3930.42 972.24 3931.57 971.15 3932.7 970.04 3933.8 968.9 3934.87 967.73 3935.91 966.54 3936.92 965.32 3937.89 964.07 3938.84 962.8 3939.75 961.51 3940.64 960.2 3941.48 958.86 3942.3 957.5 3943.08 956.13 3943.82 954.73 3944.53 953.31 3945.21 951.88 3945.85 950.43 3946.45 948.97 3947.01 947.49 3947.54 946 3948.03 944.49 3948.48 942.97 3948.89 941.44 3949.27 939.91 3949.6 938.36 3949.9 936.8 3950.16 935.24 3950.37 933.67 3950.55 932.1 3950.69 930.52 3950.79 928.94 3950.85 927.36 3950.87 925.78 3950.85 924.2 3950.79 922.62 3950.69 921.04 3950.55 919.46 3950.37 917.89 3950.16 916.32 3949.9 914.76 3949.6 913.2 3949.27 911.65 3948.89 910.12 3948.48 908.59 3948.03 907.07 3947.54 905.56 3947.01 904.07 3946.45 902.59 3945.85 901.13 3945.21 899.68 3944.53 898.25 3943.82 896.83 3943.08 895.43 3942.3 894.06 3941.48 892.7 3940.64 891.36 3939.75 890.05 3938.84 888.76 3937.89 887.49 3936.92 886.24 3935.91 885.02 3934.87 883.83 3933.8 882.66 3932.7 881.52 3931.57 880.41 3930.42 879.32 3929.24 878.27 3928.03 877.25 3926.8 876.25 3925.54 875.29 3924.26 874.36 3922.96 873.46 3921.63 872.6 3920.28 871.76 3918.92 870.97 3917.53 870.2 3916.12 869.48 3914.7 868.78 3913.26 868.13 3911.8 867.51 3910.33 866.93 3908.84 866.38 3907.34 865.87 3905.83 865.4 3904.31 864.97 3902.78 864.58 3901.23 864.22 3899.68 863.91 3898.12 863.63 3896.56 863.39 3894.99 863.19 3893.41 863.03 3891.84 862.91 3890.25 862.83 3888.67 862.79 3887.09 862.79 3885.51 862.83 3883.92 862.91 3882.35 863.03 3880.77 863.19 3879.2 863.39 3877.64 863.63 3876.08 863.91 3874.53 864.22 3872.98 864.58 3871.45 864.97 3869.93 865.4 3868.42 865.87 3866.92 866.38 3865.43 866.93 3863.96 867.51 3862.5 868.13 3861.06 868.78 3859.64 869.48 3858.23 870.2 3856.84 870.97 3855.48 871.76 3854.13 872.6 3852.8 873.46 3851.5 874.36 3850.22 875.29 3848.96 876.25 3847.73 877.25 3846.52 878.27 3845.34 879.32 3844.19 880.41 3843.06 881.52 3841.96 882.66 3840.89 883.83 3839.85 885.02 3838.84 886.24 3837.87 887.49 3836.92 888.76 3836.01 890.05 3835.12 891.36 3834.28 892.7 3833.46 894.06 3832.68 895.43 3831.94 896.83 3831.23 898.25 3830.55 899.68 3829.91 901.13 3829.31 902.59 3828.75 904.07 3828.22 905.56 3827.73 907.07 3827.28 908.59 3826.87 910.12 3826.49 911.65 3826.16 913.2 3825.86 914.76 3825.6 916.32 3825.39 917.89 3825.21 919.46 3825.07 921.04 3824.97 922.62 3824.91 924.2 3824.89 925.78 M 3824.89 4075.38 3824.91 4076.96 3824.97 4078.54 3825.07 4080.12 3825.21 4081.7 3825.39 4083.27 3825.6 4084.84 3825.86 4086.4 3826.16 4087.96 3826.49 4089.51 3826.87 4091.04 3827.28 4092.57 3827.73 4094.09 3828.22 4095.6 3828.75 4097.09 3829.31 4098.57 3829.91 4100.03 3830.55 4101.48 3831.23 4102.91 3831.94 4104.33 3832.68 4105.73 3833.46 4107.1 3834.28 4108.46 3835.12 4109.8 3836.01 4111.11 3836.92 4112.4 3837.87 4113.67 3838.84 4114.92 3839.85 4116.14 3840.89 4117.33 3841.96 4118.5 3843.06 4119.64 3844.19 4120.75 3845.34 4121.84 3846.52 4122.89 3847.73 4123.91 3848.96 4124.91 3850.22 4125.87 3851.5 4126.8 3852.8 4127.7 3854.13 4128.56 3855.48 4129.4 3856.84 4130.19 3858.23 4130.96 3859.64 4131.68 3861.06 4132.38 3862.5 4133.03 3863.96 4133.65 3865.43 4134.23 3866.92 4134.78 3868.42 4135.29 3869.93 4135.76 3871.45 4136.19 3872.98 4136.58 3874.53 4136.94 3876.08 4137.25 3877.64 4137.53 3879.2 4137.77 3880.77 4137.97 3882.35 4138.13 3883.92 4138.25 3885.51 4138.33 3887.09 4138.37 3888.67 4138.37 3890.25 4138.33 3891.84 4138.25 3893.41 4138.13 3894.99 4137.97 3896.56 4137.77 3898.12 4137.53 3899.68 4137.25 3901.23 4136.94 3902.78 4136.58 3904.31 4136.19 3905.83 4135.76 3907.34 4135.29 3908.84 4134.78 3910.33 4134.23 3911.8 4133.65 3913.26 4133.03 3914.7 4132.38 3916.12 4131.68 3917.53 4130.96 3918.92 4130.19 3920.28 4129.4 3921.63 4128.56 3922.96 4127.7 3924.26 4126.8 3925.54 4125.87 3926.8 4124.91 3928.03 4123.91 3929.24 4122.89 3930.42 4121.84 3931.57 4120.75 3932.7 4119.64 3933.8 4118.5 3934.87 4117.33 3935.91 4116.14 3936.92 4114.92 3937.89 4113.67 3938.84 4112.4 3939.75 4111.11 3940.64 4109.8 3941.48 4108.46 3942.3 4107.1 3943.08 4105.73 3943.82 4104.33 3944.53 4102.91 3945.21 4101.48 3945.85 4100.03 3946.45 4098.57 3947.01 4097.09 3947.54 4095.6 3948.03 4094.09 3948.48 4092.57 3948.89 4091.04 3949.27 4089.51 3949.6 4087.96 3949.9 4086.4 3950.16 4084.84 3950.37 4083.27 3950.55 4081.7 3950.69 4080.12 3950.79 4078.54 3950.85 4076.96 3950.87 4075.38 3950.85 4073.8 3950.79 4072.22 3950.69 4070.64 3950.55 4069.06 3950.37 4067.49 3950.16 4065.92 3949.9 4064.36 3949.6 4062.8 3949.27 4061.25 3948.89 4059.72 3948.48 4058.19 3948.03 4056.67 3947.54 4055.16 3947.01 4053.67 3946.45 4052.19 3945.85 4050.73 3945.21 4049.28 3944.53 4047.85 3943.82 4046.43 3943.08 4045.03 3942.3 4043.66 3941.48 4042.3 3940.64 4040.96 3939.75 4039.65 3938.84 4038.36 3937.89 4037.09 3936.92 4035.84 3935.91 4034.62 3934.87 4033.43 3933.8 4032.26 3932.7 4031.12 3931.57 4030.01 3930.42 4028.92 3929.24 4027.87 3928.03 4026.85 3926.8 4025.85 3925.54 4024.89 3924.26 4023.96 3922.96 4023.06 3921.63 4022.2 3920.28 4021.36 3918.92 4020.57 3917.53 4019.8 3916.12 4019.08 3914.7 4018.38 3913.26 4017.73 3911.8 4017.11 3910.33 4016.53 3908.84 4015.98 3907.34 4015.47 3905.83 4015 3904.31 4014.57 3902.78 4014.18 3901.23 4013.82 3899.68 4013.51 3898.12 4013.23 3896.56 4012.99 3894.99 4012.79 3893.41 4012.63 3891.84 4012.51 3890.25 4012.43 3888.67 4012.39 3887.09 4012.39 3885.51 4012.43 3883.92 4012.51 3882.35 4012.63 3880.77 4012.79 3879.2 4012.99 3877.64 4013.23 3876.08 4013.51 3874.53 4013.82 3872.98 4014.18 3871.45 4014.57 3869.93 4015 3868.42 4015.47 3866.92 4015.98 3865.43 4016.53 3863.96 4017.11 3862.5 4017.73 3861.06 4018.38 3859.64 4019.08 3858.23 4019.8 3856.84 4020.57 3855.48 4021.36 3854.13 4022.2 3852.8 4023.06 3851.5 4023.96 3850.22 4024.89 3848.96 4025.85 3847.73 4026.85 3846.52 4027.87 3845.34 4028.92 3844.19 4030.01 3843.06 4031.12 3841.96 4032.26 3840.89 4033.43 3839.85 4034.62 3838.84 4035.84 3837.87 4037.09 3836.92 4038.36 3836.01 4039.65 3835.12 4040.96 3834.28 4042.3 3833.46 4043.66 3832.68 4045.03 3831.94 4046.43 3831.23 4047.85 3830.55 4049.28 3829.91 4050.73 3829.31 4052.19 3828.75 4053.67 3828.22 4055.16 3827.73 4056.67 3827.28 4058.19 3826.87 4059.72 3826.49 4061.25 3826.16 4062.8 3825.86 4064.36 3825.6 4065.92 3825.39 4067.49 3825.21 4069.06 3825.07 4070.64 3824.97 4072.22 3824.91 4073.8 3824.89 4075.38 M 675.29 4075.38 675.31 4076.96 675.37 4078.54 675.47 4080.12 675.61 4081.7 675.79 4083.27 676 4084.84 676.26 4086.4 676.56 4087.96 676.89 4089.51 677.27 4091.04 677.68 4092.57 678.13 4094.09 678.62 4095.6 679.15 4097.09 679.71 4098.57 680.31 4100.03 680.95 4101.48 681.63 4102.91 682.34 4104.33 683.08 4105.73 683.86 4107.1 684.68 4108.46 685.52 4109.8 686.41 4111.11 687.32 4112.4 688.27 4113.67 689.24 4114.92 690.25 4116.14 691.29 4117.33 692.36 4118.5 693.46 4119.64 694.59 4120.75 695.74 4121.84 696.92 4122.89 698.13 4123.91 699.36 4124.91 700.62 4125.87 701.9 4126.8 703.2 4127.7 704.53 4128.56 705.88 4129.4 707.24 4130.19 708.63 4130.96 710.04 4131.68 711.46 4132.38 712.9 4133.03 714.36 4133.65 715.83 4134.23 717.32 4134.78 718.82 4135.29 720.33 4135.76 721.85 4136.19 723.38 4136.58 724.93 4136.94 726.48 4137.25 728.04 4137.53 729.6 4137.77 731.17 4137.97 732.75 4138.13 734.32 4138.25 735.91 4138.33 737.49 4138.37 739.07 4138.37 740.65 4138.33 742.24 4138.25 743.81 4138.13 745.39 4137.97 746.96 4137.77 748.52 4137.53 750.08 4137.25 751.63 4136.94 753.18 4136.58 754.71 4136.19 756.23 4135.76 757.74 4135.29 759.24 4134.78 760.73 4134.23 762.2 4133.65 763.66 4133.03 765.1 4132.38 766.52 4131.68 767.93 4130.96 769.32 4130.19 770.68 4129.4 772.03 4128.56 773.36 4127.7 774.66 4126.8 775.94 4125.87 777.2 4124.91 778.43 4123.91 779.64 4122.89 780.82 4121.84 781.97 4120.75 783.1 4119.64 784.2 4118.5 785.27 4117.33 786.31 4116.14 787.32 4114.92 788.29 4113.67 789.24 4112.4 790.15 4111.11 791.04 4109.8 791.88 4108.46 792.7 4107.1 793.48 4105.73 794.22 4104.33 794.93 4102.91 795.61 4101.48 796.25 4100.03 796.85 4098.57 797.41 4097.09 797.94 4095.6 798.43 4094.09 798.88 4092.57 799.29 4091.04 799.67 4089.51 800 4087.96 800.3 4086.4 800.56 4084.84 800.77 4083.27 800.95 4081.7 801.09 4080.12 801.19 4078.54 801.25 4076.96 801.27 4075.38 801.25 4073.8 801.19 4072.22 801.09 4070.64 800.95 4069.06 800.77 4067.49 800.56 4065.92 800.3 4064.36 800 4062.8 799.67 4061.25 799.29 4059.72 798.88 4058.19 798.43 4056.67 797.94 4055.16 797.41 4053.67 796.85 4052.19 796.25 4050.73 795.61 4049.28 794.93 4047.85 794.22 4046.43 793.48 4045.03 792.7 4043.66 791.88 4042.3 791.04 4040.96 790.15 4039.65 789.24 4038.36 788.29 4037.09 787.32 4035.84 786.31 4034.62 785.27 4033.43 784.2 4032.26 783.1 4031.12 781.97 4030.01 780.82 4028.92 779.64 4027.87 778.43 4026.85 777.2 4025.85 775.94 4024.89 774.66 4023.96 773.36 4023.06 772.03 4022.2 770.68 4021.36 769.32 4020.57 767.93 4019.8 766.52 4019.08 765.1 4018.38 763.66 4017.73 762.2 4017.11 760.73 4016.53 759.24 4015.98 757.74 4015.47 756.23 4015 754.71 4014.57 753.18 4014.18 751.63 4013.82 750.08 4013.51 748.52 4013.23 746.96 4012.99 745.39 4012.79 743.81 4012.63 742.24 4012.51 740.65 4012.43 739.07 4012.39 737.49 4012.39 735.91 4012.43 734.32 4012.51 732.75 4012.63 731.17 4012.79 729.6 4012.99 728.04 4013.23 726.48 4013.51 724.93 4013.82 723.38 4014.18 721.85 4014.57 720.33 4015 718.82 4015.47 717.32 4015.98 715.83 4016.53 714.36 4017.11 712.9 4017.73 711.46 4018.38 710.04 4019.08 708.63 4019.8 707.24 4020.57 705.88 4021.36 704.53 4022.2 703.2 4023.06 701.9 4023.96 700.62 4024.89 699.36 4025.85 698.13 4026.85 696.92 4027.87 695.74 4028.92 694.59 4030.01 693.46 4031.12 692.36 4032.26 691.29 4033.43 690.25 4034.62 689.24 4035.84 688.27 4037.09 687.32 4038.36 686.41 4039.65 685.52 4040.96 684.68 4042.3 683.86 4043.66 683.08 4045.03 682.34 4046.43 681.63 4047.85 680.95 4049.28 680.31 4050.73 679.71 4052.19 679.15 4053.67 678.62 4055.16 678.13 4056.67 677.68 4058.19 677.27 4059.72 676.89 4061.25 676.56 4062.8 676.26 4064.36 676 4065.92 675.79 4067.49 675.61 4069.06 675.47 4070.64 675.37 4072.22 675.31 4073.8 675.29 4075.38 M 1070.17 4067.9 1070.17 4104.12 1070.19 4104.58 1070.25 4105.03 1070.34 4105.47 1070.47 4105.91 1070.63 4106.33 1070.83 4106.74 1071.07 4107.13 1071.33 4107.5 1071.63 4107.85 1071.95 4108.17 1072.3 4108.47 1072.67 4108.73 1073.06 4108.97 1073.47 4109.17 1073.89 4109.33 1074.33 4109.46 1074.77 4109.55 1075.22 4109.61 1075.68 4109.63 1088.28 4109.63 1088.74 4109.61 1089.19 4109.55 1089.63 4109.46 1090.07 4109.33 1090.49 4109.17 1090.9 4108.97 1091.29 4108.73 1091.66 4108.47 1092.01 4108.17 1092.33 4107.85 1092.63 4107.5 1092.89 4107.13 1093.13 4106.74 1093.33 4106.33 1093.49 4105.91 1093.62 4105.47 1093.71 4105.03 1093.77 4104.58 1093.79 4104.12 1093.79 4067.9 1093.77 4067.44 1093.71 4066.99 1093.62 4066.55 1093.49 4066.11 1093.33 4065.69 1093.13 4065.28 1092.89 4064.89 1092.63 4064.52 1092.33 4064.17 1092.01 4063.85 1091.66 4063.55 1091.29 4063.29 1090.9 4063.05 1090.49 4062.85 1090.07 4062.69 1089.63 4062.56 1089.19 4062.47 1088.74 4062.41 1088.28 4062.39 1075.68 4062.39 1075.22 4062.41 1074.77 4062.47 1074.33 4062.56 1073.89 4062.69 1073.47 4062.85 1073.06 4063.05 1072.67 4063.29 1072.3 4063.55 1071.95 4063.85 1071.63 4064.17 1071.33 4064.52 1071.07 4064.89 1070.83 4065.28 1070.63 4065.69 1070.47 4066.11 1070.34 4066.55 1070.25 4066.99 1070.19 4067.44 1070.17 4067.9 M 1075.68 4248.61 1088.28 4248.61 1088.74 4248.63 1089.19 4248.69 1089.63 4248.78 1090.07 4248.91 1090.49 4249.07 1090.9 4249.27 1091.29 4249.51 1091.66 4249.77 1092.01 4250.07 1092.33 4250.39 1092.63 4250.74 1092.89 4251.11 1093.13 4251.5 1093.33 4251.91 1093.49 4252.33 1093.62 4252.77 1093.71 4253.21 1093.77 4253.66 1093.79 4254.12 1093.79 4290.34 1093.77 4290.8 1093.71 4291.25 1093.62 4291.69 1093.49 4292.13 1093.33 4292.55 1093.13 4292.96 1092.89 4293.35 1092.63 4293.72 1092.33 4294.07 1092.01 4294.39 1091.66 4294.69 1091.29 4294.95 1090.9 4295.19 1090.49 4295.39 1090.07 4295.55 1089.63 4295.68 1089.19 4295.77 1088.74 4295.83 1088.28 4295.85 1075.68 4295.85 1075.22 4295.83 1074.77 4295.77 1074.33 4295.68 1073.89 4295.55 1073.47 4295.39 1073.06 4295.19 1072.67 4294.95 1072.3 4294.69 1071.95 4294.39 1071.63 4294.07 1071.33 4293.72 1071.07 4293.35 1070.83 4292.96 1070.63 4292.55 1070.47 4292.13 1070.34 4291.69 1070.25 4291.25 1070.19 4290.8 1070.17 4290.34 1070.17 4254.12 1070.19 4253.66 1070.25 4253.21 1070.34 4252.77 1070.47 4252.33 1070.63 4251.91 1070.83 4251.5 1071.07 4251.11 1071.33 4250.74 1071.63 4250.39 1071.95 4250.07 1072.3 4249.77 1072.67 4249.51 1073.06 4249.27 1073.47 4249.07 1073.89 4248.91 1074.33 4248.78 1074.77 4248.69 1075.22 4248.63 1075.68 4248.61 M 1406.39 4254.12 1406.39 4290.34 1406.41 4290.8 1406.47 4291.25 1406.56 4291.69 1406.69 4292.13 1406.85 4292.55 1407.05 4292.96 1407.29 4293.35 1407.55 4293.72 1407.85 4294.07 1408.17 4294.39 1408.52 4294.69 1408.89 4294.95 1409.28 4295.19 1409.69 4295.39 1410.11 4295.55 1410.55 4295.68 1410.99 4295.77 1411.44 4295.83 1411.9 4295.85 1424.5 4295.85 1424.96 4295.83 1425.41 4295.77 1425.85 4295.68 1426.29 4295.55 1426.71 4295.39 1427.12 4295.19 1427.51 4294.95 1427.88 4294.69 1428.23 4294.39 1428.55 4294.07 1428.85 4293.72 1429.11 4293.35 1429.35 4292.96 1429.55 4292.55 1429.71 4292.13 1429.84 4291.69 1429.93 4291.25 1429.99 4290.8 1430.01 4290.34 1430.01 4254.12 1429.99 4253.66 1429.93 4253.21 1429.84 4252.77 1429.71 4252.33 1429.55 4251.91 1429.35 4251.5 1429.11 4251.11 1428.85 4250.74 1428.55 4250.39 1428.23 4250.07 1427.88 4249.77 1427.51 4249.51 1427.12 4249.27 1426.71 4249.07 1426.29 4248.91 1425.85 4248.78 1425.41 4248.69 1424.96 4248.63 1424.5 4248.61 1411.9 4248.61 1411.44 4248.63 1410.99 4248.69 1410.55 4248.78 1410.11 4248.91 1409.69 4249.07 1409.28 4249.27 1408.89 4249.51 1408.52 4249.77 1408.17 4250.07 1407.85 4250.39 1407.55 4250.74 1407.29 4251.11 1407.05 4251.5 1406.85 4251.91 1406.69 4252.33 1406.56 4252.77 1406.47 4253.21 1406.41 4253.66 1406.39 4254.12 M 1411.9 4109.63 1424.5 4109.63 1424.96 4109.61 1425.41 4109.55 1425.85 4109.46 1426.29 4109.33 1426.71 4109.17 1427.12 4108.97 1427.51 4108.73 1427.88 4108.47 1428.23 4108.17 1428.55 4107.85 1428.85 4107.5 1429.11 4107.13 1429.35 4106.74 1429.55 4106.33 1429.71 4105.91 1429.84 4105.47 1429.93 4105.03 1429.99 4104.58 1430.01 4104.12 1430.01 4067.9 1429.99 4067.44 1429.93 4066.99 1429.84 4066.55 1429.71 4066.11 1429.55 4065.69 1429.35 4065.28 1429.11 4064.89 1428.85 4064.52 1428.55 4064.17 1428.23 4063.85 1427.88 4063.55 1427.51 4063.29 1427.12 4063.05 1426.71 4062.85 1426.29 4062.69 1425.85 4062.56 1425.41 4062.47 1424.96 4062.41 1424.5 4062.39 1411.9 4062.39 1411.44 4062.41 1410.99 4062.47 1410.55 4062.56 1410.11 4062.69 1409.69 4062.85 1409.28 4063.05 1408.89 4063.29 1408.52 4063.55 1408.17 4063.85 1407.85 4064.17 1407.55 4064.52 1407.29 4064.89 1407.05 4065.28 1406.85 4065.69 1406.69 4066.11 1406.56 4066.55 1406.47 4066.99 1406.41 4067.44 1406.39 4067.9 1406.39 4104.12 1406.41 4104.58 1406.47 4105.03 1406.56 4105.47 1406.69 4105.91 1406.85 4106.33 1407.05 4106.74 1407.29 4107.13 1407.55 4107.5 1407.85 4107.85 1408.17 4108.17 1408.52 4108.47 1408.89 4108.73 1409.28 4108.97 1409.69 4109.17 1410.11 4109.33 1410.55 4109.46 1410.99 4109.55 1411.44 4109.61 1411.9 4109.63 M 746.15 2185.42 709.93 2185.42 709.47 2185.4 709.02 2185.34 708.58 2185.25 708.14 2185.12 707.72 2184.96 707.31 2184.76 706.92 2184.52 706.55 2184.26 706.2 2183.96 705.88 2183.64 705.58 2183.29 705.32 2182.92 705.08 2182.53 704.88 2182.12 704.72 2181.7 704.59 2181.26 704.5 2180.82 704.44 2180.37 704.42 2179.91 704.42 2167.31 704.44 2166.85 704.5 2166.4 704.59 2165.96 704.72 2165.52 704.88 2165.1 705.08 2164.69 705.32 2164.3 705.58 2163.93 705.88 2163.58 706.2 2163.26 706.55 2162.96 706.92 2162.7 707.31 2162.46 707.72 2162.26 708.14 2162.1 708.58 2161.97 709.02 2161.88 709.47 2161.82 709.93 2161.8 746.15 2161.8 746.61 2161.82 747.06 2161.88 747.5 2161.97 747.94 2162.1 748.36 2162.26 748.77 2162.46 749.16 2162.7 749.53 2162.96 749.88 2163.26 750.2 2163.58 750.5 2163.93 750.76 2164.3 751 2164.69 751.2 2165.1 751.36 2165.52 751.49 2165.96 751.58 2166.4 751.64 2166.85 751.66 2167.31 751.66 2179.91 751.64 2180.37 751.58 2180.82 751.49 2181.26 751.36 2181.7 751.2 2182.12 751 2182.53 750.76 2182.92 750.5 2183.29 750.2 2183.64 749.88 2183.96 749.53 2184.26 749.16 2184.52 748.77 2184.76 748.36 2184.96 747.94 2185.12 747.5 2185.25 747.06 2185.34 746.61 2185.4 746.15 2185.42 M 565.44 2179.91 565.44 2167.31 565.42 2166.85 565.36 2166.4 565.27 2165.96 565.14 2165.52 564.98 2165.1 564.78 2164.69 564.54 2164.3 564.28 2163.93 563.98 2163.58 563.66 2163.26 563.31 2162.96 562.94 2162.7 562.55 2162.46 562.14 2162.26 561.72 2162.1 561.28 2161.97 560.84 2161.88 560.39 2161.82 559.93 2161.8 523.71 2161.8 523.25 2161.82 522.8 2161.88 522.36 2161.97 521.92 2162.1 521.5 2162.26 521.09 2162.46 520.7 2162.7 520.33 2162.96 519.98 2163.26 519.66 2163.58 519.36 2163.93 519.1 2164.3 518.86 2164.69 518.66 2165.1 518.5 2165.52 518.37 2165.96 518.28 2166.4 518.22 2166.85 518.2 2167.31 518.2 2179.91 518.22 2180.37 518.28 2180.82 518.37 2181.26 518.5 2181.7 518.66 2182.12 518.86 2182.53 519.1 2182.92 519.36 2183.29 519.66 2183.64 519.98 2183.96 520.33 2184.26 520.7 2184.52 521.09 2184.76 521.5 2184.96 521.92 2185.12 522.36 2185.25 522.8 2185.34 523.25 2185.4 523.71 2185.42 559.93 2185.42 560.39 2185.4 560.84 2185.34 561.28 2185.25 561.72 2185.12 562.14 2184.96 562.55 2184.76 562.94 2184.52 563.31 2184.26 563.66 2183.96 563.98 2183.64 564.28 2183.29 564.54 2182.92 564.78 2182.53 564.98 2182.12 565.14 2181.7 565.27 2181.26 565.36 2180.82 565.42 2180.37 565.44 2179.91 M 559.93 1849.2 523.71 1849.2 523.25 1849.18 522.8 1849.12 522.36 1849.03 521.92 1848.9 521.5 1848.74 521.09 1848.54 520.7 1848.3 520.33 1848.04 519.98 1847.74 519.66 1847.42 519.36 1847.07 519.1 1846.7 518.86 1846.31 518.66 1845.9 518.5 1845.48 518.37 1845.04 518.28 1844.6 518.22 1844.15 518.2 1843.69 518.2 1831.09 518.22 1830.63 518.28 1830.18 518.37 1829.74 518.5 1829.3 518.66 1828.88 518.86 1828.47 519.1 1828.08 519.36 1827.71 519.66 1827.36 519.98 1827.04 520.33 1826.74 520.7 1826.48 521.09 1826.24 521.5 1826.04 521.92 1825.88 522.36 1825.75 522.8 1825.66 523.25 1825.6 523.71 1825.58 559.93 1825.58 560.39 1825.6 560.84 1825.66 561.28 1825.75 561.72 1825.88 562.14 1826.04 562.55 1826.24 562.94 1826.48 563.31 1826.74 563.66 1827.04 563.98 1827.36 564.28 1827.71 564.54 1828.08 564.78 1828.47 564.98 1828.88 565.14 1829.3 565.27 1829.74 565.36 1830.18 565.42 1830.63 565.44 1831.09 565.44 1843.69 565.42 1844.15 565.36 1844.6 565.27 1845.04 565.14 1845.48 564.98 1845.9 564.78 1846.31 564.54 1846.7 564.28 1847.07 563.98 1847.42 563.66 1847.74 563.31 1848.04 562.94 1848.3 562.55 1848.54 562.14 1848.74 561.72 1848.9 561.28 1849.03 560.84 1849.12 560.39 1849.18 559.93 1849.2 M 704.42 1843.69 704.42 1831.09 704.44 1830.63 704.5 1830.18 704.59 1829.74 704.72 1829.3 704.88 1828.88 705.08 1828.47 705.32 1828.08 705.58 1827.71 705.88 1827.36 706.2 1827.04 706.55 1826.74 706.92 1826.48 707.31 1826.24 707.72 1826.04 708.14 1825.88 708.58 1825.75 709.02 1825.66 709.47 1825.6 709.93 1825.58 746.15 1825.58 746.61 1825.6 747.06 1825.66 747.5 1825.75 747.94 1825.88 748.36 1826.04 748.77 1826.24 749.16 1826.48 749.53 1826.74 749.88 1827.04 750.2 1827.36 750.5 1827.71 750.76 1828.08 751 1828.47 751.2 1828.88 751.36 1829.3 751.49 1829.74 751.58 1830.18 751.64 1830.63 751.66 1831.09 751.66 1843.69 751.64 1844.15 751.58 1844.6 751.49 1845.04 751.36 1845.48 751.2 1845.9 751 1846.31 750.76 1846.7 750.5 1847.07 750.2 1847.42 749.88 1847.74 749.53 1848.04 749.16 1848.3 748.77 1848.54 748.36 1848.74 747.94 1848.9 747.5 1849.03 747.06 1849.12 746.61 1849.18 746.15 1849.2 709.93 1849.2 709.47 1849.18 709.02 1849.12 708.58 1849.03 708.14 1848.9 707.72 1848.74 707.31 1848.54 706.92 1848.3 706.55 1848.04 706.2 1847.74 705.88 1847.42 705.58 1847.07 705.32 1846.7 705.08 1846.31 704.88 1845.9 704.72 1845.48 704.59 1845.04 704.5 1844.6 704.44 1844.15 704.42 1843.69" fill="none" stroke-width="0"/></g></svg>