<svg version="1.1" xmlns="http://www.w3.org/2000/svg" xmlns:xlink="http://www.w3.org/1999/xlink" stroke-linecap="round" stroke-linejoin="round" stroke-width="0" fill-rule="evenodd" width="35.46721in" height="35.098485000000004in" viewBox="5406.39 7846.305 35467.21 35098.485" id="Ll3NA4oN71CWF2wvLKOC"><defs><circle cx="0" cy="0" r="6.1" id="Ll3NA4oN71CWF2wvLKOC_pad-1"/><circle cx="0" cy="0" r="7.875" id="Ll3NA4oN71CWF2wvLKOC_pad-2"/><circle cx="0" cy="0" r="11.81" id="Ll3NA4oN71CWF2wvLKOC_pad-3"/><circle cx="0" cy="0" r="15.75" id="Ll3NA4oN71CWF2wvLKOC_pad-4"/><circle cx="0" cy="0" r="16" id="Ll3NA4oN71CWF2wvLKOC_pad-5"/><circle cx="0" cy="0" r="17.715" id="Ll3NA4oN71CWF2wvLKOC_pad-6"/><circle cx="0" cy="0" r="18.11" id="Ll3NA4oN71CWF2wvLKOC_pad-7"/><circle cx="0" cy="0" r="19.685" id="Ll3NA4oN71CWF2wvLKOC_pad-8"/><circle cx="0" cy="0" r="21.655" id="Ll3NA4oN71CWF2wvLKOC_pad-9"/><circle cx="0" cy="0" r="25.59" id="Ll3NA4oN71CWF2wvLKOC_pad-10"/><circle cx="0" cy="0" r="27.56" id="Ll3NA4oN71CWF2wvLKOC_pad-11"/><circle cx="0" cy="0" r="31.495" id="Ll3NA4oN71CWF2wvLKOC_pad-12"/><circle cx="0" cy="0" r="45.275" id="Ll3NA4oN71CWF2wvLKOC_pad-13"/><circle cx="0" cy="0" r="62.99" id="Ll3NA4oN71CWF2wvLKOC_pad-14"/><circle cx="0" cy="0" r="63.975" id="Ll3NA4oN71CWF2wvLKOC_pad-15"/></defs><g transform="translate(0,50791.095) scale(1,-1)" fill="currentColor" stroke="currentColor"><use xlink:href="#Ll3NA4oN71CWF2wvLKOC_pad-1" x="8180" y="11930"/><use xlink:href="#Ll3NA4oN71CWF2wvLKOC_pad-1" x="8180" y="12930"/><use xlink:href="#Ll3NA4oN71CWF2wvLKOC_pad-1" x="8180" y="13930"/><use xlink:href="#Ll3NA4oN71CWF2wvLKOC_pad-1" x="8180" y="14930"/><use xlink:href="#Ll3NA4oN71CWF2wvLKOC_pad-1" x="8805" y="18805"/><use xlink:href="#Ll3NA4oN71CWF2wvLKOC_pad-1" x="6742.5" y="22180"/><use xlink:href="#Ll3NA4oN71CWF2wvLKOC_pad-1" x="7180" y="23055"/><use xlink:href="#Ll3NA4oN71CWF2wvLKOC_pad-1" x="9117.5" y="23055"/><use xlink:href="#Ll3NA4oN71CWF2wvLKOC_pad-1" x="15867.5" y="21636.2"/><use xlink:href="#Ll3NA4oN71CWF2wvLKOC_pad-1" x="15867.5" y="21261.2"/><use xlink:href="#Ll3NA4oN71CWF2wvLKOC_pad-1" x="15867.5" y="20136.2"/><use xlink:href="#Ll3NA4oN71CWF2wvLKOC_pad-1" x="15867.5" y="19761.2"/><use xlink:href="#Ll3NA4oN71CWF2wvLKOC_pad-1" x="15867.5" y="18636.2"/><use xlink:href="#Ll3NA4oN71CWF2wvLKOC_pad-1" x="15867.5" y="18261.2"/><use xlink:href="#Ll3NA4oN71CWF2wvLKOC_pad-1" x="15867.5" y="17136.2"/><use xlink:href="#Ll3NA4oN71CWF2wvLKOC_pad-1" x="15867.5" y="16761.2"/><use xlink:href="#Ll3NA4oN71CWF2wvLKOC_pad-1" x="21242.5" y="20698.7"/><use xlink:href="#Ll3NA4oN71CWF2wvLKOC_pad-1" x="21492.5" y="20698.7"/><use xlink:href="#Ll3NA4oN71CWF2wvLKOC_pad-1" x="21742.5" y="20698.7"/><use xlink:href="#Ll3NA4oN71CWF2wvLKOC_pad-1" x="23055" y="20136.2"/><use xlink:href="#Ll3NA4oN71CWF2wvLKOC_pad-1" x="23305" y="20136.2"/><use xlink:href="#Ll3NA4oN71CWF2wvLKOC_pad-1" x="23555" y="20136.2"/><use xlink:href="#Ll3NA4oN71CWF2wvLKOC_pad-1" x="23555" y="19761.2"/><use xlink:href="#Ll3NA4oN71CWF2wvLKOC_pad-1" x="23305" y="19761.2"/><use xlink:href="#Ll3NA4oN71CWF2wvLKOC_pad-1" x="23055" y="19761.2"/><use xlink:href="#Ll3NA4oN71CWF2wvLKOC_pad-1" x="23055" y="18636.2"/><use xlink:href="#Ll3NA4oN71CWF2wvLKOC_pad-1" x="23305" y="18636.2"/><use xlink:href="#Ll3NA4oN71CWF2wvLKOC_pad-1" x="23555" y="18636.2"/><use xlink:href="#Ll3NA4oN71CWF2wvLKOC_pad-1" x="23555" y="18261.2"/><use xlink:href="#Ll3NA4oN71CWF2wvLKOC_pad-1" x="23305" y="18261.2"/><use xlink:href="#Ll3NA4oN71CWF2wvLKOC_pad-1" x="23055" y="18261.2"/><use xlink:href="#Ll3NA4oN71CWF2wvLKOC_pad-1" x="23055" y="17136.2"/><use xlink:href="#Ll3NA4oN71CWF2wvLKOC_pad-1" x="23305" y="17136.2"/><use xlink:href="#Ll3NA4oN71CWF2wvLKOC_pad-1" x="23555" y="17136.2"/><use xlink:href="#Ll3NA4oN71CWF2wvLKOC_pad-1" x="23555" y="16761.2"/><use xlink:href="#Ll3NA4oN71CWF2wvLKOC_pad-1" x="23305" y="16761.2"/><use xlink:href="#Ll3NA4oN71CWF2wvLKOC_pad-1" x="23055" y="16761.2"/><use xlink:href="#Ll3NA4oN71CWF2wvLKOC_pad-1" x="23055" y="21261.2"/><use xlink:href="#Ll3NA4oN71CWF2wvLKOC_pad-1" x="23305" y="21261.2"/><use xlink:href="#Ll3NA4oN71CWF2wvLKOC_pad-1" x="23555" y="21261.2"/><use xlink:href="#Ll3NA4oN71CWF2wvLKOC_pad-1" x="23555" y="21636.2"/><use xlink:href="#Ll3NA4oN71CWF2wvLKOC_pad-1" x="23305" y="21636.2"/><use xlink:href="#Ll3NA4oN71CWF2wvLKOC_pad-1" x="23055" y="21636.2"/><use xlink:href="#Ll3NA4oN71CWF2wvLKOC_pad-1" x="21742.5" y="22198.7"/><use xlink:href="#Ll3NA4oN71CWF2wvLKOC_pad-1" x="21492.5" y="22198.7"/><use xlink:href="#Ll3NA4oN71CWF2wvLKOC_pad-1" x="21242.5" y="22198.7"/><use xlink:href="#Ll3NA4oN71CWF2wvLKOC_pad-1" x="25055" y="24930"/><use xlink:href="#Ll3NA4oN71CWF2wvLKOC_pad-1" x="30180" y="27742.5"/><use xlink:href="#Ll3NA4oN71CWF2wvLKOC_pad-1" x="32742.5" y="30492.5"/><use xlink:href="#Ll3NA4oN71CWF2wvLKOC_pad-1" x="32680" y="31555"/><use xlink:href="#Ll3NA4oN71CWF2wvLKOC_pad-1" x="33180" y="32617.5"/><use xlink:href="#Ll3NA4oN71CWF2wvLKOC_pad-1" x="33992.5" y="28930"/><use xlink:href="#Ll3NA4oN71CWF2wvLKOC_pad-1" x="34430" y="27742.5"/><use xlink:href="#Ll3NA4oN71CWF2wvLKOC_pad-1" x="34430" y="27367.5"/><use xlink:href="#Ll3NA4oN71CWF2wvLKOC_pad-1" x="34680" y="27367.5"/><use xlink:href="#Ll3NA4oN71CWF2wvLKOC_pad-1" x="35055" y="27742.5"/><use xlink:href="#Ll3NA4oN71CWF2wvLKOC_pad-1" x="34680" y="26242.5"/><use xlink:href="#Ll3NA4oN71CWF2wvLKOC_pad-1" x="34555" y="26055"/><use xlink:href="#Ll3NA4oN71CWF2wvLKOC_pad-1" x="34430" y="26242.5"/><use xlink:href="#Ll3NA4oN71CWF2wvLKOC_pad-1" x="34367.5" y="24867.5"/><use xlink:href="#Ll3NA4oN71CWF2wvLKOC_pad-1" x="34992.5" y="24867.5"/><use xlink:href="#Ll3NA4oN71CWF2wvLKOC_pad-1" x="34580.1" y="24055"/><use xlink:href="#Ll3NA4oN71CWF2wvLKOC_pad-1" x="34205.1" y="23242.5"/><use xlink:href="#Ll3NA4oN71CWF2wvLKOC_pad-1" x="33680" y="21930"/><use xlink:href="#Ll3NA4oN71CWF2wvLKOC_pad-1" x="33742.5" y="21617.5"/><use xlink:href="#Ll3NA4oN71CWF2wvLKOC_pad-1" x="33830.1" y="20992.5"/><use xlink:href="#Ll3NA4oN71CWF2wvLKOC_pad-1" x="33767.6" y="20492.5"/><use xlink:href="#Ll3NA4oN71CWF2wvLKOC_pad-1" x="34742.5" y="20992.5"/><use xlink:href="#Ll3NA4oN71CWF2wvLKOC_pad-1" x="35205.1" y="21117.5"/><use xlink:href="#Ll3NA4oN71CWF2wvLKOC_pad-1" x="35517.6" y="21117.5"/><use xlink:href="#Ll3NA4oN71CWF2wvLKOC_pad-1" x="35830.1" y="21117.5"/><use xlink:href="#Ll3NA4oN71CWF2wvLKOC_pad-1" x="35830.1" y="21430"/><use xlink:href="#Ll3NA4oN71CWF2wvLKOC_pad-1" x="35830.1" y="21742.5"/><use xlink:href="#Ll3NA4oN71CWF2wvLKOC_pad-1" x="35517.6" y="21742.5"/><use xlink:href="#Ll3NA4oN71CWF2wvLKOC_pad-1" x="35517.6" y="21430"/><use xlink:href="#Ll3NA4oN71CWF2wvLKOC_pad-1" x="35205.1" y="21430"/><use xlink:href="#Ll3NA4oN71CWF2wvLKOC_pad-1" x="35205.1" y="21742.5"/><use xlink:href="#Ll3NA4oN71CWF2wvLKOC_pad-1" x="35617.5" y="20430"/><use xlink:href="#Ll3NA4oN71CWF2wvLKOC_pad-1" x="35242.5" y="19805"/><use xlink:href="#Ll3NA4oN71CWF2wvLKOC_pad-1" x="34742.5" y="18805"/><use xlink:href="#Ll3NA4oN71CWF2wvLKOC_pad-1" x="36617.5" y="20055"/><use xlink:href="#Ll3NA4oN71CWF2wvLKOC_pad-1" x="37180" y="21305"/><use xlink:href="#Ll3NA4oN71CWF2wvLKOC_pad-1" x="37117.5" y="21867.5"/><use xlink:href="#Ll3NA4oN71CWF2wvLKOC_pad-1" x="37055" y="22180"/><use xlink:href="#Ll3NA4oN71CWF2wvLKOC_pad-1" x="37055" y="23680"/><use xlink:href="#Ll3NA4oN71CWF2wvLKOC_pad-1" x="38992.5" y="21492.5"/><use xlink:href="#Ll3NA4oN71CWF2wvLKOC_pad-1" x="38992.5" y="21180"/><use xlink:href="#Ll3NA4oN71CWF2wvLKOC_pad-1" x="38992.5" y="20867.5"/><use xlink:href="#Ll3NA4oN71CWF2wvLKOC_pad-1" x="35305" y="16742.5"/><use xlink:href="#Ll3NA4oN71CWF2wvLKOC_pad-1" x="35305" y="15680"/><use xlink:href="#Ll3NA4oN71CWF2wvLKOC_pad-1" x="34055" y="16680"/><use xlink:href="#Ll3NA4oN71CWF2wvLKOC_pad-1" x="33805" y="16930"/><use xlink:href="#Ll3NA4oN71CWF2wvLKOC_pad-1" x="33055" y="16742.5"/><use xlink:href="#Ll3NA4oN71CWF2wvLKOC_pad-1" x="33055" y="17492.5"/><use xlink:href="#Ll3NA4oN71CWF2wvLKOC_pad-1" x="32117.5" y="17492.5"/><use xlink:href="#Ll3NA4oN71CWF2wvLKOC_pad-1" x="32117.5" y="16742.5"/><use xlink:href="#Ll3NA4oN71CWF2wvLKOC_pad-1" x="31867.5" y="16742.5"/><use xlink:href="#Ll3NA4oN71CWF2wvLKOC_pad-1" x="31617.5" y="16742.5"/><use xlink:href="#Ll3NA4oN71CWF2wvLKOC_pad-1" x="30867.5" y="17617.5"/><use xlink:href="#Ll3NA4oN71CWF2wvLKOC_pad-1" x="29492.5" y="17930"/><use xlink:href="#Ll3NA4oN71CWF2wvLKOC_pad-1" x="29430" y="17617.5"/><use xlink:href="#Ll3NA4oN71CWF2wvLKOC_pad-1" x="29242.5" y="17367.5"/><use xlink:href="#Ll3NA4oN71CWF2wvLKOC_pad-1" x="29180" y="16055"/><use xlink:href="#Ll3NA4oN71CWF2wvLKOC_pad-1" x="28930" y="16055"/><use xlink:href="#Ll3NA4oN71CWF2wvLKOC_pad-1" x="29430" y="16055"/><use xlink:href="#Ll3NA4oN71CWF2wvLKOC_pad-1" x="29492.5" y="14930"/><use xlink:href="#Ll3NA4oN71CWF2wvLKOC_pad-1" x="29492.5" y="14617.5"/><use xlink:href="#Ll3NA4oN71CWF2wvLKOC_pad-1" x="29430" y="13805"/><use xlink:href="#Ll3NA4oN71CWF2wvLKOC_pad-1" x="29180" y="13805"/><use xlink:href="#Ll3NA4oN71CWF2wvLKOC_pad-1" x="28930" y="13805"/><use xlink:href="#Ll3NA4oN71CWF2wvLKOC_pad-1" x="30867.5" y="14617.5"/><use xlink:href="#Ll3NA4oN71CWF2wvLKOC_pad-1" x="31617.5" y="13742.5"/><use xlink:href="#Ll3NA4oN71CWF2wvLKOC_pad-1" x="31867.5" y="13742.5"/><use xlink:href="#Ll3NA4oN71CWF2wvLKOC_pad-1" x="32117.5" y="13742.5"/><use xlink:href="#Ll3NA4oN71CWF2wvLKOC_pad-1" x="32117.5" y="13117.5"/><use xlink:href="#Ll3NA4oN71CWF2wvLKOC_pad-1" x="31867.5" y="13117.5"/><use xlink:href="#Ll3NA4oN71CWF2wvLKOC_pad-1" x="31617.5" y="13117.5"/><use xlink:href="#Ll3NA4oN71CWF2wvLKOC_pad-1" x="32180" y="12180"/><use xlink:href="#Ll3NA4oN71CWF2wvLKOC_pad-1" x="33242.5" y="12367.5"/><use xlink:href="#Ll3NA4oN71CWF2wvLKOC_pad-1" x="33055" y="13680"/><use xlink:href="#Ll3NA4oN71CWF2wvLKOC_pad-1" x="33805" y="13930"/><use xlink:href="#Ll3NA4oN71CWF2wvLKOC_pad-1" x="34055" y="13680"/><use xlink:href="#Ll3NA4oN71CWF2wvLKOC_pad-1" x="33055" y="14555"/><use xlink:href="#Ll3NA4oN71CWF2wvLKOC_pad-1" x="33242.5" y="15367.5"/><use xlink:href="#Ll3NA4oN71CWF2wvLKOC_pad-1" x="32180" y="15242.5"/><use xlink:href="#Ll3NA4oN71CWF2wvLKOC_pad-1" x="32117.5" y="14492.5"/><use xlink:href="#Ll3NA4oN71CWF2wvLKOC_pad-1" x="32117.5" y="16117.5"/><use xlink:href="#Ll3NA4oN71CWF2wvLKOC_pad-1" x="31867.5" y="16117.5"/><use xlink:href="#Ll3NA4oN71CWF2wvLKOC_pad-1" x="31617.5" y="16117.5"/><use xlink:href="#Ll3NA4oN71CWF2wvLKOC_pad-1" x="35305" y="13742.5"/><use xlink:href="#Ll3NA4oN71CWF2wvLKOC_pad-1" x="35305" y="12617.5"/><use xlink:href="#Ll3NA4oN71CWF2wvLKOC_pad-1" x="32555" y="23055"/><use xlink:href="#Ll3NA4oN71CWF2wvLKOC_pad-1" x="31930" y="24430"/><use xlink:href="#Ll3NA4oN71CWF2wvLKOC_pad-1" x="31430" y="24555"/><use xlink:href="#Ll3NA4oN71CWF2wvLKOC_pad-1" x="31055" y="24430"/><use xlink:href="#Ll3NA4oN71CWF2wvLKOC_pad-1" x="38492.5" y="30055"/><use xlink:href="#Ll3NA4oN71CWF2wvLKOC_pad-1" x="37805" y="31742.5"/><use xlink:href="#Ll3NA4oN71CWF2wvLKOC_pad-1" x="37930" y="32180"/><use xlink:href="#Ll3NA4oN71CWF2wvLKOC_pad-1" x="40867.5" y="31242.5"/><use xlink:href="#Ll3NA4oN71CWF2wvLKOC_pad-1" x="35680" y="39242.5"/><use xlink:href="#Ll3NA4oN71CWF2wvLKOC_pad-1" x="28180" y="39180"/><use xlink:href="#Ll3NA4oN71CWF2wvLKOC_pad-1" x="22367.5" y="33555"/><use xlink:href="#Ll3NA4oN71CWF2wvLKOC_pad-1" x="22367.5" y="33242.5"/><use xlink:href="#Ll3NA4oN71CWF2wvLKOC_pad-1" x="22055" y="33242.5"/><use xlink:href="#Ll3NA4oN71CWF2wvLKOC_pad-1" x="22055" y="33555"/><use xlink:href="#Ll3NA4oN71CWF2wvLKOC_pad-1" x="21742.5" y="33555"/><use xlink:href="#Ll3NA4oN71CWF2wvLKOC_pad-1" x="21742.5" y="33242.5"/><use xlink:href="#Ll3NA4oN71CWF2wvLKOC_pad-1" x="20180" y="31617.5"/><use xlink:href="#Ll3NA4oN71CWF2wvLKOC_pad-1" x="20180" y="31367.5"/><use xlink:href="#Ll3NA4oN71CWF2wvLKOC_pad-1" x="20180" y="31117.5"/><use xlink:href="#Ll3NA4oN71CWF2wvLKOC_pad-1" x="21617.5" y="30305"/><use xlink:href="#Ll3NA4oN71CWF2wvLKOC_pad-1" x="21930" y="30305"/><use xlink:href="#Ll3NA4oN71CWF2wvLKOC_pad-1" x="22242.5" y="30305"/><use xlink:href="#Ll3NA4oN71CWF2wvLKOC_pad-1" x="16617.5" y="33242.5"/><use xlink:href="#Ll3NA4oN71CWF2wvLKOC_pad-1" x="16617.5" y="33555"/><use xlink:href="#Ll3NA4oN71CWF2wvLKOC_pad-1" x="16305" y="33555"/><use xlink:href="#Ll3NA4oN71CWF2wvLKOC_pad-1" x="15992.5" y="33555"/><use xlink:href="#Ll3NA4oN71CWF2wvLKOC_pad-1" x="15992.5" y="33242.5"/><use xlink:href="#Ll3NA4oN71CWF2wvLKOC_pad-1" x="16305" y="33242.5"/><use xlink:href="#Ll3NA4oN71CWF2wvLKOC_pad-1" x="13117.5" y="37305"/><use xlink:href="#Ll3NA4oN71CWF2wvLKOC_pad-1" x="11367.5" y="37305"/><use xlink:href="#Ll3NA4oN71CWF2wvLKOC_pad-1" x="12117.5" y="39242.5"/><use xlink:href="#Ll3NA4oN71CWF2wvLKOC_pad-1" x="12367.5" y="39242.5"/><use xlink:href="#Ll3NA4oN71CWF2wvLKOC_pad-1" x="12617.5" y="39242.5"/><use xlink:href="#Ll3NA4oN71CWF2wvLKOC_pad-1" x="12867.5" y="39242.5"/><use xlink:href="#Ll3NA4oN71CWF2wvLKOC_pad-1" x="10992.5" y="39617.5"/><use xlink:href="#Ll3NA4oN71CWF2wvLKOC_pad-1" x="8680" y="36680"/><use xlink:href="#Ll3NA4oN71CWF2wvLKOC_pad-1" x="7492.5" y="37180"/><use xlink:href="#Ll3NA4oN71CWF2wvLKOC_pad-1" x="5555" y="37180"/><use xlink:href="#Ll3NA4oN71CWF2wvLKOC_pad-2" x="11398.5" y="40407.4"/><use xlink:href="#Ll3NA4oN71CWF2wvLKOC_pad-2" x="11713.5" y="40407.4"/><use xlink:href="#Ll3NA4oN71CWF2wvLKOC_pad-2" x="12028.4" y="40407.4"/><use xlink:href="#Ll3NA4oN71CWF2wvLKOC_pad-2" x="12343.4" y="40407.4"/><use xlink:href="#Ll3NA4oN71CWF2wvLKOC_pad-2" x="12658.3" y="40407.4"/><use xlink:href="#Ll3NA4oN71CWF2wvLKOC_pad-2" x="12973.3" y="40407.4"/><use xlink:href="#Ll3NA4oN71CWF2wvLKOC_pad-2" x="13288.3" y="40407.4"/><use xlink:href="#Ll3NA4oN71CWF2wvLKOC_pad-2" x="13603.2" y="40407.4"/><use xlink:href="#Ll3NA4oN71CWF2wvLKOC_pad-2" x="13445.7" y="40683"/><use xlink:href="#Ll3NA4oN71CWF2wvLKOC_pad-2" x="13130.8" y="40683"/><use xlink:href="#Ll3NA4oN71CWF2wvLKOC_pad-2" x="12815.8" y="40683"/><use xlink:href="#Ll3NA4oN71CWF2wvLKOC_pad-2" x="12185.9" y="40683"/><use xlink:href="#Ll3NA4oN71CWF2wvLKOC_pad-2" x="11870.9" y="40683"/><use xlink:href="#Ll3NA4oN71CWF2wvLKOC_pad-2" x="11556" y="40683"/><use xlink:href="#Ll3NA4oN71CWF2wvLKOC_pad-2" x="7733.1" y="21157.4"/><use xlink:href="#Ll3NA4oN71CWF2wvLKOC_pad-2" x="7733.1" y="20842.4"/><use xlink:href="#Ll3NA4oN71CWF2wvLKOC_pad-2" x="7733.1" y="20527.4"/><use xlink:href="#Ll3NA4oN71CWF2wvLKOC_pad-2" x="7733.1" y="20212.5"/><use xlink:href="#Ll3NA4oN71CWF2wvLKOC_pad-2" x="7733.1" y="19897.5"/><use xlink:href="#Ll3NA4oN71CWF2wvLKOC_pad-2" x="7733.1" y="19582.6"/><use xlink:href="#Ll3NA4oN71CWF2wvLKOC_pad-2" x="7733.1" y="19267.6"/><use xlink:href="#Ll3NA4oN71CWF2wvLKOC_pad-2" x="7733.1" y="18952.6"/><use xlink:href="#Ll3NA4oN71CWF2wvLKOC_pad-2" x="7457.6" y="19110.1"/><use xlink:href="#Ll3NA4oN71CWF2wvLKOC_pad-2" x="7457.6" y="19425.1"/><use xlink:href="#Ll3NA4oN71CWF2wvLKOC_pad-2" x="7457.6" y="19740"/><use xlink:href="#Ll3NA4oN71CWF2wvLKOC_pad-2" x="7457.6" y="20370"/><use xlink:href="#Ll3NA4oN71CWF2wvLKOC_pad-2" x="7457.6" y="20684.9"/><use xlink:href="#Ll3NA4oN71CWF2wvLKOC_pad-2" x="7457.6" y="20999.9"/><use xlink:href="#Ll3NA4oN71CWF2wvLKOC_pad-3" x="7280.4" y="21736.1"/><use xlink:href="#Ll3NA4oN71CWF2wvLKOC_pad-3" x="5418.2" y="21736.1"/><use xlink:href="#Ll3NA4oN71CWF2wvLKOC_pad-3" x="5418.2" y="18373.9"/><use xlink:href="#Ll3NA4oN71CWF2wvLKOC_pad-3" x="7280.4" y="18373.9"/><use xlink:href="#Ll3NA4oN71CWF2wvLKOC_pad-3" x="18367.5" y="28742.5"/><use xlink:href="#Ll3NA4oN71CWF2wvLKOC_pad-3" x="29492.5" y="34242.5"/><use xlink:href="#Ll3NA4oN71CWF2wvLKOC_pad-3" x="14182" y="40860.1"/><use xlink:href="#Ll3NA4oN71CWF2wvLKOC_pad-3" x="14182" y="42722.3"/><use xlink:href="#Ll3NA4oN71CWF2wvLKOC_pad-3" x="10819.8" y="42722.3"/><use xlink:href="#Ll3NA4oN71CWF2wvLKOC_pad-3" x="10819.8" y="40860.1"/><use xlink:href="#Ll3NA4oN71CWF2wvLKOC_pad-4" x="37223.8" y="29805"/><use xlink:href="#Ll3NA4oN71CWF2wvLKOC_pad-4" x="38011.2" y="29805"/><use xlink:href="#Ll3NA4oN71CWF2wvLKOC_pad-5" x="34657.4" y="35668.2"/><use xlink:href="#Ll3NA4oN71CWF2wvLKOC_pad-5" x="33657.4" y="36668.2"/><use xlink:href="#Ll3NA4oN71CWF2wvLKOC_pad-5" x="32657.4" y="35668.2"/><use xlink:href="#Ll3NA4oN71CWF2wvLKOC_pad-6" x="27664.3" y="35805"/><use xlink:href="#Ll3NA4oN71CWF2wvLKOC_pad-6" x="25695.7" y="35805"/><use xlink:href="#Ll3NA4oN71CWF2wvLKOC_pad-6" x="23805" y="13177"/><use xlink:href="#Ll3NA4oN71CWF2wvLKOC_pad-6" x="22805" y="13177"/><use xlink:href="#Ll3NA4oN71CWF2wvLKOC_pad-6" x="21805" y="13177"/><use xlink:href="#Ll3NA4oN71CWF2wvLKOC_pad-6" x="20805" y="13177"/><use xlink:href="#Ll3NA4oN71CWF2wvLKOC_pad-6" x="20305" y="12177"/><use xlink:href="#Ll3NA4oN71CWF2wvLKOC_pad-6" x="21305" y="12177"/><use xlink:href="#Ll3NA4oN71CWF2wvLKOC_pad-6" x="22305" y="12177"/><use xlink:href="#Ll3NA4oN71CWF2wvLKOC_pad-6" x="23305" y="12177"/><use xlink:href="#Ll3NA4oN71CWF2wvLKOC_pad-6" x="18305" y="13177"/><use xlink:href="#Ll3NA4oN71CWF2wvLKOC_pad-6" x="17305" y="13177"/><use xlink:href="#Ll3NA4oN71CWF2wvLKOC_pad-6" x="16305" y="13177"/><use xlink:href="#Ll3NA4oN71CWF2wvLKOC_pad-6" x="15305" y="13177"/><use xlink:href="#Ll3NA4oN71CWF2wvLKOC_pad-6" x="14805" y="12177"/><use xlink:href="#Ll3NA4oN71CWF2wvLKOC_pad-6" x="15805" y="12177"/><use xlink:href="#Ll3NA4oN71CWF2wvLKOC_pad-6" x="16805" y="12177"/><use xlink:href="#Ll3NA4oN71CWF2wvLKOC_pad-6" x="17805" y="12177"/><use xlink:href="#Ll3NA4oN71CWF2wvLKOC_pad-7" x="18209.5" y="38340.4"/><use xlink:href="#Ll3NA4oN71CWF2wvLKOC_pad-7" x="18996.9" y="38340.4"/><use xlink:href="#Ll3NA4oN71CWF2wvLKOC_pad-7" x="19981.2" y="38340.4"/><use xlink:href="#Ll3NA4oN71CWF2wvLKOC_pad-7" x="19981.2" y="39371.9"/><use xlink:href="#Ll3NA4oN71CWF2wvLKOC_pad-7" x="18996.9" y="39371.9"/><use xlink:href="#Ll3NA4oN71CWF2wvLKOC_pad-7" x="18209.5" y="39371.9"/><use xlink:href="#Ll3NA4oN71CWF2wvLKOC_pad-7" x="17225.3" y="39371.9"/><use xlink:href="#Ll3NA4oN71CWF2wvLKOC_pad-7" x="17225.3" y="38340.4"/><use xlink:href="#Ll3NA4oN71CWF2wvLKOC_pad-8" x="25805" y="26305"/><use xlink:href="#Ll3NA4oN71CWF2wvLKOC_pad-8" x="25805" y="25305"/><use xlink:href="#Ll3NA4oN71CWF2wvLKOC_pad-8" x="26805" y="25305"/><use xlink:href="#Ll3NA4oN71CWF2wvLKOC_pad-8" x="26805" y="26305"/><use xlink:href="#Ll3NA4oN71CWF2wvLKOC_pad-8" x="27805" y="26305"/><use xlink:href="#Ll3NA4oN71CWF2wvLKOC_pad-8" x="27805" y="25305"/><use xlink:href="#Ll3NA4oN71CWF2wvLKOC_pad-8" x="28805" y="25305"/><use xlink:href="#Ll3NA4oN71CWF2wvLKOC_pad-8" x="28805" y="26305"/><use xlink:href="#Ll3NA4oN71CWF2wvLKOC_pad-8" x="29805" y="26305"/><use xlink:href="#Ll3NA4oN71CWF2wvLKOC_pad-8" x="29805" y="25305"/><use xlink:href="#Ll3NA4oN71CWF2wvLKOC_pad-9" x="30781.4" y="30805"/><use xlink:href="#Ll3NA4oN71CWF2wvLKOC_pad-9" x="27828.6" y="30805"/><use xlink:href="#Ll3NA4oN71CWF2wvLKOC_pad-9" x="18411.3" y="30680"/><use xlink:href="#Ll3NA4oN71CWF2wvLKOC_pad-9" x="18411.3" y="34680"/><use xlink:href="#Ll3NA4oN71CWF2wvLKOC_pad-9" x="18411.3" y="26680"/><use xlink:href="#Ll3NA4oN71CWF2wvLKOC_pad-9" x="10411.3" y="29680"/><use xlink:href="#Ll3NA4oN71CWF2wvLKOC_pad-9" x="10411.3" y="31680"/><use xlink:href="#Ll3NA4oN71CWF2wvLKOC_pad-9" x="10411.3" y="34680"/><use xlink:href="#Ll3NA4oN71CWF2wvLKOC_pad-10" x="24296.1" y="40950.7"/><use xlink:href="#Ll3NA4oN71CWF2wvLKOC_pad-10" x="24296.1" y="42919.2"/><use xlink:href="#Ll3NA4oN71CWF2wvLKOC_pad-10" x="26296.1" y="42919.2"/><use xlink:href="#Ll3NA4oN71CWF2wvLKOC_pad-10" x="26296.1" y="40950.7"/><use xlink:href="#Ll3NA4oN71CWF2wvLKOC_pad-10" x="31776.5" y="40950.7"/><use xlink:href="#Ll3NA4oN71CWF2wvLKOC_pad-10" x="31776.5" y="42919.2"/><use xlink:href="#Ll3NA4oN71CWF2wvLKOC_pad-10" x="33776.5" y="42919.2"/><use xlink:href="#Ll3NA4oN71CWF2wvLKOC_pad-10" x="33776.5" y="40950.7"/><use xlink:href="#Ll3NA4oN71CWF2wvLKOC_pad-11" x="40680" y="26914.3"/><use xlink:href="#Ll3NA4oN71CWF2wvLKOC_pad-11" x="40680" y="24945.7"/><use xlink:href="#Ll3NA4oN71CWF2wvLKOC_pad-11" x="40680" y="17664.3"/><use xlink:href="#Ll3NA4oN71CWF2wvLKOC_pad-11" x="40680" y="15695.7"/><use xlink:href="#Ll3NA4oN71CWF2wvLKOC_pad-12" x="25381.8" y="7877.8"/><use xlink:href="#Ll3NA4oN71CWF2wvLKOC_pad-12" x="19305" y="13708.5"/><use xlink:href="#Ll3NA4oN71CWF2wvLKOC_pad-12" x="13228.2" y="7877.8"/><use xlink:href="#Ll3NA4oN71CWF2wvLKOC_pad-13" x="16016.6" y="38202.6"/><use xlink:href="#Ll3NA4oN71CWF2wvLKOC_pad-13" x="16016.6" y="40438.9"/><use xlink:href="#Ll3NA4oN71CWF2wvLKOC_pad-13" x="21189.8" y="40438.9"/><use xlink:href="#Ll3NA4oN71CWF2wvLKOC_pad-13" x="21189.8" y="38202.6"/><use xlink:href="#Ll3NA4oN71CWF2wvLKOC_pad-14" x="7382.8" y="9257.8"/><use xlink:href="#Ll3NA4oN71CWF2wvLKOC_pad-14" x="33180" y="8055"/><use xlink:href="#Ll3NA4oN71CWF2wvLKOC_pad-14" x="38878.8" y="9257.8"/><use xlink:href="#Ll3NA4oN71CWF2wvLKOC_pad-14" x="38878.8" y="40753.8"/><use xlink:href="#Ll3NA4oN71CWF2wvLKOC_pad-14" x="7382.8" y="40753.8"/><use xlink:href="#Ll3NA4oN71CWF2wvLKOC_pad-15" x="14305" y="9677"/><use xlink:href="#Ll3NA4oN71CWF2wvLKOC_pad-15" x="24305" y="9677"/></g></svg>