G75*
%MOIN*%
%OFA0B0*%
%FSLAX25Y25*%
%IPPOS*%
%LPD*%
%AMOC8*
5,1,8,0,0,1.08239X$1,22.5*
%
%ADD10C,0.00000*%
%ADD11C,0.05315*%
%ADD12C,0.09449*%
%ADD13C,0.06496*%
%ADD14C,0.07677*%
%ADD15C,0.05906*%
%ADD16C,0.02775*%
%ADD17C,0.03562*%
%ADD18C,0.08268*%
%ADD19C,0.04800*%
%ADD20C,0.16598*%
%ADD21C,0.13055*%
%ADD22C,0.05433*%
%ADD23C,0.04724*%
%ADD24C,0.02020*%
%ADD25C,0.01200*%
%ADD26C,0.03000*%
%ADD27C,0.01600*%
%ADD28C,0.01220*%
%ADD29C,0.03543*%
%ADD30C,0.04000*%
%ADD31C,0.01000*%
D10*
X0056111Y0063050D02*
X0406505Y0063050D01*
X0406790Y0063053D01*
X0407076Y0063064D01*
X0407361Y0063081D01*
X0407645Y0063105D01*
X0407929Y0063136D01*
X0408212Y0063174D01*
X0408493Y0063219D01*
X0408774Y0063270D01*
X0409054Y0063328D01*
X0409332Y0063393D01*
X0409608Y0063465D01*
X0409882Y0063543D01*
X0410155Y0063628D01*
X0410425Y0063720D01*
X0410693Y0063818D01*
X0410959Y0063922D01*
X0411222Y0064033D01*
X0411482Y0064150D01*
X0411740Y0064273D01*
X0411994Y0064403D01*
X0412245Y0064539D01*
X0412493Y0064680D01*
X0412737Y0064828D01*
X0412978Y0064981D01*
X0413214Y0065141D01*
X0413447Y0065306D01*
X0413676Y0065476D01*
X0413901Y0065652D01*
X0414121Y0065834D01*
X0414337Y0066020D01*
X0414548Y0066212D01*
X0414755Y0066409D01*
X0414957Y0066611D01*
X0415154Y0066818D01*
X0415346Y0067029D01*
X0415532Y0067245D01*
X0415714Y0067465D01*
X0415890Y0067690D01*
X0416060Y0067919D01*
X0416225Y0068152D01*
X0416385Y0068388D01*
X0416538Y0068629D01*
X0416686Y0068873D01*
X0416827Y0069121D01*
X0416963Y0069372D01*
X0417093Y0069626D01*
X0417216Y0069884D01*
X0417333Y0070144D01*
X0417444Y0070407D01*
X0417548Y0070673D01*
X0417646Y0070941D01*
X0417738Y0071211D01*
X0417823Y0071484D01*
X0417901Y0071758D01*
X0417973Y0072034D01*
X0418038Y0072312D01*
X0418096Y0072592D01*
X0418147Y0072873D01*
X0418192Y0073154D01*
X0418230Y0073437D01*
X0418261Y0073721D01*
X0418285Y0074005D01*
X0418302Y0074290D01*
X0418313Y0074576D01*
X0418316Y0074861D01*
X0418316Y0425255D01*
X0418313Y0425540D01*
X0418302Y0425826D01*
X0418285Y0426111D01*
X0418261Y0426395D01*
X0418230Y0426679D01*
X0418192Y0426962D01*
X0418147Y0427243D01*
X0418096Y0427524D01*
X0418038Y0427804D01*
X0417973Y0428082D01*
X0417901Y0428358D01*
X0417823Y0428632D01*
X0417738Y0428905D01*
X0417646Y0429175D01*
X0417548Y0429443D01*
X0417444Y0429709D01*
X0417333Y0429972D01*
X0417216Y0430232D01*
X0417093Y0430490D01*
X0416963Y0430744D01*
X0416827Y0430995D01*
X0416686Y0431243D01*
X0416538Y0431487D01*
X0416385Y0431728D01*
X0416225Y0431964D01*
X0416060Y0432197D01*
X0415890Y0432426D01*
X0415714Y0432651D01*
X0415532Y0432871D01*
X0415346Y0433087D01*
X0415154Y0433298D01*
X0414957Y0433505D01*
X0414755Y0433707D01*
X0414548Y0433904D01*
X0414337Y0434096D01*
X0414121Y0434282D01*
X0413901Y0434464D01*
X0413676Y0434640D01*
X0413447Y0434810D01*
X0413214Y0434975D01*
X0412978Y0435135D01*
X0412737Y0435288D01*
X0412493Y0435436D01*
X0412245Y0435577D01*
X0411994Y0435713D01*
X0411740Y0435843D01*
X0411482Y0435966D01*
X0411222Y0436083D01*
X0410959Y0436194D01*
X0410693Y0436298D01*
X0410425Y0436396D01*
X0410155Y0436488D01*
X0409882Y0436573D01*
X0409608Y0436651D01*
X0409332Y0436723D01*
X0409054Y0436788D01*
X0408774Y0436846D01*
X0408493Y0436897D01*
X0408212Y0436942D01*
X0407929Y0436980D01*
X0407645Y0437011D01*
X0407361Y0437035D01*
X0407076Y0437052D01*
X0406790Y0437063D01*
X0406505Y0437066D01*
X0349418Y0437066D01*
X0349418Y0444940D01*
X0306111Y0444940D01*
X0306111Y0437066D01*
X0274615Y0437066D01*
X0274615Y0444940D01*
X0231308Y0444940D01*
X0231308Y0437066D01*
X0056111Y0437066D01*
X0055826Y0437063D01*
X0055540Y0437052D01*
X0055255Y0437035D01*
X0054971Y0437011D01*
X0054687Y0436980D01*
X0054404Y0436942D01*
X0054123Y0436897D01*
X0053842Y0436846D01*
X0053562Y0436788D01*
X0053284Y0436723D01*
X0053008Y0436651D01*
X0052734Y0436573D01*
X0052461Y0436488D01*
X0052191Y0436396D01*
X0051923Y0436298D01*
X0051657Y0436194D01*
X0051394Y0436083D01*
X0051134Y0435966D01*
X0050876Y0435843D01*
X0050622Y0435713D01*
X0050371Y0435577D01*
X0050123Y0435436D01*
X0049879Y0435288D01*
X0049638Y0435135D01*
X0049402Y0434975D01*
X0049169Y0434810D01*
X0048940Y0434640D01*
X0048715Y0434464D01*
X0048495Y0434282D01*
X0048279Y0434096D01*
X0048068Y0433904D01*
X0047861Y0433707D01*
X0047659Y0433505D01*
X0047462Y0433298D01*
X0047270Y0433087D01*
X0047084Y0432871D01*
X0046902Y0432651D01*
X0046726Y0432426D01*
X0046556Y0432197D01*
X0046391Y0431964D01*
X0046231Y0431728D01*
X0046078Y0431487D01*
X0045930Y0431243D01*
X0045789Y0430995D01*
X0045653Y0430744D01*
X0045523Y0430490D01*
X0045400Y0430232D01*
X0045283Y0429972D01*
X0045172Y0429709D01*
X0045068Y0429443D01*
X0044970Y0429175D01*
X0044878Y0428905D01*
X0044793Y0428632D01*
X0044715Y0428358D01*
X0044643Y0428082D01*
X0044578Y0427804D01*
X0044520Y0427524D01*
X0044469Y0427243D01*
X0044424Y0426962D01*
X0044386Y0426679D01*
X0044355Y0426395D01*
X0044331Y0426111D01*
X0044314Y0425826D01*
X0044303Y0425540D01*
X0044300Y0425255D01*
X0044300Y0074861D01*
X0044303Y0074576D01*
X0044314Y0074290D01*
X0044331Y0074005D01*
X0044355Y0073721D01*
X0044386Y0073437D01*
X0044424Y0073154D01*
X0044469Y0072873D01*
X0044520Y0072592D01*
X0044578Y0072312D01*
X0044643Y0072034D01*
X0044715Y0071758D01*
X0044793Y0071484D01*
X0044878Y0071211D01*
X0044970Y0070941D01*
X0045068Y0070673D01*
X0045172Y0070407D01*
X0045283Y0070144D01*
X0045400Y0069884D01*
X0045523Y0069626D01*
X0045653Y0069372D01*
X0045789Y0069121D01*
X0045930Y0068873D01*
X0046078Y0068629D01*
X0046231Y0068388D01*
X0046391Y0068152D01*
X0046556Y0067919D01*
X0046726Y0067690D01*
X0046902Y0067465D01*
X0047084Y0067245D01*
X0047270Y0067029D01*
X0047462Y0066818D01*
X0047659Y0066611D01*
X0047861Y0066409D01*
X0048068Y0066212D01*
X0048279Y0066020D01*
X0048495Y0065834D01*
X0048715Y0065652D01*
X0048940Y0065476D01*
X0049169Y0065306D01*
X0049402Y0065141D01*
X0049638Y0064981D01*
X0049879Y0064828D01*
X0050123Y0064680D01*
X0050371Y0064539D01*
X0050622Y0064403D01*
X0050876Y0064273D01*
X0051134Y0064150D01*
X0051394Y0064033D01*
X0051657Y0063922D01*
X0051923Y0063818D01*
X0052191Y0063720D01*
X0052461Y0063628D01*
X0052734Y0063543D01*
X0053008Y0063465D01*
X0053284Y0063393D01*
X0053562Y0063328D01*
X0053842Y0063270D01*
X0054123Y0063219D01*
X0054404Y0063174D01*
X0054687Y0063136D01*
X0054971Y0063105D01*
X0055255Y0063081D01*
X0055540Y0063064D01*
X0055826Y0063053D01*
X0056111Y0063050D01*
X0067529Y0092578D02*
X0067531Y0092736D01*
X0067537Y0092894D01*
X0067547Y0093052D01*
X0067561Y0093210D01*
X0067579Y0093367D01*
X0067600Y0093524D01*
X0067626Y0093680D01*
X0067656Y0093836D01*
X0067689Y0093991D01*
X0067727Y0094144D01*
X0067768Y0094297D01*
X0067813Y0094449D01*
X0067862Y0094600D01*
X0067915Y0094749D01*
X0067971Y0094897D01*
X0068031Y0095043D01*
X0068095Y0095188D01*
X0068163Y0095331D01*
X0068234Y0095473D01*
X0068308Y0095613D01*
X0068386Y0095750D01*
X0068468Y0095886D01*
X0068552Y0096020D01*
X0068641Y0096151D01*
X0068732Y0096280D01*
X0068827Y0096407D01*
X0068924Y0096532D01*
X0069025Y0096654D01*
X0069129Y0096773D01*
X0069236Y0096890D01*
X0069346Y0097004D01*
X0069459Y0097115D01*
X0069574Y0097224D01*
X0069692Y0097329D01*
X0069813Y0097431D01*
X0069936Y0097531D01*
X0070062Y0097627D01*
X0070190Y0097720D01*
X0070320Y0097810D01*
X0070453Y0097896D01*
X0070588Y0097980D01*
X0070724Y0098059D01*
X0070863Y0098136D01*
X0071004Y0098208D01*
X0071146Y0098278D01*
X0071290Y0098343D01*
X0071436Y0098405D01*
X0071583Y0098463D01*
X0071732Y0098518D01*
X0071882Y0098569D01*
X0072033Y0098616D01*
X0072185Y0098659D01*
X0072338Y0098698D01*
X0072493Y0098734D01*
X0072648Y0098765D01*
X0072804Y0098793D01*
X0072960Y0098817D01*
X0073117Y0098837D01*
X0073275Y0098853D01*
X0073432Y0098865D01*
X0073591Y0098873D01*
X0073749Y0098877D01*
X0073907Y0098877D01*
X0074065Y0098873D01*
X0074224Y0098865D01*
X0074381Y0098853D01*
X0074539Y0098837D01*
X0074696Y0098817D01*
X0074852Y0098793D01*
X0075008Y0098765D01*
X0075163Y0098734D01*
X0075318Y0098698D01*
X0075471Y0098659D01*
X0075623Y0098616D01*
X0075774Y0098569D01*
X0075924Y0098518D01*
X0076073Y0098463D01*
X0076220Y0098405D01*
X0076366Y0098343D01*
X0076510Y0098278D01*
X0076652Y0098208D01*
X0076793Y0098136D01*
X0076932Y0098059D01*
X0077068Y0097980D01*
X0077203Y0097896D01*
X0077336Y0097810D01*
X0077466Y0097720D01*
X0077594Y0097627D01*
X0077720Y0097531D01*
X0077843Y0097431D01*
X0077964Y0097329D01*
X0078082Y0097224D01*
X0078197Y0097115D01*
X0078310Y0097004D01*
X0078420Y0096890D01*
X0078527Y0096773D01*
X0078631Y0096654D01*
X0078732Y0096532D01*
X0078829Y0096407D01*
X0078924Y0096280D01*
X0079015Y0096151D01*
X0079104Y0096020D01*
X0079188Y0095886D01*
X0079270Y0095750D01*
X0079348Y0095613D01*
X0079422Y0095473D01*
X0079493Y0095331D01*
X0079561Y0095188D01*
X0079625Y0095043D01*
X0079685Y0094897D01*
X0079741Y0094749D01*
X0079794Y0094600D01*
X0079843Y0094449D01*
X0079888Y0094297D01*
X0079929Y0094144D01*
X0079967Y0093991D01*
X0080000Y0093836D01*
X0080030Y0093680D01*
X0080056Y0093524D01*
X0080077Y0093367D01*
X0080095Y0093210D01*
X0080109Y0093052D01*
X0080119Y0092894D01*
X0080125Y0092736D01*
X0080127Y0092578D01*
X0080125Y0092420D01*
X0080119Y0092262D01*
X0080109Y0092104D01*
X0080095Y0091946D01*
X0080077Y0091789D01*
X0080056Y0091632D01*
X0080030Y0091476D01*
X0080000Y0091320D01*
X0079967Y0091165D01*
X0079929Y0091012D01*
X0079888Y0090859D01*
X0079843Y0090707D01*
X0079794Y0090556D01*
X0079741Y0090407D01*
X0079685Y0090259D01*
X0079625Y0090113D01*
X0079561Y0089968D01*
X0079493Y0089825D01*
X0079422Y0089683D01*
X0079348Y0089543D01*
X0079270Y0089406D01*
X0079188Y0089270D01*
X0079104Y0089136D01*
X0079015Y0089005D01*
X0078924Y0088876D01*
X0078829Y0088749D01*
X0078732Y0088624D01*
X0078631Y0088502D01*
X0078527Y0088383D01*
X0078420Y0088266D01*
X0078310Y0088152D01*
X0078197Y0088041D01*
X0078082Y0087932D01*
X0077964Y0087827D01*
X0077843Y0087725D01*
X0077720Y0087625D01*
X0077594Y0087529D01*
X0077466Y0087436D01*
X0077336Y0087346D01*
X0077203Y0087260D01*
X0077068Y0087176D01*
X0076932Y0087097D01*
X0076793Y0087020D01*
X0076652Y0086948D01*
X0076510Y0086878D01*
X0076366Y0086813D01*
X0076220Y0086751D01*
X0076073Y0086693D01*
X0075924Y0086638D01*
X0075774Y0086587D01*
X0075623Y0086540D01*
X0075471Y0086497D01*
X0075318Y0086458D01*
X0075163Y0086422D01*
X0075008Y0086391D01*
X0074852Y0086363D01*
X0074696Y0086339D01*
X0074539Y0086319D01*
X0074381Y0086303D01*
X0074224Y0086291D01*
X0074065Y0086283D01*
X0073907Y0086279D01*
X0073749Y0086279D01*
X0073591Y0086283D01*
X0073432Y0086291D01*
X0073275Y0086303D01*
X0073117Y0086319D01*
X0072960Y0086339D01*
X0072804Y0086363D01*
X0072648Y0086391D01*
X0072493Y0086422D01*
X0072338Y0086458D01*
X0072185Y0086497D01*
X0072033Y0086540D01*
X0071882Y0086587D01*
X0071732Y0086638D01*
X0071583Y0086693D01*
X0071436Y0086751D01*
X0071290Y0086813D01*
X0071146Y0086878D01*
X0071004Y0086948D01*
X0070863Y0087020D01*
X0070724Y0087097D01*
X0070588Y0087176D01*
X0070453Y0087260D01*
X0070320Y0087346D01*
X0070190Y0087436D01*
X0070062Y0087529D01*
X0069936Y0087625D01*
X0069813Y0087725D01*
X0069692Y0087827D01*
X0069574Y0087932D01*
X0069459Y0088041D01*
X0069346Y0088152D01*
X0069236Y0088266D01*
X0069129Y0088383D01*
X0069025Y0088502D01*
X0068924Y0088624D01*
X0068827Y0088749D01*
X0068732Y0088876D01*
X0068641Y0089005D01*
X0068552Y0089136D01*
X0068468Y0089270D01*
X0068386Y0089406D01*
X0068308Y0089543D01*
X0068234Y0089683D01*
X0068163Y0089825D01*
X0068095Y0089968D01*
X0068031Y0090113D01*
X0067971Y0090259D01*
X0067915Y0090407D01*
X0067862Y0090556D01*
X0067813Y0090707D01*
X0067768Y0090859D01*
X0067727Y0091012D01*
X0067689Y0091165D01*
X0067656Y0091320D01*
X0067626Y0091476D01*
X0067600Y0091632D01*
X0067579Y0091789D01*
X0067561Y0091946D01*
X0067547Y0092104D01*
X0067537Y0092262D01*
X0067531Y0092420D01*
X0067529Y0092578D01*
X0136652Y0096770D02*
X0136654Y0096930D01*
X0136660Y0097089D01*
X0136670Y0097248D01*
X0136684Y0097407D01*
X0136702Y0097566D01*
X0136723Y0097724D01*
X0136749Y0097881D01*
X0136779Y0098038D01*
X0136812Y0098194D01*
X0136850Y0098349D01*
X0136891Y0098503D01*
X0136936Y0098656D01*
X0136985Y0098808D01*
X0137038Y0098958D01*
X0137094Y0099107D01*
X0137154Y0099255D01*
X0137218Y0099401D01*
X0137286Y0099546D01*
X0137357Y0099689D01*
X0137431Y0099830D01*
X0137509Y0099969D01*
X0137591Y0100106D01*
X0137676Y0100241D01*
X0137764Y0100374D01*
X0137855Y0100505D01*
X0137950Y0100633D01*
X0138048Y0100759D01*
X0138149Y0100883D01*
X0138253Y0101003D01*
X0138360Y0101122D01*
X0138470Y0101237D01*
X0138583Y0101350D01*
X0138698Y0101460D01*
X0138817Y0101567D01*
X0138937Y0101671D01*
X0139061Y0101772D01*
X0139187Y0101870D01*
X0139315Y0101965D01*
X0139446Y0102056D01*
X0139579Y0102144D01*
X0139714Y0102229D01*
X0139851Y0102311D01*
X0139990Y0102389D01*
X0140131Y0102463D01*
X0140274Y0102534D01*
X0140419Y0102602D01*
X0140565Y0102666D01*
X0140713Y0102726D01*
X0140862Y0102782D01*
X0141012Y0102835D01*
X0141164Y0102884D01*
X0141317Y0102929D01*
X0141471Y0102970D01*
X0141626Y0103008D01*
X0141782Y0103041D01*
X0141939Y0103071D01*
X0142096Y0103097D01*
X0142254Y0103118D01*
X0142413Y0103136D01*
X0142572Y0103150D01*
X0142731Y0103160D01*
X0142890Y0103166D01*
X0143050Y0103168D01*
X0143210Y0103166D01*
X0143369Y0103160D01*
X0143528Y0103150D01*
X0143687Y0103136D01*
X0143846Y0103118D01*
X0144004Y0103097D01*
X0144161Y0103071D01*
X0144318Y0103041D01*
X0144474Y0103008D01*
X0144629Y0102970D01*
X0144783Y0102929D01*
X0144936Y0102884D01*
X0145088Y0102835D01*
X0145238Y0102782D01*
X0145387Y0102726D01*
X0145535Y0102666D01*
X0145681Y0102602D01*
X0145826Y0102534D01*
X0145969Y0102463D01*
X0146110Y0102389D01*
X0146249Y0102311D01*
X0146386Y0102229D01*
X0146521Y0102144D01*
X0146654Y0102056D01*
X0146785Y0101965D01*
X0146913Y0101870D01*
X0147039Y0101772D01*
X0147163Y0101671D01*
X0147283Y0101567D01*
X0147402Y0101460D01*
X0147517Y0101350D01*
X0147630Y0101237D01*
X0147740Y0101122D01*
X0147847Y0101003D01*
X0147951Y0100883D01*
X0148052Y0100759D01*
X0148150Y0100633D01*
X0148245Y0100505D01*
X0148336Y0100374D01*
X0148424Y0100241D01*
X0148509Y0100106D01*
X0148591Y0099969D01*
X0148669Y0099830D01*
X0148743Y0099689D01*
X0148814Y0099546D01*
X0148882Y0099401D01*
X0148946Y0099255D01*
X0149006Y0099107D01*
X0149062Y0098958D01*
X0149115Y0098808D01*
X0149164Y0098656D01*
X0149209Y0098503D01*
X0149250Y0098349D01*
X0149288Y0098194D01*
X0149321Y0098038D01*
X0149351Y0097881D01*
X0149377Y0097724D01*
X0149398Y0097566D01*
X0149416Y0097407D01*
X0149430Y0097248D01*
X0149440Y0097089D01*
X0149446Y0096930D01*
X0149448Y0096770D01*
X0149446Y0096610D01*
X0149440Y0096451D01*
X0149430Y0096292D01*
X0149416Y0096133D01*
X0149398Y0095974D01*
X0149377Y0095816D01*
X0149351Y0095659D01*
X0149321Y0095502D01*
X0149288Y0095346D01*
X0149250Y0095191D01*
X0149209Y0095037D01*
X0149164Y0094884D01*
X0149115Y0094732D01*
X0149062Y0094582D01*
X0149006Y0094433D01*
X0148946Y0094285D01*
X0148882Y0094139D01*
X0148814Y0093994D01*
X0148743Y0093851D01*
X0148669Y0093710D01*
X0148591Y0093571D01*
X0148509Y0093434D01*
X0148424Y0093299D01*
X0148336Y0093166D01*
X0148245Y0093035D01*
X0148150Y0092907D01*
X0148052Y0092781D01*
X0147951Y0092657D01*
X0147847Y0092537D01*
X0147740Y0092418D01*
X0147630Y0092303D01*
X0147517Y0092190D01*
X0147402Y0092080D01*
X0147283Y0091973D01*
X0147163Y0091869D01*
X0147039Y0091768D01*
X0146913Y0091670D01*
X0146785Y0091575D01*
X0146654Y0091484D01*
X0146521Y0091396D01*
X0146386Y0091311D01*
X0146249Y0091229D01*
X0146110Y0091151D01*
X0145969Y0091077D01*
X0145826Y0091006D01*
X0145681Y0090938D01*
X0145535Y0090874D01*
X0145387Y0090814D01*
X0145238Y0090758D01*
X0145088Y0090705D01*
X0144936Y0090656D01*
X0144783Y0090611D01*
X0144629Y0090570D01*
X0144474Y0090532D01*
X0144318Y0090499D01*
X0144161Y0090469D01*
X0144004Y0090443D01*
X0143846Y0090422D01*
X0143687Y0090404D01*
X0143528Y0090390D01*
X0143369Y0090380D01*
X0143210Y0090374D01*
X0143050Y0090372D01*
X0142890Y0090374D01*
X0142731Y0090380D01*
X0142572Y0090390D01*
X0142413Y0090404D01*
X0142254Y0090422D01*
X0142096Y0090443D01*
X0141939Y0090469D01*
X0141782Y0090499D01*
X0141626Y0090532D01*
X0141471Y0090570D01*
X0141317Y0090611D01*
X0141164Y0090656D01*
X0141012Y0090705D01*
X0140862Y0090758D01*
X0140713Y0090814D01*
X0140565Y0090874D01*
X0140419Y0090938D01*
X0140274Y0091006D01*
X0140131Y0091077D01*
X0139990Y0091151D01*
X0139851Y0091229D01*
X0139714Y0091311D01*
X0139579Y0091396D01*
X0139446Y0091484D01*
X0139315Y0091575D01*
X0139187Y0091670D01*
X0139061Y0091768D01*
X0138937Y0091869D01*
X0138817Y0091973D01*
X0138698Y0092080D01*
X0138583Y0092190D01*
X0138470Y0092303D01*
X0138360Y0092418D01*
X0138253Y0092537D01*
X0138149Y0092657D01*
X0138048Y0092781D01*
X0137950Y0092907D01*
X0137855Y0093035D01*
X0137764Y0093166D01*
X0137676Y0093299D01*
X0137591Y0093434D01*
X0137509Y0093571D01*
X0137431Y0093710D01*
X0137357Y0093851D01*
X0137286Y0093994D01*
X0137218Y0094139D01*
X0137154Y0094285D01*
X0137094Y0094433D01*
X0137038Y0094582D01*
X0136985Y0094732D01*
X0136936Y0094884D01*
X0136891Y0095037D01*
X0136850Y0095191D01*
X0136812Y0095346D01*
X0136779Y0095502D01*
X0136749Y0095659D01*
X0136723Y0095816D01*
X0136702Y0095974D01*
X0136684Y0096133D01*
X0136670Y0096292D01*
X0136660Y0096451D01*
X0136654Y0096610D01*
X0136652Y0096770D01*
X0236652Y0096770D02*
X0236654Y0096930D01*
X0236660Y0097089D01*
X0236670Y0097248D01*
X0236684Y0097407D01*
X0236702Y0097566D01*
X0236723Y0097724D01*
X0236749Y0097881D01*
X0236779Y0098038D01*
X0236812Y0098194D01*
X0236850Y0098349D01*
X0236891Y0098503D01*
X0236936Y0098656D01*
X0236985Y0098808D01*
X0237038Y0098958D01*
X0237094Y0099107D01*
X0237154Y0099255D01*
X0237218Y0099401D01*
X0237286Y0099546D01*
X0237357Y0099689D01*
X0237431Y0099830D01*
X0237509Y0099969D01*
X0237591Y0100106D01*
X0237676Y0100241D01*
X0237764Y0100374D01*
X0237855Y0100505D01*
X0237950Y0100633D01*
X0238048Y0100759D01*
X0238149Y0100883D01*
X0238253Y0101003D01*
X0238360Y0101122D01*
X0238470Y0101237D01*
X0238583Y0101350D01*
X0238698Y0101460D01*
X0238817Y0101567D01*
X0238937Y0101671D01*
X0239061Y0101772D01*
X0239187Y0101870D01*
X0239315Y0101965D01*
X0239446Y0102056D01*
X0239579Y0102144D01*
X0239714Y0102229D01*
X0239851Y0102311D01*
X0239990Y0102389D01*
X0240131Y0102463D01*
X0240274Y0102534D01*
X0240419Y0102602D01*
X0240565Y0102666D01*
X0240713Y0102726D01*
X0240862Y0102782D01*
X0241012Y0102835D01*
X0241164Y0102884D01*
X0241317Y0102929D01*
X0241471Y0102970D01*
X0241626Y0103008D01*
X0241782Y0103041D01*
X0241939Y0103071D01*
X0242096Y0103097D01*
X0242254Y0103118D01*
X0242413Y0103136D01*
X0242572Y0103150D01*
X0242731Y0103160D01*
X0242890Y0103166D01*
X0243050Y0103168D01*
X0243210Y0103166D01*
X0243369Y0103160D01*
X0243528Y0103150D01*
X0243687Y0103136D01*
X0243846Y0103118D01*
X0244004Y0103097D01*
X0244161Y0103071D01*
X0244318Y0103041D01*
X0244474Y0103008D01*
X0244629Y0102970D01*
X0244783Y0102929D01*
X0244936Y0102884D01*
X0245088Y0102835D01*
X0245238Y0102782D01*
X0245387Y0102726D01*
X0245535Y0102666D01*
X0245681Y0102602D01*
X0245826Y0102534D01*
X0245969Y0102463D01*
X0246110Y0102389D01*
X0246249Y0102311D01*
X0246386Y0102229D01*
X0246521Y0102144D01*
X0246654Y0102056D01*
X0246785Y0101965D01*
X0246913Y0101870D01*
X0247039Y0101772D01*
X0247163Y0101671D01*
X0247283Y0101567D01*
X0247402Y0101460D01*
X0247517Y0101350D01*
X0247630Y0101237D01*
X0247740Y0101122D01*
X0247847Y0101003D01*
X0247951Y0100883D01*
X0248052Y0100759D01*
X0248150Y0100633D01*
X0248245Y0100505D01*
X0248336Y0100374D01*
X0248424Y0100241D01*
X0248509Y0100106D01*
X0248591Y0099969D01*
X0248669Y0099830D01*
X0248743Y0099689D01*
X0248814Y0099546D01*
X0248882Y0099401D01*
X0248946Y0099255D01*
X0249006Y0099107D01*
X0249062Y0098958D01*
X0249115Y0098808D01*
X0249164Y0098656D01*
X0249209Y0098503D01*
X0249250Y0098349D01*
X0249288Y0098194D01*
X0249321Y0098038D01*
X0249351Y0097881D01*
X0249377Y0097724D01*
X0249398Y0097566D01*
X0249416Y0097407D01*
X0249430Y0097248D01*
X0249440Y0097089D01*
X0249446Y0096930D01*
X0249448Y0096770D01*
X0249446Y0096610D01*
X0249440Y0096451D01*
X0249430Y0096292D01*
X0249416Y0096133D01*
X0249398Y0095974D01*
X0249377Y0095816D01*
X0249351Y0095659D01*
X0249321Y0095502D01*
X0249288Y0095346D01*
X0249250Y0095191D01*
X0249209Y0095037D01*
X0249164Y0094884D01*
X0249115Y0094732D01*
X0249062Y0094582D01*
X0249006Y0094433D01*
X0248946Y0094285D01*
X0248882Y0094139D01*
X0248814Y0093994D01*
X0248743Y0093851D01*
X0248669Y0093710D01*
X0248591Y0093571D01*
X0248509Y0093434D01*
X0248424Y0093299D01*
X0248336Y0093166D01*
X0248245Y0093035D01*
X0248150Y0092907D01*
X0248052Y0092781D01*
X0247951Y0092657D01*
X0247847Y0092537D01*
X0247740Y0092418D01*
X0247630Y0092303D01*
X0247517Y0092190D01*
X0247402Y0092080D01*
X0247283Y0091973D01*
X0247163Y0091869D01*
X0247039Y0091768D01*
X0246913Y0091670D01*
X0246785Y0091575D01*
X0246654Y0091484D01*
X0246521Y0091396D01*
X0246386Y0091311D01*
X0246249Y0091229D01*
X0246110Y0091151D01*
X0245969Y0091077D01*
X0245826Y0091006D01*
X0245681Y0090938D01*
X0245535Y0090874D01*
X0245387Y0090814D01*
X0245238Y0090758D01*
X0245088Y0090705D01*
X0244936Y0090656D01*
X0244783Y0090611D01*
X0244629Y0090570D01*
X0244474Y0090532D01*
X0244318Y0090499D01*
X0244161Y0090469D01*
X0244004Y0090443D01*
X0243846Y0090422D01*
X0243687Y0090404D01*
X0243528Y0090390D01*
X0243369Y0090380D01*
X0243210Y0090374D01*
X0243050Y0090372D01*
X0242890Y0090374D01*
X0242731Y0090380D01*
X0242572Y0090390D01*
X0242413Y0090404D01*
X0242254Y0090422D01*
X0242096Y0090443D01*
X0241939Y0090469D01*
X0241782Y0090499D01*
X0241626Y0090532D01*
X0241471Y0090570D01*
X0241317Y0090611D01*
X0241164Y0090656D01*
X0241012Y0090705D01*
X0240862Y0090758D01*
X0240713Y0090814D01*
X0240565Y0090874D01*
X0240419Y0090938D01*
X0240274Y0091006D01*
X0240131Y0091077D01*
X0239990Y0091151D01*
X0239851Y0091229D01*
X0239714Y0091311D01*
X0239579Y0091396D01*
X0239446Y0091484D01*
X0239315Y0091575D01*
X0239187Y0091670D01*
X0239061Y0091768D01*
X0238937Y0091869D01*
X0238817Y0091973D01*
X0238698Y0092080D01*
X0238583Y0092190D01*
X0238470Y0092303D01*
X0238360Y0092418D01*
X0238253Y0092537D01*
X0238149Y0092657D01*
X0238048Y0092781D01*
X0237950Y0092907D01*
X0237855Y0093035D01*
X0237764Y0093166D01*
X0237676Y0093299D01*
X0237591Y0093434D01*
X0237509Y0093571D01*
X0237431Y0093710D01*
X0237357Y0093851D01*
X0237286Y0093994D01*
X0237218Y0094139D01*
X0237154Y0094285D01*
X0237094Y0094433D01*
X0237038Y0094582D01*
X0236985Y0094732D01*
X0236936Y0094884D01*
X0236891Y0095037D01*
X0236850Y0095191D01*
X0236812Y0095346D01*
X0236779Y0095502D01*
X0236749Y0095659D01*
X0236723Y0095816D01*
X0236702Y0095974D01*
X0236684Y0096133D01*
X0236670Y0096292D01*
X0236660Y0096451D01*
X0236654Y0096610D01*
X0236652Y0096770D01*
X0382489Y0092578D02*
X0382491Y0092736D01*
X0382497Y0092894D01*
X0382507Y0093052D01*
X0382521Y0093210D01*
X0382539Y0093367D01*
X0382560Y0093524D01*
X0382586Y0093680D01*
X0382616Y0093836D01*
X0382649Y0093991D01*
X0382687Y0094144D01*
X0382728Y0094297D01*
X0382773Y0094449D01*
X0382822Y0094600D01*
X0382875Y0094749D01*
X0382931Y0094897D01*
X0382991Y0095043D01*
X0383055Y0095188D01*
X0383123Y0095331D01*
X0383194Y0095473D01*
X0383268Y0095613D01*
X0383346Y0095750D01*
X0383428Y0095886D01*
X0383512Y0096020D01*
X0383601Y0096151D01*
X0383692Y0096280D01*
X0383787Y0096407D01*
X0383884Y0096532D01*
X0383985Y0096654D01*
X0384089Y0096773D01*
X0384196Y0096890D01*
X0384306Y0097004D01*
X0384419Y0097115D01*
X0384534Y0097224D01*
X0384652Y0097329D01*
X0384773Y0097431D01*
X0384896Y0097531D01*
X0385022Y0097627D01*
X0385150Y0097720D01*
X0385280Y0097810D01*
X0385413Y0097896D01*
X0385548Y0097980D01*
X0385684Y0098059D01*
X0385823Y0098136D01*
X0385964Y0098208D01*
X0386106Y0098278D01*
X0386250Y0098343D01*
X0386396Y0098405D01*
X0386543Y0098463D01*
X0386692Y0098518D01*
X0386842Y0098569D01*
X0386993Y0098616D01*
X0387145Y0098659D01*
X0387298Y0098698D01*
X0387453Y0098734D01*
X0387608Y0098765D01*
X0387764Y0098793D01*
X0387920Y0098817D01*
X0388077Y0098837D01*
X0388235Y0098853D01*
X0388392Y0098865D01*
X0388551Y0098873D01*
X0388709Y0098877D01*
X0388867Y0098877D01*
X0389025Y0098873D01*
X0389184Y0098865D01*
X0389341Y0098853D01*
X0389499Y0098837D01*
X0389656Y0098817D01*
X0389812Y0098793D01*
X0389968Y0098765D01*
X0390123Y0098734D01*
X0390278Y0098698D01*
X0390431Y0098659D01*
X0390583Y0098616D01*
X0390734Y0098569D01*
X0390884Y0098518D01*
X0391033Y0098463D01*
X0391180Y0098405D01*
X0391326Y0098343D01*
X0391470Y0098278D01*
X0391612Y0098208D01*
X0391753Y0098136D01*
X0391892Y0098059D01*
X0392028Y0097980D01*
X0392163Y0097896D01*
X0392296Y0097810D01*
X0392426Y0097720D01*
X0392554Y0097627D01*
X0392680Y0097531D01*
X0392803Y0097431D01*
X0392924Y0097329D01*
X0393042Y0097224D01*
X0393157Y0097115D01*
X0393270Y0097004D01*
X0393380Y0096890D01*
X0393487Y0096773D01*
X0393591Y0096654D01*
X0393692Y0096532D01*
X0393789Y0096407D01*
X0393884Y0096280D01*
X0393975Y0096151D01*
X0394064Y0096020D01*
X0394148Y0095886D01*
X0394230Y0095750D01*
X0394308Y0095613D01*
X0394382Y0095473D01*
X0394453Y0095331D01*
X0394521Y0095188D01*
X0394585Y0095043D01*
X0394645Y0094897D01*
X0394701Y0094749D01*
X0394754Y0094600D01*
X0394803Y0094449D01*
X0394848Y0094297D01*
X0394889Y0094144D01*
X0394927Y0093991D01*
X0394960Y0093836D01*
X0394990Y0093680D01*
X0395016Y0093524D01*
X0395037Y0093367D01*
X0395055Y0093210D01*
X0395069Y0093052D01*
X0395079Y0092894D01*
X0395085Y0092736D01*
X0395087Y0092578D01*
X0395085Y0092420D01*
X0395079Y0092262D01*
X0395069Y0092104D01*
X0395055Y0091946D01*
X0395037Y0091789D01*
X0395016Y0091632D01*
X0394990Y0091476D01*
X0394960Y0091320D01*
X0394927Y0091165D01*
X0394889Y0091012D01*
X0394848Y0090859D01*
X0394803Y0090707D01*
X0394754Y0090556D01*
X0394701Y0090407D01*
X0394645Y0090259D01*
X0394585Y0090113D01*
X0394521Y0089968D01*
X0394453Y0089825D01*
X0394382Y0089683D01*
X0394308Y0089543D01*
X0394230Y0089406D01*
X0394148Y0089270D01*
X0394064Y0089136D01*
X0393975Y0089005D01*
X0393884Y0088876D01*
X0393789Y0088749D01*
X0393692Y0088624D01*
X0393591Y0088502D01*
X0393487Y0088383D01*
X0393380Y0088266D01*
X0393270Y0088152D01*
X0393157Y0088041D01*
X0393042Y0087932D01*
X0392924Y0087827D01*
X0392803Y0087725D01*
X0392680Y0087625D01*
X0392554Y0087529D01*
X0392426Y0087436D01*
X0392296Y0087346D01*
X0392163Y0087260D01*
X0392028Y0087176D01*
X0391892Y0087097D01*
X0391753Y0087020D01*
X0391612Y0086948D01*
X0391470Y0086878D01*
X0391326Y0086813D01*
X0391180Y0086751D01*
X0391033Y0086693D01*
X0390884Y0086638D01*
X0390734Y0086587D01*
X0390583Y0086540D01*
X0390431Y0086497D01*
X0390278Y0086458D01*
X0390123Y0086422D01*
X0389968Y0086391D01*
X0389812Y0086363D01*
X0389656Y0086339D01*
X0389499Y0086319D01*
X0389341Y0086303D01*
X0389184Y0086291D01*
X0389025Y0086283D01*
X0388867Y0086279D01*
X0388709Y0086279D01*
X0388551Y0086283D01*
X0388392Y0086291D01*
X0388235Y0086303D01*
X0388077Y0086319D01*
X0387920Y0086339D01*
X0387764Y0086363D01*
X0387608Y0086391D01*
X0387453Y0086422D01*
X0387298Y0086458D01*
X0387145Y0086497D01*
X0386993Y0086540D01*
X0386842Y0086587D01*
X0386692Y0086638D01*
X0386543Y0086693D01*
X0386396Y0086751D01*
X0386250Y0086813D01*
X0386106Y0086878D01*
X0385964Y0086948D01*
X0385823Y0087020D01*
X0385684Y0087097D01*
X0385548Y0087176D01*
X0385413Y0087260D01*
X0385280Y0087346D01*
X0385150Y0087436D01*
X0385022Y0087529D01*
X0384896Y0087625D01*
X0384773Y0087725D01*
X0384652Y0087827D01*
X0384534Y0087932D01*
X0384419Y0088041D01*
X0384306Y0088152D01*
X0384196Y0088266D01*
X0384089Y0088383D01*
X0383985Y0088502D01*
X0383884Y0088624D01*
X0383787Y0088749D01*
X0383692Y0088876D01*
X0383601Y0089005D01*
X0383512Y0089136D01*
X0383428Y0089270D01*
X0383346Y0089406D01*
X0383268Y0089543D01*
X0383194Y0089683D01*
X0383123Y0089825D01*
X0383055Y0089968D01*
X0382991Y0090113D01*
X0382931Y0090259D01*
X0382875Y0090407D01*
X0382822Y0090556D01*
X0382773Y0090707D01*
X0382728Y0090859D01*
X0382687Y0091012D01*
X0382649Y0091165D01*
X0382616Y0091320D01*
X0382586Y0091476D01*
X0382560Y0091632D01*
X0382539Y0091789D01*
X0382521Y0091946D01*
X0382507Y0092104D01*
X0382497Y0092262D01*
X0382491Y0092420D01*
X0382489Y0092578D01*
X0382489Y0407538D02*
X0382491Y0407696D01*
X0382497Y0407854D01*
X0382507Y0408012D01*
X0382521Y0408170D01*
X0382539Y0408327D01*
X0382560Y0408484D01*
X0382586Y0408640D01*
X0382616Y0408796D01*
X0382649Y0408951D01*
X0382687Y0409104D01*
X0382728Y0409257D01*
X0382773Y0409409D01*
X0382822Y0409560D01*
X0382875Y0409709D01*
X0382931Y0409857D01*
X0382991Y0410003D01*
X0383055Y0410148D01*
X0383123Y0410291D01*
X0383194Y0410433D01*
X0383268Y0410573D01*
X0383346Y0410710D01*
X0383428Y0410846D01*
X0383512Y0410980D01*
X0383601Y0411111D01*
X0383692Y0411240D01*
X0383787Y0411367D01*
X0383884Y0411492D01*
X0383985Y0411614D01*
X0384089Y0411733D01*
X0384196Y0411850D01*
X0384306Y0411964D01*
X0384419Y0412075D01*
X0384534Y0412184D01*
X0384652Y0412289D01*
X0384773Y0412391D01*
X0384896Y0412491D01*
X0385022Y0412587D01*
X0385150Y0412680D01*
X0385280Y0412770D01*
X0385413Y0412856D01*
X0385548Y0412940D01*
X0385684Y0413019D01*
X0385823Y0413096D01*
X0385964Y0413168D01*
X0386106Y0413238D01*
X0386250Y0413303D01*
X0386396Y0413365D01*
X0386543Y0413423D01*
X0386692Y0413478D01*
X0386842Y0413529D01*
X0386993Y0413576D01*
X0387145Y0413619D01*
X0387298Y0413658D01*
X0387453Y0413694D01*
X0387608Y0413725D01*
X0387764Y0413753D01*
X0387920Y0413777D01*
X0388077Y0413797D01*
X0388235Y0413813D01*
X0388392Y0413825D01*
X0388551Y0413833D01*
X0388709Y0413837D01*
X0388867Y0413837D01*
X0389025Y0413833D01*
X0389184Y0413825D01*
X0389341Y0413813D01*
X0389499Y0413797D01*
X0389656Y0413777D01*
X0389812Y0413753D01*
X0389968Y0413725D01*
X0390123Y0413694D01*
X0390278Y0413658D01*
X0390431Y0413619D01*
X0390583Y0413576D01*
X0390734Y0413529D01*
X0390884Y0413478D01*
X0391033Y0413423D01*
X0391180Y0413365D01*
X0391326Y0413303D01*
X0391470Y0413238D01*
X0391612Y0413168D01*
X0391753Y0413096D01*
X0391892Y0413019D01*
X0392028Y0412940D01*
X0392163Y0412856D01*
X0392296Y0412770D01*
X0392426Y0412680D01*
X0392554Y0412587D01*
X0392680Y0412491D01*
X0392803Y0412391D01*
X0392924Y0412289D01*
X0393042Y0412184D01*
X0393157Y0412075D01*
X0393270Y0411964D01*
X0393380Y0411850D01*
X0393487Y0411733D01*
X0393591Y0411614D01*
X0393692Y0411492D01*
X0393789Y0411367D01*
X0393884Y0411240D01*
X0393975Y0411111D01*
X0394064Y0410980D01*
X0394148Y0410846D01*
X0394230Y0410710D01*
X0394308Y0410573D01*
X0394382Y0410433D01*
X0394453Y0410291D01*
X0394521Y0410148D01*
X0394585Y0410003D01*
X0394645Y0409857D01*
X0394701Y0409709D01*
X0394754Y0409560D01*
X0394803Y0409409D01*
X0394848Y0409257D01*
X0394889Y0409104D01*
X0394927Y0408951D01*
X0394960Y0408796D01*
X0394990Y0408640D01*
X0395016Y0408484D01*
X0395037Y0408327D01*
X0395055Y0408170D01*
X0395069Y0408012D01*
X0395079Y0407854D01*
X0395085Y0407696D01*
X0395087Y0407538D01*
X0395085Y0407380D01*
X0395079Y0407222D01*
X0395069Y0407064D01*
X0395055Y0406906D01*
X0395037Y0406749D01*
X0395016Y0406592D01*
X0394990Y0406436D01*
X0394960Y0406280D01*
X0394927Y0406125D01*
X0394889Y0405972D01*
X0394848Y0405819D01*
X0394803Y0405667D01*
X0394754Y0405516D01*
X0394701Y0405367D01*
X0394645Y0405219D01*
X0394585Y0405073D01*
X0394521Y0404928D01*
X0394453Y0404785D01*
X0394382Y0404643D01*
X0394308Y0404503D01*
X0394230Y0404366D01*
X0394148Y0404230D01*
X0394064Y0404096D01*
X0393975Y0403965D01*
X0393884Y0403836D01*
X0393789Y0403709D01*
X0393692Y0403584D01*
X0393591Y0403462D01*
X0393487Y0403343D01*
X0393380Y0403226D01*
X0393270Y0403112D01*
X0393157Y0403001D01*
X0393042Y0402892D01*
X0392924Y0402787D01*
X0392803Y0402685D01*
X0392680Y0402585D01*
X0392554Y0402489D01*
X0392426Y0402396D01*
X0392296Y0402306D01*
X0392163Y0402220D01*
X0392028Y0402136D01*
X0391892Y0402057D01*
X0391753Y0401980D01*
X0391612Y0401908D01*
X0391470Y0401838D01*
X0391326Y0401773D01*
X0391180Y0401711D01*
X0391033Y0401653D01*
X0390884Y0401598D01*
X0390734Y0401547D01*
X0390583Y0401500D01*
X0390431Y0401457D01*
X0390278Y0401418D01*
X0390123Y0401382D01*
X0389968Y0401351D01*
X0389812Y0401323D01*
X0389656Y0401299D01*
X0389499Y0401279D01*
X0389341Y0401263D01*
X0389184Y0401251D01*
X0389025Y0401243D01*
X0388867Y0401239D01*
X0388709Y0401239D01*
X0388551Y0401243D01*
X0388392Y0401251D01*
X0388235Y0401263D01*
X0388077Y0401279D01*
X0387920Y0401299D01*
X0387764Y0401323D01*
X0387608Y0401351D01*
X0387453Y0401382D01*
X0387298Y0401418D01*
X0387145Y0401457D01*
X0386993Y0401500D01*
X0386842Y0401547D01*
X0386692Y0401598D01*
X0386543Y0401653D01*
X0386396Y0401711D01*
X0386250Y0401773D01*
X0386106Y0401838D01*
X0385964Y0401908D01*
X0385823Y0401980D01*
X0385684Y0402057D01*
X0385548Y0402136D01*
X0385413Y0402220D01*
X0385280Y0402306D01*
X0385150Y0402396D01*
X0385022Y0402489D01*
X0384896Y0402585D01*
X0384773Y0402685D01*
X0384652Y0402787D01*
X0384534Y0402892D01*
X0384419Y0403001D01*
X0384306Y0403112D01*
X0384196Y0403226D01*
X0384089Y0403343D01*
X0383985Y0403462D01*
X0383884Y0403584D01*
X0383787Y0403709D01*
X0383692Y0403836D01*
X0383601Y0403965D01*
X0383512Y0404096D01*
X0383428Y0404230D01*
X0383346Y0404366D01*
X0383268Y0404503D01*
X0383194Y0404643D01*
X0383123Y0404785D01*
X0383055Y0404928D01*
X0382991Y0405073D01*
X0382931Y0405219D01*
X0382875Y0405367D01*
X0382822Y0405516D01*
X0382773Y0405667D01*
X0382728Y0405819D01*
X0382687Y0405972D01*
X0382649Y0406125D01*
X0382616Y0406280D01*
X0382586Y0406436D01*
X0382560Y0406592D01*
X0382539Y0406749D01*
X0382521Y0406906D01*
X0382507Y0407064D01*
X0382497Y0407222D01*
X0382491Y0407380D01*
X0382489Y0407538D01*
X0067529Y0407538D02*
X0067531Y0407696D01*
X0067537Y0407854D01*
X0067547Y0408012D01*
X0067561Y0408170D01*
X0067579Y0408327D01*
X0067600Y0408484D01*
X0067626Y0408640D01*
X0067656Y0408796D01*
X0067689Y0408951D01*
X0067727Y0409104D01*
X0067768Y0409257D01*
X0067813Y0409409D01*
X0067862Y0409560D01*
X0067915Y0409709D01*
X0067971Y0409857D01*
X0068031Y0410003D01*
X0068095Y0410148D01*
X0068163Y0410291D01*
X0068234Y0410433D01*
X0068308Y0410573D01*
X0068386Y0410710D01*
X0068468Y0410846D01*
X0068552Y0410980D01*
X0068641Y0411111D01*
X0068732Y0411240D01*
X0068827Y0411367D01*
X0068924Y0411492D01*
X0069025Y0411614D01*
X0069129Y0411733D01*
X0069236Y0411850D01*
X0069346Y0411964D01*
X0069459Y0412075D01*
X0069574Y0412184D01*
X0069692Y0412289D01*
X0069813Y0412391D01*
X0069936Y0412491D01*
X0070062Y0412587D01*
X0070190Y0412680D01*
X0070320Y0412770D01*
X0070453Y0412856D01*
X0070588Y0412940D01*
X0070724Y0413019D01*
X0070863Y0413096D01*
X0071004Y0413168D01*
X0071146Y0413238D01*
X0071290Y0413303D01*
X0071436Y0413365D01*
X0071583Y0413423D01*
X0071732Y0413478D01*
X0071882Y0413529D01*
X0072033Y0413576D01*
X0072185Y0413619D01*
X0072338Y0413658D01*
X0072493Y0413694D01*
X0072648Y0413725D01*
X0072804Y0413753D01*
X0072960Y0413777D01*
X0073117Y0413797D01*
X0073275Y0413813D01*
X0073432Y0413825D01*
X0073591Y0413833D01*
X0073749Y0413837D01*
X0073907Y0413837D01*
X0074065Y0413833D01*
X0074224Y0413825D01*
X0074381Y0413813D01*
X0074539Y0413797D01*
X0074696Y0413777D01*
X0074852Y0413753D01*
X0075008Y0413725D01*
X0075163Y0413694D01*
X0075318Y0413658D01*
X0075471Y0413619D01*
X0075623Y0413576D01*
X0075774Y0413529D01*
X0075924Y0413478D01*
X0076073Y0413423D01*
X0076220Y0413365D01*
X0076366Y0413303D01*
X0076510Y0413238D01*
X0076652Y0413168D01*
X0076793Y0413096D01*
X0076932Y0413019D01*
X0077068Y0412940D01*
X0077203Y0412856D01*
X0077336Y0412770D01*
X0077466Y0412680D01*
X0077594Y0412587D01*
X0077720Y0412491D01*
X0077843Y0412391D01*
X0077964Y0412289D01*
X0078082Y0412184D01*
X0078197Y0412075D01*
X0078310Y0411964D01*
X0078420Y0411850D01*
X0078527Y0411733D01*
X0078631Y0411614D01*
X0078732Y0411492D01*
X0078829Y0411367D01*
X0078924Y0411240D01*
X0079015Y0411111D01*
X0079104Y0410980D01*
X0079188Y0410846D01*
X0079270Y0410710D01*
X0079348Y0410573D01*
X0079422Y0410433D01*
X0079493Y0410291D01*
X0079561Y0410148D01*
X0079625Y0410003D01*
X0079685Y0409857D01*
X0079741Y0409709D01*
X0079794Y0409560D01*
X0079843Y0409409D01*
X0079888Y0409257D01*
X0079929Y0409104D01*
X0079967Y0408951D01*
X0080000Y0408796D01*
X0080030Y0408640D01*
X0080056Y0408484D01*
X0080077Y0408327D01*
X0080095Y0408170D01*
X0080109Y0408012D01*
X0080119Y0407854D01*
X0080125Y0407696D01*
X0080127Y0407538D01*
X0080125Y0407380D01*
X0080119Y0407222D01*
X0080109Y0407064D01*
X0080095Y0406906D01*
X0080077Y0406749D01*
X0080056Y0406592D01*
X0080030Y0406436D01*
X0080000Y0406280D01*
X0079967Y0406125D01*
X0079929Y0405972D01*
X0079888Y0405819D01*
X0079843Y0405667D01*
X0079794Y0405516D01*
X0079741Y0405367D01*
X0079685Y0405219D01*
X0079625Y0405073D01*
X0079561Y0404928D01*
X0079493Y0404785D01*
X0079422Y0404643D01*
X0079348Y0404503D01*
X0079270Y0404366D01*
X0079188Y0404230D01*
X0079104Y0404096D01*
X0079015Y0403965D01*
X0078924Y0403836D01*
X0078829Y0403709D01*
X0078732Y0403584D01*
X0078631Y0403462D01*
X0078527Y0403343D01*
X0078420Y0403226D01*
X0078310Y0403112D01*
X0078197Y0403001D01*
X0078082Y0402892D01*
X0077964Y0402787D01*
X0077843Y0402685D01*
X0077720Y0402585D01*
X0077594Y0402489D01*
X0077466Y0402396D01*
X0077336Y0402306D01*
X0077203Y0402220D01*
X0077068Y0402136D01*
X0076932Y0402057D01*
X0076793Y0401980D01*
X0076652Y0401908D01*
X0076510Y0401838D01*
X0076366Y0401773D01*
X0076220Y0401711D01*
X0076073Y0401653D01*
X0075924Y0401598D01*
X0075774Y0401547D01*
X0075623Y0401500D01*
X0075471Y0401457D01*
X0075318Y0401418D01*
X0075163Y0401382D01*
X0075008Y0401351D01*
X0074852Y0401323D01*
X0074696Y0401299D01*
X0074539Y0401279D01*
X0074381Y0401263D01*
X0074224Y0401251D01*
X0074065Y0401243D01*
X0073907Y0401239D01*
X0073749Y0401239D01*
X0073591Y0401243D01*
X0073432Y0401251D01*
X0073275Y0401263D01*
X0073117Y0401279D01*
X0072960Y0401299D01*
X0072804Y0401323D01*
X0072648Y0401351D01*
X0072493Y0401382D01*
X0072338Y0401418D01*
X0072185Y0401457D01*
X0072033Y0401500D01*
X0071882Y0401547D01*
X0071732Y0401598D01*
X0071583Y0401653D01*
X0071436Y0401711D01*
X0071290Y0401773D01*
X0071146Y0401838D01*
X0071004Y0401908D01*
X0070863Y0401980D01*
X0070724Y0402057D01*
X0070588Y0402136D01*
X0070453Y0402220D01*
X0070320Y0402306D01*
X0070190Y0402396D01*
X0070062Y0402489D01*
X0069936Y0402585D01*
X0069813Y0402685D01*
X0069692Y0402787D01*
X0069574Y0402892D01*
X0069459Y0403001D01*
X0069346Y0403112D01*
X0069236Y0403226D01*
X0069129Y0403343D01*
X0069025Y0403462D01*
X0068924Y0403584D01*
X0068827Y0403709D01*
X0068732Y0403836D01*
X0068641Y0403965D01*
X0068552Y0404096D01*
X0068468Y0404230D01*
X0068386Y0404366D01*
X0068308Y0404503D01*
X0068234Y0404643D01*
X0068163Y0404785D01*
X0068095Y0404928D01*
X0068031Y0405073D01*
X0067971Y0405219D01*
X0067915Y0405367D01*
X0067862Y0405516D01*
X0067813Y0405667D01*
X0067768Y0405819D01*
X0067727Y0405972D01*
X0067689Y0406125D01*
X0067656Y0406280D01*
X0067626Y0406436D01*
X0067600Y0406592D01*
X0067579Y0406749D01*
X0067561Y0406906D01*
X0067547Y0407064D01*
X0067537Y0407222D01*
X0067531Y0407380D01*
X0067529Y0407538D01*
D11*
X0256957Y0358050D03*
X0276643Y0358050D03*
X0238050Y0131770D03*
X0228050Y0131770D03*
X0218050Y0131770D03*
X0208050Y0131770D03*
X0203050Y0121770D03*
X0213050Y0121770D03*
X0223050Y0121770D03*
X0233050Y0121770D03*
X0183050Y0131770D03*
X0173050Y0131770D03*
X0163050Y0131770D03*
X0153050Y0131770D03*
X0148050Y0121770D03*
X0158050Y0121770D03*
X0168050Y0121770D03*
X0178050Y0121770D03*
D12*
X0193050Y0137085D03*
X0132282Y0078778D03*
X0253818Y0078778D03*
D13*
X0184113Y0266800D03*
X0184113Y0306800D03*
X0184113Y0346800D03*
X0104113Y0346800D03*
X0104113Y0316800D03*
X0104113Y0296800D03*
X0278286Y0308050D03*
X0307814Y0308050D03*
D14*
X0317765Y0409507D03*
X0317765Y0429192D03*
X0337765Y0429192D03*
X0337765Y0409507D03*
X0262961Y0409507D03*
X0262961Y0429192D03*
X0242961Y0429192D03*
X0242961Y0409507D03*
D15*
X0258050Y0263050D03*
X0258050Y0253050D03*
X0268050Y0253050D03*
X0268050Y0263050D03*
X0278050Y0263050D03*
X0278050Y0253050D03*
X0288050Y0253050D03*
X0288050Y0263050D03*
X0298050Y0263050D03*
X0298050Y0253050D03*
D16*
X0136032Y0404074D03*
X0132883Y0404074D03*
X0129733Y0404074D03*
X0126583Y0404074D03*
X0123434Y0404074D03*
X0120284Y0404074D03*
X0117135Y0404074D03*
X0113985Y0404074D03*
X0115560Y0406830D03*
X0118709Y0406830D03*
X0121859Y0406830D03*
X0128158Y0406830D03*
X0131308Y0406830D03*
X0134457Y0406830D03*
X0077331Y0211574D03*
X0077331Y0208424D03*
X0077331Y0205274D03*
X0077331Y0202125D03*
X0077331Y0198975D03*
X0077331Y0195826D03*
X0077331Y0192676D03*
X0077331Y0189526D03*
X0074576Y0191101D03*
X0074576Y0194251D03*
X0074576Y0197400D03*
X0074576Y0203700D03*
X0074576Y0206849D03*
X0074576Y0209999D03*
D17*
X0072804Y0217361D03*
X0054182Y0217361D03*
X0054182Y0183739D03*
X0072804Y0183739D03*
X0108198Y0408601D03*
X0108198Y0427223D03*
X0141820Y0427223D03*
X0141820Y0408601D03*
D18*
X0406800Y0269143D03*
X0406800Y0249457D03*
X0406800Y0176643D03*
X0406800Y0156957D03*
D19*
X0346574Y0356682D03*
X0336574Y0366682D03*
X0326574Y0356682D03*
D20*
X0331800Y0080550D03*
D21*
X0211898Y0382026D03*
X0211898Y0404389D03*
X0160166Y0404389D03*
X0160166Y0382026D03*
D22*
X0172253Y0383404D03*
X0182095Y0383404D03*
X0189969Y0383404D03*
X0199812Y0383404D03*
X0199812Y0393719D03*
X0189969Y0393719D03*
X0182095Y0393719D03*
X0172253Y0393719D03*
D23*
X0372238Y0298050D03*
X0380112Y0298050D03*
D24*
X0384925Y0300550D03*
X0378050Y0317425D03*
X0379300Y0321800D03*
X0408675Y0312425D03*
X0350550Y0277425D03*
X0346800Y0273675D03*
X0344300Y0273675D03*
X0344300Y0277425D03*
X0339925Y0289300D03*
X0327425Y0304925D03*
X0326800Y0315550D03*
X0331800Y0326175D03*
X0301800Y0277425D03*
X0314300Y0245550D03*
X0310550Y0244300D03*
X0319300Y0244300D03*
X0325550Y0230550D03*
X0336800Y0219300D03*
X0337425Y0216175D03*
X0338301Y0209925D03*
X0337676Y0204925D03*
X0347425Y0209925D03*
X0352051Y0211175D03*
X0355176Y0211175D03*
X0358301Y0211175D03*
X0358301Y0214300D03*
X0358301Y0217425D03*
X0355176Y0217425D03*
X0355176Y0214300D03*
X0352051Y0214300D03*
X0352051Y0217425D03*
X0356175Y0204300D03*
X0352425Y0198050D03*
X0347425Y0188050D03*
X0366175Y0200550D03*
X0371800Y0213050D03*
X0371175Y0218675D03*
X0370550Y0221800D03*
X0370550Y0236800D03*
X0349925Y0248675D03*
X0343675Y0248675D03*
X0345801Y0240550D03*
X0342051Y0232425D03*
X0345550Y0260550D03*
X0346800Y0262425D03*
X0344300Y0262425D03*
X0389925Y0214925D03*
X0389925Y0211800D03*
X0389925Y0208675D03*
X0353050Y0167425D03*
X0353050Y0156800D03*
X0340550Y0166800D03*
X0338050Y0169300D03*
X0330550Y0167425D03*
X0330550Y0174925D03*
X0321175Y0174925D03*
X0321175Y0167425D03*
X0318675Y0167425D03*
X0316175Y0167425D03*
X0308675Y0176175D03*
X0294925Y0179300D03*
X0294300Y0176175D03*
X0292425Y0173675D03*
X0291800Y0160550D03*
X0289300Y0160550D03*
X0294300Y0160550D03*
X0294925Y0149300D03*
X0294925Y0146175D03*
X0294300Y0138050D03*
X0291800Y0138050D03*
X0289300Y0138050D03*
X0308675Y0146175D03*
X0316175Y0137425D03*
X0318675Y0137425D03*
X0321175Y0137425D03*
X0321175Y0131175D03*
X0318675Y0131175D03*
X0316175Y0131175D03*
X0321800Y0121800D03*
X0332425Y0123675D03*
X0330550Y0136800D03*
X0338050Y0139300D03*
X0340550Y0136800D03*
X0330550Y0145550D03*
X0332425Y0153675D03*
X0321800Y0152425D03*
X0321175Y0144925D03*
X0321175Y0161175D03*
X0318675Y0161175D03*
X0316175Y0161175D03*
X0353050Y0137425D03*
X0353050Y0126175D03*
X0235550Y0167612D03*
X0233050Y0167612D03*
X0230550Y0167612D03*
X0230550Y0171362D03*
X0233050Y0171362D03*
X0235550Y0171362D03*
X0235550Y0182612D03*
X0233050Y0182612D03*
X0230550Y0182612D03*
X0230550Y0186362D03*
X0233050Y0186362D03*
X0235550Y0186362D03*
X0235550Y0197612D03*
X0233050Y0197612D03*
X0230550Y0197612D03*
X0230550Y0201362D03*
X0233050Y0201362D03*
X0235550Y0201362D03*
X0235550Y0212612D03*
X0233050Y0212612D03*
X0230550Y0212612D03*
X0230550Y0216362D03*
X0233050Y0216362D03*
X0235550Y0216362D03*
X0217425Y0221987D03*
X0214925Y0221987D03*
X0212425Y0221987D03*
X0212425Y0206987D03*
X0214925Y0206987D03*
X0217425Y0206987D03*
X0250550Y0249300D03*
X0222425Y0303050D03*
X0219300Y0303050D03*
X0216175Y0303050D03*
X0201800Y0311175D03*
X0201800Y0313675D03*
X0201800Y0316175D03*
X0217425Y0332425D03*
X0217425Y0335550D03*
X0220550Y0335550D03*
X0220550Y0332425D03*
X0223675Y0332425D03*
X0223675Y0335550D03*
X0166175Y0335550D03*
X0166175Y0332425D03*
X0163050Y0332425D03*
X0159925Y0332425D03*
X0159925Y0335550D03*
X0163050Y0335550D03*
X0131175Y0373050D03*
X0113675Y0373050D03*
X0121175Y0392425D03*
X0123675Y0392425D03*
X0126175Y0392425D03*
X0128675Y0392425D03*
X0109925Y0396175D03*
X0086800Y0366800D03*
X0074925Y0371800D03*
X0055550Y0371800D03*
X0071800Y0230550D03*
X0067425Y0221800D03*
X0091175Y0230550D03*
X0088050Y0188050D03*
X0081800Y0149300D03*
X0081800Y0139300D03*
X0081800Y0129300D03*
X0081800Y0119300D03*
X0158675Y0167612D03*
X0158675Y0171362D03*
X0158675Y0182612D03*
X0158675Y0186362D03*
X0158675Y0197612D03*
X0158675Y0201362D03*
X0158675Y0212612D03*
X0158675Y0216362D03*
X0281800Y0391800D03*
X0356800Y0392425D03*
D25*
X0355550Y0283675D02*
X0370550Y0268675D01*
X0370550Y0268050D01*
X0338050Y0169300D02*
X0336800Y0168050D01*
X0336800Y0156175D01*
X0334300Y0153675D01*
X0332425Y0153675D01*
X0338050Y0139300D02*
X0336800Y0138050D01*
X0336800Y0126800D01*
X0333675Y0123675D01*
X0332425Y0123675D01*
D26*
X0274925Y0146175D02*
X0274925Y0200425D01*
X0258987Y0216362D01*
X0230550Y0216362D01*
X0230550Y0212612D02*
X0257425Y0212612D01*
X0271175Y0198862D01*
X0271175Y0147799D01*
X0238675Y0115299D01*
X0225550Y0115299D01*
X0223050Y0117799D01*
X0223050Y0121770D01*
X0219300Y0117799D02*
X0218675Y0118424D01*
X0219300Y0117799D02*
X0219300Y0116237D01*
X0223987Y0111549D01*
X0240299Y0111549D01*
X0274925Y0146175D01*
X0243050Y0160112D02*
X0243050Y0181675D01*
X0238362Y0186362D01*
X0235550Y0186362D01*
X0233050Y0186362D01*
X0230550Y0186362D01*
X0230550Y0182612D02*
X0233050Y0182612D01*
X0235550Y0182612D01*
X0236800Y0182612D01*
X0239300Y0180112D01*
X0239300Y0161675D01*
X0234300Y0156675D01*
X0234300Y0136549D01*
X0233050Y0135299D01*
X0238050Y0131770D02*
X0238050Y0155112D01*
X0243050Y0160112D01*
X0183050Y0179175D02*
X0183050Y0131770D01*
X0179300Y0135924D02*
X0178050Y0134674D01*
X0179300Y0135924D02*
X0179300Y0177612D01*
X0174300Y0182612D01*
X0158675Y0182612D01*
X0158675Y0186362D02*
X0175862Y0186362D01*
X0183050Y0179175D01*
X0160238Y0158424D02*
X0166800Y0151862D01*
X0166800Y0135924D01*
X0167425Y0135299D01*
X0163050Y0131770D02*
X0163050Y0150299D01*
X0158675Y0154674D01*
X0145238Y0154674D01*
X0141175Y0158737D01*
X0141175Y0204800D01*
X0152738Y0216362D01*
X0158675Y0216362D01*
X0158675Y0212612D02*
X0154300Y0212612D01*
X0144925Y0203237D01*
X0144925Y0160299D01*
X0146800Y0158424D01*
X0160238Y0158424D01*
D27*
X0167425Y0135299D02*
X0167425Y0122395D01*
X0168050Y0121770D01*
X0178050Y0121770D02*
X0178050Y0134674D01*
X0218050Y0131770D02*
X0218675Y0131145D01*
X0218675Y0118424D01*
X0233050Y0121770D02*
X0233050Y0135299D01*
X0249872Y0245890D02*
X0251228Y0245890D01*
X0252482Y0246409D01*
X0253441Y0247368D01*
X0253960Y0248622D01*
X0253960Y0249570D01*
X0255018Y0248512D01*
X0256985Y0247697D01*
X0259115Y0247697D01*
X0261082Y0248512D01*
X0262588Y0250018D01*
X0263050Y0251134D01*
X0263512Y0250018D01*
X0265018Y0248512D01*
X0266985Y0247697D01*
X0269115Y0247697D01*
X0271082Y0248512D01*
X0272588Y0250018D01*
X0273050Y0251134D01*
X0273512Y0250018D01*
X0275018Y0248512D01*
X0276985Y0247697D01*
X0279115Y0247697D01*
X0281082Y0248512D01*
X0282588Y0250018D01*
X0283050Y0251134D01*
X0283512Y0250018D01*
X0285018Y0248512D01*
X0286985Y0247697D01*
X0289115Y0247697D01*
X0291082Y0248512D01*
X0292588Y0250018D01*
X0293403Y0251985D01*
X0293403Y0252010D01*
X0293414Y0251937D01*
X0293645Y0251226D01*
X0293985Y0250559D01*
X0294425Y0249954D01*
X0294954Y0249425D01*
X0295559Y0248985D01*
X0296226Y0248645D01*
X0296937Y0248414D01*
X0297676Y0248297D01*
X0297866Y0248297D01*
X0297866Y0252866D01*
X0298234Y0252866D01*
X0298234Y0248297D01*
X0298424Y0248297D01*
X0299163Y0248414D01*
X0299874Y0248645D01*
X0300541Y0248985D01*
X0301146Y0249425D01*
X0301675Y0249954D01*
X0302115Y0250559D01*
X0302455Y0251226D01*
X0302686Y0251937D01*
X0302803Y0252676D01*
X0302803Y0252866D01*
X0298234Y0252866D01*
X0298234Y0253234D01*
X0297866Y0253234D01*
X0297866Y0257803D01*
X0297676Y0257803D01*
X0296937Y0257686D01*
X0296226Y0257455D01*
X0295559Y0257115D01*
X0294954Y0256675D01*
X0294425Y0256146D01*
X0293985Y0255541D01*
X0293645Y0254874D01*
X0293414Y0254163D01*
X0293403Y0254090D01*
X0293403Y0254115D01*
X0292588Y0256082D01*
X0292450Y0256220D01*
X0292450Y0259880D01*
X0292588Y0260018D01*
X0293403Y0261985D01*
X0293403Y0262010D01*
X0293414Y0261937D01*
X0293645Y0261226D01*
X0293985Y0260559D01*
X0294425Y0259954D01*
X0294954Y0259425D01*
X0295559Y0258985D01*
X0296226Y0258645D01*
X0296937Y0258414D01*
X0297676Y0258297D01*
X0297866Y0258297D01*
X0297866Y0262866D01*
X0298234Y0262866D01*
X0298234Y0258297D01*
X0298424Y0258297D01*
X0299163Y0258414D01*
X0299874Y0258645D01*
X0300541Y0258985D01*
X0301146Y0259425D01*
X0301675Y0259954D01*
X0302115Y0260559D01*
X0302455Y0261226D01*
X0302686Y0261937D01*
X0302803Y0262676D01*
X0302803Y0262866D01*
X0298234Y0262866D01*
X0298234Y0263234D01*
X0302803Y0263234D01*
X0302803Y0263424D01*
X0302686Y0264163D01*
X0302455Y0264874D01*
X0302115Y0265541D01*
X0301675Y0266146D01*
X0301146Y0266675D01*
X0300541Y0267115D01*
X0299874Y0267455D01*
X0299163Y0267686D01*
X0298424Y0267803D01*
X0298234Y0267803D01*
X0298234Y0263234D01*
X0297866Y0263234D01*
X0297866Y0267803D01*
X0297676Y0267803D01*
X0296937Y0267686D01*
X0296226Y0267455D01*
X0295559Y0267115D01*
X0294954Y0266675D01*
X0294425Y0266146D01*
X0293985Y0265541D01*
X0293645Y0264874D01*
X0293414Y0264163D01*
X0293403Y0264090D01*
X0293403Y0264115D01*
X0292588Y0266082D01*
X0292450Y0266220D01*
X0292450Y0277675D01*
X0291780Y0279292D01*
X0279905Y0291167D01*
X0278667Y0292405D01*
X0277050Y0293075D01*
X0238623Y0293075D01*
X0226155Y0305542D01*
X0224917Y0306780D01*
X0223300Y0307450D01*
X0215300Y0307450D01*
X0213683Y0306780D01*
X0212445Y0305542D01*
X0212433Y0305514D01*
X0206200Y0311748D01*
X0206200Y0317050D01*
X0205530Y0318667D01*
X0204292Y0319905D01*
X0202675Y0320575D01*
X0200925Y0320575D01*
X0199308Y0319905D01*
X0198070Y0318667D01*
X0197400Y0317050D01*
X0197400Y0309050D01*
X0198070Y0307433D01*
X0199308Y0306195D01*
X0226808Y0278695D01*
X0228425Y0278025D01*
X0266852Y0278025D01*
X0273650Y0271227D01*
X0273650Y0266220D01*
X0273512Y0266082D01*
X0273050Y0264966D01*
X0272588Y0266082D01*
X0271082Y0267588D01*
X0269115Y0268403D01*
X0266985Y0268403D01*
X0265018Y0267588D01*
X0263512Y0266082D01*
X0263050Y0264966D01*
X0262588Y0266082D01*
X0261082Y0267588D01*
X0259115Y0268403D01*
X0256985Y0268403D01*
X0255018Y0267588D01*
X0253512Y0266082D01*
X0252697Y0264115D01*
X0252697Y0261985D01*
X0253512Y0260018D01*
X0255018Y0258512D01*
X0256134Y0258050D01*
X0255018Y0257588D01*
X0253512Y0256082D01*
X0252697Y0254115D01*
X0252697Y0251985D01*
X0252704Y0251969D01*
X0252482Y0252191D01*
X0251228Y0252710D01*
X0249872Y0252710D01*
X0248618Y0252191D01*
X0247659Y0251232D01*
X0247140Y0249978D01*
X0247140Y0248622D01*
X0247659Y0247368D01*
X0248618Y0246409D01*
X0249872Y0245890D01*
X0248148Y0246879D02*
X0046700Y0246879D01*
X0046700Y0248477D02*
X0247200Y0248477D01*
X0247180Y0250076D02*
X0046700Y0250076D01*
X0046700Y0251674D02*
X0248102Y0251674D01*
X0252697Y0253273D02*
X0046700Y0253273D01*
X0046700Y0254871D02*
X0253011Y0254871D01*
X0253900Y0256470D02*
X0046700Y0256470D01*
X0046700Y0258068D02*
X0256089Y0258068D01*
X0253863Y0259667D02*
X0046700Y0259667D01*
X0046700Y0261265D02*
X0182716Y0261265D01*
X0182990Y0261152D02*
X0185236Y0261152D01*
X0187312Y0262012D01*
X0188901Y0263601D01*
X0189761Y0265677D01*
X0189761Y0267923D01*
X0188901Y0269999D01*
X0187312Y0271588D01*
X0185236Y0272448D01*
X0182990Y0272448D01*
X0180914Y0271588D01*
X0179325Y0269999D01*
X0178465Y0267923D01*
X0178465Y0265677D01*
X0179325Y0263601D01*
X0180914Y0262012D01*
X0182990Y0261152D01*
X0185510Y0261265D02*
X0252995Y0261265D01*
X0252697Y0262864D02*
X0188164Y0262864D01*
X0189258Y0264462D02*
X0252841Y0264462D01*
X0253503Y0266061D02*
X0189761Y0266061D01*
X0189761Y0267659D02*
X0255191Y0267659D01*
X0260909Y0267659D02*
X0265191Y0267659D01*
X0263503Y0266061D02*
X0262597Y0266061D01*
X0270909Y0267659D02*
X0273650Y0267659D01*
X0273650Y0269258D02*
X0189208Y0269258D01*
X0188044Y0270856D02*
X0273650Y0270856D01*
X0272422Y0272455D02*
X0046700Y0272455D01*
X0046700Y0274053D02*
X0270824Y0274053D01*
X0269225Y0275652D02*
X0046700Y0275652D01*
X0046700Y0277251D02*
X0267627Y0277251D01*
X0272597Y0266061D02*
X0273503Y0266061D01*
X0273488Y0250076D02*
X0272612Y0250076D01*
X0270998Y0248477D02*
X0275102Y0248477D01*
X0280998Y0248477D02*
X0285102Y0248477D01*
X0283488Y0250076D02*
X0282612Y0250076D01*
X0290998Y0248477D02*
X0296743Y0248477D01*
X0297866Y0248477D02*
X0298234Y0248477D01*
X0299357Y0248477D02*
X0312456Y0248477D01*
X0312368Y0248441D02*
X0311518Y0247590D01*
X0311228Y0247710D01*
X0309872Y0247710D01*
X0308618Y0247191D01*
X0307659Y0246232D01*
X0307140Y0244978D01*
X0307140Y0244300D01*
X0113050Y0244300D01*
X0113050Y0174300D01*
X0046700Y0174300D01*
X0046700Y0425255D01*
X0046816Y0426727D01*
X0047726Y0429527D01*
X0049456Y0431909D01*
X0051839Y0433640D01*
X0054639Y0434550D01*
X0056111Y0434666D01*
X0231785Y0434666D01*
X0232667Y0435031D01*
X0233342Y0435706D01*
X0233708Y0436588D01*
X0233708Y0442540D01*
X0272215Y0442540D01*
X0272215Y0436588D01*
X0272580Y0435706D01*
X0273255Y0435031D01*
X0274138Y0434666D01*
X0294850Y0434666D01*
X0294850Y0383038D01*
X0295337Y0381862D01*
X0296237Y0380962D01*
X0297413Y0380475D01*
X0386100Y0380475D01*
X0386100Y0303754D01*
X0385603Y0303960D01*
X0384247Y0303960D01*
X0382993Y0303441D01*
X0382034Y0302482D01*
X0382008Y0302419D01*
X0381059Y0302812D01*
X0379165Y0302812D01*
X0377414Y0302087D01*
X0376175Y0300848D01*
X0374936Y0302087D01*
X0373185Y0302812D01*
X0371291Y0302812D01*
X0369540Y0302087D01*
X0368201Y0300748D01*
X0367476Y0298997D01*
X0367476Y0297103D01*
X0368201Y0295352D01*
X0369540Y0294013D01*
X0371291Y0293288D01*
X0373185Y0293288D01*
X0374936Y0294013D01*
X0376175Y0295252D01*
X0377414Y0294013D01*
X0379165Y0293288D01*
X0381059Y0293288D01*
X0382810Y0294013D01*
X0384149Y0295352D01*
X0384874Y0297103D01*
X0384874Y0297140D01*
X0385603Y0297140D01*
X0386100Y0297345D01*
X0386100Y0244300D01*
X0373560Y0244300D01*
X0373560Y0268649D01*
X0373550Y0268673D01*
X0373550Y0269272D01*
X0373093Y0270374D01*
X0372249Y0271218D01*
X0358112Y0285355D01*
X0358102Y0285380D01*
X0357255Y0286227D01*
X0356149Y0286685D01*
X0344297Y0286685D01*
X0343050Y0287932D01*
X0343335Y0288622D01*
X0343335Y0289978D01*
X0342816Y0291232D01*
X0341857Y0292191D01*
X0340603Y0292710D01*
X0339247Y0292710D01*
X0337993Y0292191D01*
X0337034Y0291232D01*
X0336515Y0289978D01*
X0336515Y0288622D01*
X0336915Y0287656D01*
X0336915Y0286201D01*
X0337373Y0285095D01*
X0338220Y0284248D01*
X0341345Y0281123D01*
X0342451Y0280665D01*
X0343210Y0280665D01*
X0342656Y0280435D01*
X0303444Y0280435D01*
X0302478Y0280835D01*
X0301122Y0280835D01*
X0299868Y0280316D01*
X0298909Y0279357D01*
X0298390Y0278103D01*
X0298390Y0276747D01*
X0298909Y0275493D01*
X0299868Y0274534D01*
X0301122Y0274015D01*
X0302478Y0274015D01*
X0303444Y0274415D01*
X0340915Y0274415D01*
X0340890Y0274353D01*
X0340890Y0272997D01*
X0341409Y0271743D01*
X0342368Y0270784D01*
X0343622Y0270265D01*
X0344978Y0270265D01*
X0345550Y0270502D01*
X0346122Y0270265D01*
X0347478Y0270265D01*
X0348732Y0270784D01*
X0349691Y0271743D01*
X0350210Y0272997D01*
X0350210Y0274015D01*
X0351228Y0274015D01*
X0352482Y0274534D01*
X0353441Y0275493D01*
X0353960Y0276747D01*
X0353960Y0278103D01*
X0353441Y0279357D01*
X0352482Y0280316D01*
X0351640Y0280665D01*
X0354318Y0280665D01*
X0367540Y0267443D01*
X0367540Y0244300D01*
X0322710Y0244300D01*
X0322710Y0244978D01*
X0322191Y0246232D01*
X0321232Y0247191D01*
X0319978Y0247710D01*
X0318622Y0247710D01*
X0317368Y0247191D01*
X0317328Y0247151D01*
X0317191Y0247482D01*
X0316232Y0248441D01*
X0314978Y0248960D01*
X0313622Y0248960D01*
X0312368Y0248441D01*
X0316144Y0248477D02*
X0340265Y0248477D01*
X0340265Y0247997D02*
X0340265Y0249353D01*
X0340784Y0250607D01*
X0341743Y0251566D01*
X0342997Y0252085D01*
X0344353Y0252085D01*
X0345607Y0251566D01*
X0346566Y0250607D01*
X0347085Y0249353D01*
X0347085Y0247997D01*
X0346566Y0246743D01*
X0345607Y0245784D01*
X0344353Y0245265D01*
X0342997Y0245265D01*
X0341743Y0245784D01*
X0340784Y0246743D01*
X0340265Y0247997D01*
X0340728Y0246879D02*
X0321544Y0246879D01*
X0322585Y0245280D02*
X0342959Y0245280D01*
X0344391Y0245280D02*
X0367540Y0245280D01*
X0367540Y0246879D02*
X0346622Y0246879D01*
X0347085Y0248477D02*
X0367540Y0248477D01*
X0367540Y0250076D02*
X0346786Y0250076D01*
X0345345Y0251674D02*
X0367540Y0251674D01*
X0367540Y0253273D02*
X0302803Y0253273D01*
X0302803Y0253234D02*
X0302803Y0253424D01*
X0302686Y0254163D01*
X0302455Y0254874D01*
X0302115Y0255541D01*
X0301675Y0256146D01*
X0301146Y0256675D01*
X0300541Y0257115D01*
X0299874Y0257455D01*
X0299163Y0257686D01*
X0298424Y0257803D01*
X0298234Y0257803D01*
X0298234Y0253234D01*
X0302803Y0253234D01*
X0302600Y0251674D02*
X0342005Y0251674D01*
X0340564Y0250076D02*
X0301764Y0250076D01*
X0298234Y0250076D02*
X0297866Y0250076D01*
X0297866Y0251674D02*
X0298234Y0251674D01*
X0298234Y0253273D02*
X0297866Y0253273D01*
X0297866Y0254871D02*
X0298234Y0254871D01*
X0298234Y0256470D02*
X0297866Y0256470D01*
X0294748Y0256470D02*
X0292450Y0256470D01*
X0292450Y0258068D02*
X0343209Y0258068D01*
X0343618Y0257659D02*
X0342659Y0258618D01*
X0342217Y0259685D01*
X0341409Y0260493D01*
X0340890Y0261747D01*
X0340890Y0263103D01*
X0341409Y0264357D01*
X0342368Y0265316D01*
X0343622Y0265835D01*
X0344978Y0265835D01*
X0345550Y0265598D01*
X0346122Y0265835D01*
X0347478Y0265835D01*
X0348732Y0265316D01*
X0349691Y0264357D01*
X0350210Y0263103D01*
X0350210Y0261747D01*
X0349691Y0260493D01*
X0348883Y0259685D01*
X0348441Y0258618D01*
X0347482Y0257659D01*
X0346228Y0257140D01*
X0344872Y0257140D01*
X0343618Y0257659D01*
X0342225Y0259667D02*
X0301388Y0259667D01*
X0302467Y0261265D02*
X0341089Y0261265D01*
X0340890Y0262864D02*
X0302803Y0262864D01*
X0302588Y0264462D02*
X0341515Y0264462D01*
X0342296Y0270856D02*
X0292450Y0270856D01*
X0292450Y0269258D02*
X0365724Y0269258D01*
X0364126Y0270856D02*
X0348804Y0270856D01*
X0349986Y0272455D02*
X0362527Y0272455D01*
X0360929Y0274053D02*
X0351322Y0274053D01*
X0353507Y0275652D02*
X0359330Y0275652D01*
X0357732Y0277251D02*
X0353960Y0277251D01*
X0353651Y0278849D02*
X0356133Y0278849D01*
X0354535Y0280448D02*
X0352164Y0280448D01*
X0342686Y0280448D02*
X0303414Y0280448D01*
X0300186Y0280448D02*
X0290625Y0280448D01*
X0291964Y0278849D02*
X0298699Y0278849D01*
X0298390Y0277251D02*
X0292450Y0277251D01*
X0292450Y0275652D02*
X0298843Y0275652D01*
X0301028Y0274053D02*
X0292450Y0274053D01*
X0292450Y0272455D02*
X0341114Y0272455D01*
X0340890Y0274053D02*
X0302572Y0274053D01*
X0299244Y0267659D02*
X0367323Y0267659D01*
X0367540Y0266061D02*
X0301737Y0266061D01*
X0298234Y0266061D02*
X0297866Y0266061D01*
X0297866Y0267659D02*
X0298234Y0267659D01*
X0296856Y0267659D02*
X0292450Y0267659D01*
X0292597Y0266061D02*
X0294363Y0266061D01*
X0293512Y0264462D02*
X0293259Y0264462D01*
X0293105Y0261265D02*
X0293632Y0261265D01*
X0294712Y0259667D02*
X0292450Y0259667D01*
X0293089Y0254871D02*
X0293644Y0254871D01*
X0293500Y0251674D02*
X0293274Y0251674D01*
X0292612Y0250076D02*
X0294336Y0250076D01*
X0302456Y0254871D02*
X0367540Y0254871D01*
X0367540Y0256470D02*
X0301352Y0256470D01*
X0298234Y0259667D02*
X0297866Y0259667D01*
X0297866Y0261265D02*
X0298234Y0261265D01*
X0298234Y0262864D02*
X0297866Y0262864D01*
X0297866Y0264462D02*
X0298234Y0264462D01*
X0289026Y0282046D02*
X0340422Y0282046D01*
X0338823Y0283645D02*
X0287428Y0283645D01*
X0285829Y0285243D02*
X0337312Y0285243D01*
X0336915Y0286842D02*
X0284231Y0286842D01*
X0282632Y0288440D02*
X0336590Y0288440D01*
X0336540Y0290039D02*
X0281034Y0290039D01*
X0279435Y0291637D02*
X0337439Y0291637D01*
X0342411Y0291637D02*
X0386100Y0291637D01*
X0386100Y0290039D02*
X0343310Y0290039D01*
X0343260Y0288440D02*
X0386100Y0288440D01*
X0386100Y0286842D02*
X0344141Y0286842D01*
X0358225Y0285243D02*
X0386100Y0285243D01*
X0386100Y0283645D02*
X0359823Y0283645D01*
X0361422Y0282046D02*
X0386100Y0282046D01*
X0386100Y0280448D02*
X0363020Y0280448D01*
X0364619Y0278849D02*
X0386100Y0278849D01*
X0386100Y0277251D02*
X0366217Y0277251D01*
X0367816Y0275652D02*
X0386100Y0275652D01*
X0386100Y0274053D02*
X0369414Y0274053D01*
X0371013Y0272455D02*
X0386100Y0272455D01*
X0386100Y0270856D02*
X0372611Y0270856D01*
X0373550Y0269258D02*
X0386100Y0269258D01*
X0386100Y0267659D02*
X0373560Y0267659D01*
X0373560Y0266061D02*
X0386100Y0266061D01*
X0386100Y0264462D02*
X0373560Y0264462D01*
X0373560Y0262864D02*
X0386100Y0262864D01*
X0386100Y0261265D02*
X0373560Y0261265D01*
X0373560Y0259667D02*
X0386100Y0259667D01*
X0386100Y0258068D02*
X0373560Y0258068D01*
X0373560Y0256470D02*
X0386100Y0256470D01*
X0386100Y0254871D02*
X0373560Y0254871D01*
X0373560Y0253273D02*
X0386100Y0253273D01*
X0386100Y0251674D02*
X0373560Y0251674D01*
X0373560Y0250076D02*
X0386100Y0250076D01*
X0386100Y0248477D02*
X0373560Y0248477D01*
X0373560Y0246879D02*
X0386100Y0246879D01*
X0386100Y0245280D02*
X0373560Y0245280D01*
X0367540Y0258068D02*
X0347891Y0258068D01*
X0348875Y0259667D02*
X0367540Y0259667D01*
X0367540Y0261265D02*
X0350011Y0261265D01*
X0350210Y0262864D02*
X0367540Y0262864D01*
X0367540Y0264462D02*
X0349585Y0264462D01*
X0368719Y0294834D02*
X0236863Y0294834D01*
X0235265Y0296433D02*
X0367753Y0296433D01*
X0367476Y0298031D02*
X0233666Y0298031D01*
X0232068Y0299630D02*
X0367738Y0299630D01*
X0368681Y0301228D02*
X0230469Y0301228D01*
X0228871Y0302827D02*
X0276137Y0302827D01*
X0277163Y0302402D02*
X0279410Y0302402D01*
X0281486Y0303262D01*
X0283074Y0304851D01*
X0283934Y0306927D01*
X0283934Y0309173D01*
X0283074Y0311249D01*
X0281486Y0312838D01*
X0279410Y0313698D01*
X0277163Y0313698D01*
X0275087Y0312838D01*
X0273498Y0311249D01*
X0272638Y0309173D01*
X0272638Y0306927D01*
X0273498Y0304851D01*
X0275087Y0303262D01*
X0277163Y0302402D01*
X0280435Y0302827D02*
X0305665Y0302827D01*
X0306690Y0302402D02*
X0308937Y0302402D01*
X0311013Y0303262D01*
X0312602Y0304851D01*
X0313462Y0306927D01*
X0313462Y0309173D01*
X0312602Y0311249D01*
X0311013Y0312838D01*
X0308937Y0313698D01*
X0306690Y0313698D01*
X0304614Y0312838D01*
X0303026Y0311249D01*
X0302166Y0309173D01*
X0302166Y0306927D01*
X0303026Y0304851D01*
X0304614Y0303262D01*
X0306690Y0302402D01*
X0309963Y0302827D02*
X0324700Y0302827D01*
X0324534Y0302993D02*
X0325493Y0302034D01*
X0326747Y0301515D01*
X0328103Y0301515D01*
X0329357Y0302034D01*
X0330316Y0302993D01*
X0330835Y0304247D01*
X0330835Y0305603D01*
X0330316Y0306857D01*
X0329357Y0307816D01*
X0328103Y0308335D01*
X0326747Y0308335D01*
X0325493Y0307816D01*
X0324534Y0306857D01*
X0324015Y0305603D01*
X0324015Y0304247D01*
X0324534Y0302993D01*
X0324015Y0304425D02*
X0312177Y0304425D01*
X0313088Y0306024D02*
X0324189Y0306024D01*
X0325299Y0307622D02*
X0313462Y0307622D01*
X0313442Y0309221D02*
X0386100Y0309221D01*
X0386100Y0310819D02*
X0312780Y0310819D01*
X0311434Y0312418D02*
X0325450Y0312418D01*
X0324868Y0312659D02*
X0326122Y0312140D01*
X0327478Y0312140D01*
X0328732Y0312659D01*
X0329691Y0313618D01*
X0330210Y0314872D01*
X0330210Y0316228D01*
X0329691Y0317482D01*
X0328732Y0318441D01*
X0327478Y0318960D01*
X0326122Y0318960D01*
X0324868Y0318441D01*
X0323909Y0317482D01*
X0323390Y0316228D01*
X0323390Y0314872D01*
X0323909Y0313618D01*
X0324868Y0312659D01*
X0323744Y0314016D02*
X0206200Y0314016D01*
X0206200Y0312418D02*
X0274666Y0312418D01*
X0273320Y0310819D02*
X0207128Y0310819D01*
X0208727Y0309221D02*
X0272658Y0309221D01*
X0272638Y0307622D02*
X0210325Y0307622D01*
X0211924Y0306024D02*
X0212926Y0306024D01*
X0204274Y0301228D02*
X0185420Y0301228D01*
X0185236Y0301152D02*
X0187312Y0302012D01*
X0188901Y0303601D01*
X0189761Y0305677D01*
X0189761Y0307923D01*
X0188901Y0309999D01*
X0187312Y0311588D01*
X0185236Y0312448D01*
X0182990Y0312448D01*
X0180914Y0311588D01*
X0179325Y0309999D01*
X0178465Y0307923D01*
X0178465Y0305677D01*
X0179325Y0303601D01*
X0180914Y0302012D01*
X0182990Y0301152D01*
X0185236Y0301152D01*
X0182805Y0301228D02*
X0107672Y0301228D01*
X0107312Y0301588D02*
X0105236Y0302448D01*
X0102990Y0302448D01*
X0100914Y0301588D01*
X0099325Y0299999D01*
X0098465Y0297923D01*
X0098465Y0295677D01*
X0099325Y0293601D01*
X0100914Y0292012D01*
X0102990Y0291152D01*
X0105236Y0291152D01*
X0107312Y0292012D01*
X0108901Y0293601D01*
X0109761Y0295677D01*
X0109761Y0297923D01*
X0108901Y0299999D01*
X0107312Y0301588D01*
X0109054Y0299630D02*
X0205873Y0299630D01*
X0207471Y0298031D02*
X0109716Y0298031D01*
X0109761Y0296433D02*
X0209070Y0296433D01*
X0210668Y0294834D02*
X0109412Y0294834D01*
X0108536Y0293236D02*
X0212267Y0293236D01*
X0213865Y0291637D02*
X0106408Y0291637D01*
X0101818Y0291637D02*
X0046700Y0291637D01*
X0046700Y0290039D02*
X0180389Y0290039D01*
X0180138Y0289788D02*
X0179503Y0288255D01*
X0179503Y0286595D01*
X0180138Y0285062D01*
X0181312Y0283888D01*
X0182845Y0283253D01*
X0184505Y0283253D01*
X0186038Y0283888D01*
X0187212Y0285062D01*
X0187847Y0286595D01*
X0187847Y0288255D01*
X0187212Y0289788D01*
X0186038Y0290962D01*
X0184505Y0291597D01*
X0182845Y0291597D01*
X0181312Y0290962D01*
X0180138Y0289788D01*
X0179580Y0288440D02*
X0046700Y0288440D01*
X0046700Y0286842D02*
X0179503Y0286842D01*
X0180063Y0285243D02*
X0046700Y0285243D01*
X0046700Y0283645D02*
X0181901Y0283645D01*
X0185449Y0283645D02*
X0221858Y0283645D01*
X0220259Y0285243D02*
X0187287Y0285243D01*
X0187847Y0286842D02*
X0218661Y0286842D01*
X0217062Y0288440D02*
X0187770Y0288440D01*
X0186961Y0290039D02*
X0215464Y0290039D01*
X0223456Y0282046D02*
X0046700Y0282046D01*
X0046700Y0280448D02*
X0225055Y0280448D01*
X0226653Y0278849D02*
X0046700Y0278849D01*
X0046700Y0270856D02*
X0180182Y0270856D01*
X0179018Y0269258D02*
X0046700Y0269258D01*
X0046700Y0267659D02*
X0178465Y0267659D01*
X0178465Y0266061D02*
X0046700Y0266061D01*
X0046700Y0264462D02*
X0178968Y0264462D01*
X0180062Y0262864D02*
X0046700Y0262864D01*
X0046700Y0245280D02*
X0307265Y0245280D01*
X0308306Y0246879D02*
X0252952Y0246879D01*
X0253900Y0248477D02*
X0255102Y0248477D01*
X0260998Y0248477D02*
X0265102Y0248477D01*
X0263488Y0250076D02*
X0262612Y0250076D01*
X0238462Y0293236D02*
X0386100Y0293236D01*
X0386100Y0294834D02*
X0383631Y0294834D01*
X0384597Y0296433D02*
X0386100Y0296433D01*
X0389300Y0296433D02*
X0415916Y0296433D01*
X0415916Y0298031D02*
X0389300Y0298031D01*
X0389300Y0299630D02*
X0415916Y0299630D01*
X0415916Y0301228D02*
X0389300Y0301228D01*
X0389300Y0302827D02*
X0415916Y0302827D01*
X0415916Y0304425D02*
X0389300Y0304425D01*
X0389300Y0306024D02*
X0415916Y0306024D01*
X0415916Y0307622D02*
X0389300Y0307622D01*
X0389300Y0309221D02*
X0407499Y0309221D01*
X0407997Y0309015D02*
X0409353Y0309015D01*
X0410607Y0309534D01*
X0411566Y0310493D01*
X0412085Y0311747D01*
X0412085Y0313103D01*
X0411566Y0314357D01*
X0410607Y0315316D01*
X0409353Y0315835D01*
X0407997Y0315835D01*
X0406743Y0315316D01*
X0405784Y0314357D01*
X0405265Y0313103D01*
X0405265Y0311747D01*
X0405784Y0310493D01*
X0406743Y0309534D01*
X0407997Y0309015D01*
X0409851Y0309221D02*
X0415916Y0309221D01*
X0415916Y0310819D02*
X0411701Y0310819D01*
X0412085Y0312418D02*
X0415916Y0312418D01*
X0415916Y0314016D02*
X0411707Y0314016D01*
X0409886Y0315615D02*
X0415916Y0315615D01*
X0415916Y0317213D02*
X0389300Y0317213D01*
X0389300Y0315615D02*
X0407464Y0315615D01*
X0405643Y0314016D02*
X0389300Y0314016D01*
X0389300Y0312418D02*
X0405265Y0312418D01*
X0405649Y0310819D02*
X0389300Y0310819D01*
X0386100Y0312418D02*
X0328149Y0312418D01*
X0329856Y0314016D02*
X0377368Y0314016D01*
X0377372Y0314015D02*
X0378728Y0314015D01*
X0379982Y0314534D01*
X0380941Y0315493D01*
X0381460Y0316747D01*
X0381460Y0318103D01*
X0381142Y0318872D01*
X0381232Y0318909D01*
X0382191Y0319868D01*
X0382710Y0321122D01*
X0382710Y0322478D01*
X0382191Y0323732D01*
X0381232Y0324691D01*
X0379978Y0325210D01*
X0378622Y0325210D01*
X0377368Y0324691D01*
X0376409Y0323732D01*
X0375890Y0322478D01*
X0375890Y0321122D01*
X0376208Y0320353D01*
X0376118Y0320316D01*
X0375159Y0319357D01*
X0374640Y0318103D01*
X0374640Y0316747D01*
X0375159Y0315493D01*
X0376118Y0314534D01*
X0377372Y0314015D01*
X0378732Y0314016D02*
X0386100Y0314016D01*
X0386100Y0315615D02*
X0380991Y0315615D01*
X0381460Y0317213D02*
X0386100Y0317213D01*
X0386100Y0318812D02*
X0381167Y0318812D01*
X0382416Y0320410D02*
X0386100Y0320410D01*
X0386100Y0322009D02*
X0382710Y0322009D01*
X0382243Y0323607D02*
X0386100Y0323607D01*
X0386100Y0325206D02*
X0379989Y0325206D01*
X0378611Y0325206D02*
X0335090Y0325206D01*
X0335210Y0325497D02*
X0334691Y0324243D01*
X0333732Y0323284D01*
X0332478Y0322765D01*
X0331122Y0322765D01*
X0329868Y0323284D01*
X0328909Y0324243D01*
X0328390Y0325497D01*
X0328390Y0326853D01*
X0328909Y0328107D01*
X0329868Y0329066D01*
X0331122Y0329585D01*
X0332478Y0329585D01*
X0333732Y0329066D01*
X0334691Y0328107D01*
X0335210Y0326853D01*
X0335210Y0325497D01*
X0335210Y0326804D02*
X0386100Y0326804D01*
X0386100Y0328403D02*
X0334395Y0328403D01*
X0334055Y0323607D02*
X0376357Y0323607D01*
X0375890Y0322009D02*
X0106297Y0322009D01*
X0107312Y0321588D02*
X0105236Y0322448D01*
X0102990Y0322448D01*
X0100914Y0321588D01*
X0099325Y0319999D01*
X0098465Y0317923D01*
X0098465Y0315677D01*
X0099325Y0313601D01*
X0100914Y0312012D01*
X0102990Y0311152D01*
X0105236Y0311152D01*
X0107312Y0312012D01*
X0108901Y0313601D01*
X0109761Y0315677D01*
X0109761Y0317923D01*
X0108901Y0319999D01*
X0107312Y0321588D01*
X0108490Y0320410D02*
X0200527Y0320410D01*
X0203073Y0320410D02*
X0376184Y0320410D01*
X0374933Y0318812D02*
X0327837Y0318812D01*
X0325763Y0318812D02*
X0205386Y0318812D01*
X0206132Y0317213D02*
X0323798Y0317213D01*
X0323390Y0315615D02*
X0206200Y0315615D01*
X0198214Y0318812D02*
X0109393Y0318812D01*
X0109761Y0317213D02*
X0197468Y0317213D01*
X0197400Y0315615D02*
X0109735Y0315615D01*
X0109073Y0314016D02*
X0197400Y0314016D01*
X0197400Y0312418D02*
X0185309Y0312418D01*
X0182916Y0312418D02*
X0107718Y0312418D01*
X0100508Y0312418D02*
X0046700Y0312418D01*
X0046700Y0314016D02*
X0099153Y0314016D01*
X0098491Y0315615D02*
X0046700Y0315615D01*
X0046700Y0317213D02*
X0098465Y0317213D01*
X0098833Y0318812D02*
X0046700Y0318812D01*
X0046700Y0320410D02*
X0099736Y0320410D01*
X0101929Y0322009D02*
X0046700Y0322009D01*
X0046700Y0323607D02*
X0329545Y0323607D01*
X0328510Y0325206D02*
X0046700Y0325206D01*
X0046700Y0326804D02*
X0328390Y0326804D01*
X0329205Y0328403D02*
X0046700Y0328403D01*
X0046700Y0330001D02*
X0157526Y0330001D01*
X0157993Y0329534D02*
X0159247Y0329015D01*
X0160603Y0329015D01*
X0161488Y0329381D01*
X0162372Y0329015D01*
X0163728Y0329015D01*
X0164612Y0329381D01*
X0165497Y0329015D01*
X0166853Y0329015D01*
X0168107Y0329534D01*
X0169066Y0330493D01*
X0169585Y0331747D01*
X0169585Y0333103D01*
X0169219Y0333987D01*
X0169585Y0334872D01*
X0169585Y0336228D01*
X0169066Y0337482D01*
X0168107Y0338441D01*
X0166853Y0338960D01*
X0165497Y0338960D01*
X0164612Y0338594D01*
X0163728Y0338960D01*
X0162372Y0338960D01*
X0161487Y0338594D01*
X0160603Y0338960D01*
X0159247Y0338960D01*
X0157993Y0338441D01*
X0157034Y0337482D01*
X0156515Y0336228D01*
X0156515Y0334872D01*
X0156881Y0333988D01*
X0156515Y0333103D01*
X0156515Y0331747D01*
X0157034Y0330493D01*
X0157993Y0329534D01*
X0156576Y0331600D02*
X0046700Y0331600D01*
X0046700Y0333198D02*
X0156554Y0333198D01*
X0156546Y0334797D02*
X0046700Y0334797D01*
X0046700Y0336395D02*
X0156584Y0336395D01*
X0157546Y0337994D02*
X0046700Y0337994D01*
X0046700Y0339592D02*
X0291858Y0339592D01*
X0291388Y0340062D02*
X0292562Y0338888D01*
X0294095Y0338253D01*
X0295755Y0338253D01*
X0297288Y0338888D01*
X0298462Y0340062D01*
X0299097Y0341595D01*
X0299097Y0343255D01*
X0298462Y0344788D01*
X0297288Y0345962D01*
X0295755Y0346597D01*
X0294095Y0346597D01*
X0292562Y0345962D01*
X0291388Y0344788D01*
X0290753Y0343255D01*
X0290753Y0341595D01*
X0291388Y0340062D01*
X0290921Y0341191D02*
X0105331Y0341191D01*
X0105236Y0341152D02*
X0107312Y0342012D01*
X0108901Y0343601D01*
X0109761Y0345677D01*
X0109761Y0347923D01*
X0108901Y0349999D01*
X0107312Y0351588D01*
X0105236Y0352448D01*
X0102990Y0352448D01*
X0100914Y0351588D01*
X0099325Y0349999D01*
X0098465Y0347923D01*
X0098465Y0345677D01*
X0099325Y0343601D01*
X0100914Y0342012D01*
X0102990Y0341152D01*
X0105236Y0341152D01*
X0102895Y0341191D02*
X0046700Y0341191D01*
X0046700Y0342789D02*
X0100136Y0342789D01*
X0098999Y0344388D02*
X0046700Y0344388D01*
X0046700Y0345987D02*
X0098465Y0345987D01*
X0098465Y0347585D02*
X0046700Y0347585D01*
X0046700Y0349184D02*
X0098987Y0349184D01*
X0100108Y0350782D02*
X0046700Y0350782D01*
X0046700Y0352381D02*
X0102827Y0352381D01*
X0105399Y0352381D02*
X0344415Y0352381D01*
X0343855Y0352613D02*
X0345619Y0351882D01*
X0347528Y0351882D01*
X0349293Y0352613D01*
X0350643Y0353963D01*
X0351374Y0355727D01*
X0351374Y0357637D01*
X0350643Y0359401D01*
X0349293Y0360751D01*
X0347528Y0361482D01*
X0345619Y0361482D01*
X0343855Y0360751D01*
X0342504Y0359401D01*
X0341774Y0357637D01*
X0341774Y0355727D01*
X0342504Y0353963D01*
X0343855Y0352613D01*
X0342498Y0353979D02*
X0329801Y0353979D01*
X0329777Y0353946D02*
X0330166Y0354481D01*
X0330466Y0355070D01*
X0330670Y0355698D01*
X0330774Y0356351D01*
X0330774Y0356682D01*
X0330774Y0357012D01*
X0330670Y0357665D01*
X0330466Y0358294D01*
X0330166Y0358883D01*
X0329777Y0359418D01*
X0329310Y0359885D01*
X0328775Y0360274D01*
X0328186Y0360574D01*
X0327557Y0360778D01*
X0326904Y0360882D01*
X0326574Y0360882D01*
X0326574Y0356682D01*
X0330774Y0356682D01*
X0326574Y0356682D01*
X0326574Y0356682D01*
X0326574Y0356682D01*
X0326574Y0352482D01*
X0326904Y0352482D01*
X0327557Y0352585D01*
X0328186Y0352790D01*
X0328775Y0353090D01*
X0329310Y0353478D01*
X0329777Y0353946D01*
X0330631Y0355578D02*
X0341836Y0355578D01*
X0341774Y0357176D02*
X0330748Y0357176D01*
X0330221Y0358775D02*
X0342245Y0358775D01*
X0343477Y0360373D02*
X0328580Y0360373D01*
X0326574Y0360373D02*
X0326574Y0360373D01*
X0326574Y0360882D02*
X0326243Y0360882D01*
X0325590Y0360778D01*
X0324961Y0360574D01*
X0324372Y0360274D01*
X0323838Y0359885D01*
X0323370Y0359418D01*
X0322981Y0358883D01*
X0322681Y0358294D01*
X0322477Y0357665D01*
X0322374Y0357012D01*
X0322374Y0356682D01*
X0326573Y0356682D01*
X0326573Y0356682D01*
X0322374Y0356682D01*
X0322374Y0356351D01*
X0322477Y0355698D01*
X0322681Y0355070D01*
X0322981Y0354481D01*
X0323370Y0353946D01*
X0323838Y0353478D01*
X0324372Y0353090D01*
X0324961Y0352790D01*
X0325590Y0352585D01*
X0326243Y0352482D01*
X0326574Y0352482D01*
X0326574Y0356682D01*
X0326574Y0356682D01*
X0326574Y0360882D01*
X0324567Y0360373D02*
X0281154Y0360373D01*
X0280930Y0360915D02*
X0279507Y0362338D01*
X0277649Y0363107D01*
X0275637Y0363107D01*
X0273778Y0362338D01*
X0272355Y0360915D01*
X0271585Y0359056D01*
X0271585Y0357044D01*
X0272355Y0355185D01*
X0273778Y0353762D01*
X0275637Y0352993D01*
X0277649Y0352993D01*
X0279507Y0353762D01*
X0280930Y0355185D01*
X0281700Y0357044D01*
X0281700Y0359056D01*
X0280930Y0360915D01*
X0279873Y0361972D02*
X0335402Y0361972D01*
X0335619Y0361882D02*
X0337528Y0361882D01*
X0339293Y0362613D01*
X0340643Y0363963D01*
X0341374Y0365727D01*
X0341374Y0367637D01*
X0340643Y0369401D01*
X0339293Y0370751D01*
X0337528Y0371482D01*
X0335619Y0371482D01*
X0333855Y0370751D01*
X0332504Y0369401D01*
X0331774Y0367637D01*
X0331774Y0365727D01*
X0332504Y0363963D01*
X0333855Y0362613D01*
X0335619Y0361882D01*
X0337745Y0361972D02*
X0386100Y0361972D01*
X0386100Y0363570D02*
X0340250Y0363570D01*
X0341142Y0365169D02*
X0386100Y0365169D01*
X0386100Y0366767D02*
X0341374Y0366767D01*
X0341072Y0368366D02*
X0386100Y0368366D01*
X0386100Y0369964D02*
X0340080Y0369964D01*
X0333068Y0369964D02*
X0115137Y0369964D01*
X0115607Y0370159D02*
X0116566Y0371118D01*
X0117085Y0372372D01*
X0117085Y0373728D01*
X0116566Y0374982D01*
X0115607Y0375941D01*
X0114353Y0376460D01*
X0112997Y0376460D01*
X0111743Y0375941D01*
X0110784Y0374982D01*
X0110265Y0373728D01*
X0110265Y0372372D01*
X0110784Y0371118D01*
X0111743Y0370159D01*
X0112997Y0369640D01*
X0114353Y0369640D01*
X0115607Y0370159D01*
X0116750Y0371563D02*
X0386100Y0371563D01*
X0386100Y0373161D02*
X0213825Y0373161D01*
X0213674Y0373099D02*
X0216955Y0374458D01*
X0219467Y0376969D01*
X0220826Y0380251D01*
X0220826Y0383802D01*
X0219467Y0387083D01*
X0216955Y0389595D01*
X0213674Y0390954D01*
X0210123Y0390954D01*
X0206841Y0389595D01*
X0204330Y0387083D01*
X0204048Y0386404D01*
X0202710Y0387742D01*
X0200830Y0388521D01*
X0198794Y0388521D01*
X0196914Y0387742D01*
X0195474Y0386303D01*
X0194891Y0384893D01*
X0194307Y0386303D01*
X0192868Y0387742D01*
X0190987Y0388521D01*
X0188952Y0388521D01*
X0187071Y0387742D01*
X0186032Y0386703D01*
X0184994Y0387742D01*
X0183113Y0388521D01*
X0181078Y0388521D01*
X0179197Y0387742D01*
X0177758Y0386303D01*
X0176979Y0384422D01*
X0176979Y0382387D01*
X0177758Y0380506D01*
X0179197Y0379067D01*
X0181078Y0378288D01*
X0183113Y0378288D01*
X0184994Y0379067D01*
X0186032Y0380105D01*
X0187071Y0379067D01*
X0188952Y0378288D01*
X0190987Y0378288D01*
X0192868Y0379067D01*
X0194307Y0380506D01*
X0194891Y0381915D01*
X0195474Y0380506D01*
X0196914Y0379067D01*
X0198794Y0378288D01*
X0200830Y0378288D01*
X0202710Y0379067D01*
X0203241Y0379598D01*
X0204330Y0376969D01*
X0206841Y0374458D01*
X0210123Y0373099D01*
X0213674Y0373099D01*
X0209972Y0373161D02*
X0162093Y0373161D01*
X0161942Y0373099D02*
X0165223Y0374458D01*
X0167735Y0376969D01*
X0169072Y0380198D01*
X0169310Y0379959D01*
X0169886Y0379541D01*
X0170519Y0379219D01*
X0171195Y0378999D01*
X0171897Y0378888D01*
X0172147Y0378888D01*
X0172147Y0383299D01*
X0172358Y0383299D01*
X0172358Y0378888D01*
X0172608Y0378888D01*
X0173310Y0378999D01*
X0173987Y0379219D01*
X0174620Y0379541D01*
X0175195Y0379959D01*
X0175698Y0380462D01*
X0176116Y0381037D01*
X0176438Y0381671D01*
X0176658Y0382347D01*
X0176769Y0383049D01*
X0176769Y0383299D01*
X0172358Y0383299D01*
X0172358Y0383510D01*
X0172147Y0383510D01*
X0172147Y0387921D01*
X0171897Y0387921D01*
X0171195Y0387810D01*
X0170519Y0387590D01*
X0169886Y0387267D01*
X0169310Y0386849D01*
X0168808Y0386347D01*
X0168390Y0385772D01*
X0168328Y0385650D01*
X0167735Y0387083D01*
X0165223Y0389595D01*
X0161942Y0390954D01*
X0158390Y0390954D01*
X0155109Y0389595D01*
X0152598Y0387083D01*
X0151239Y0383802D01*
X0151239Y0380251D01*
X0152598Y0376969D01*
X0155109Y0374458D01*
X0158390Y0373099D01*
X0161942Y0373099D01*
X0158240Y0373161D02*
X0117085Y0373161D01*
X0116658Y0374760D02*
X0154807Y0374760D01*
X0153209Y0376358D02*
X0114600Y0376358D01*
X0112750Y0376358D02*
X0046700Y0376358D01*
X0046700Y0374760D02*
X0073159Y0374760D01*
X0072993Y0374691D02*
X0072034Y0373732D01*
X0071515Y0372478D01*
X0071515Y0371122D01*
X0072034Y0369868D01*
X0072993Y0368909D01*
X0074247Y0368390D01*
X0075603Y0368390D01*
X0076857Y0368909D01*
X0077816Y0369868D01*
X0078335Y0371122D01*
X0078335Y0372478D01*
X0077816Y0373732D01*
X0076857Y0374691D01*
X0075603Y0375210D01*
X0074247Y0375210D01*
X0072993Y0374691D01*
X0071798Y0373161D02*
X0046700Y0373161D01*
X0046700Y0371563D02*
X0071515Y0371563D01*
X0071994Y0369964D02*
X0046700Y0369964D01*
X0046700Y0368366D02*
X0083757Y0368366D01*
X0083909Y0368732D02*
X0083390Y0367478D01*
X0083390Y0366122D01*
X0083909Y0364868D01*
X0084868Y0363909D01*
X0086122Y0363390D01*
X0087478Y0363390D01*
X0088732Y0363909D01*
X0089691Y0364868D01*
X0090210Y0366122D01*
X0090210Y0367478D01*
X0089691Y0368732D01*
X0088732Y0369691D01*
X0087478Y0370210D01*
X0086122Y0370210D01*
X0084868Y0369691D01*
X0083909Y0368732D01*
X0083390Y0366767D02*
X0046700Y0366767D01*
X0046700Y0365169D02*
X0083785Y0365169D01*
X0085686Y0363570D02*
X0046700Y0363570D01*
X0046700Y0361972D02*
X0254836Y0361972D01*
X0254621Y0361862D02*
X0254054Y0361450D01*
X0253558Y0360954D01*
X0253145Y0360386D01*
X0252827Y0359761D01*
X0252610Y0359094D01*
X0252500Y0358401D01*
X0252500Y0358136D01*
X0256872Y0358136D01*
X0256872Y0362507D01*
X0256607Y0362507D01*
X0255914Y0362398D01*
X0255246Y0362181D01*
X0254621Y0361862D01*
X0253138Y0360373D02*
X0046700Y0360373D01*
X0046700Y0358775D02*
X0252559Y0358775D01*
X0252500Y0357964D02*
X0252500Y0357699D01*
X0252610Y0357006D01*
X0252827Y0356339D01*
X0253145Y0355714D01*
X0253558Y0355146D01*
X0254054Y0354650D01*
X0254621Y0354238D01*
X0255246Y0353919D01*
X0255914Y0353702D01*
X0256607Y0353593D01*
X0256872Y0353593D01*
X0256872Y0357964D01*
X0257043Y0357964D01*
X0257043Y0353593D01*
X0257308Y0353593D01*
X0258001Y0353702D01*
X0258669Y0353919D01*
X0259294Y0354238D01*
X0259861Y0354650D01*
X0260357Y0355146D01*
X0260770Y0355714D01*
X0261088Y0356339D01*
X0261305Y0357006D01*
X0261415Y0357699D01*
X0261415Y0357964D01*
X0257043Y0357964D01*
X0257043Y0358136D01*
X0256872Y0358136D01*
X0256872Y0357964D01*
X0252500Y0357964D01*
X0252583Y0357176D02*
X0046700Y0357176D01*
X0046700Y0355578D02*
X0253244Y0355578D01*
X0255129Y0353979D02*
X0046700Y0353979D01*
X0046700Y0377957D02*
X0152189Y0377957D01*
X0151527Y0379555D02*
X0046700Y0379555D01*
X0046700Y0381154D02*
X0151239Y0381154D01*
X0151239Y0382752D02*
X0046700Y0382752D01*
X0046700Y0384351D02*
X0151466Y0384351D01*
X0152128Y0385949D02*
X0046700Y0385949D01*
X0046700Y0387548D02*
X0153062Y0387548D01*
X0154661Y0389146D02*
X0129671Y0389146D01*
X0129353Y0389015D02*
X0130607Y0389534D01*
X0131566Y0390493D01*
X0132085Y0391747D01*
X0132085Y0393103D01*
X0131566Y0394357D01*
X0130607Y0395316D01*
X0129353Y0395835D01*
X0127997Y0395835D01*
X0127425Y0395598D01*
X0126853Y0395835D01*
X0125497Y0395835D01*
X0124925Y0395598D01*
X0124353Y0395835D01*
X0122997Y0395835D01*
X0122425Y0395598D01*
X0121853Y0395835D01*
X0120497Y0395835D01*
X0119243Y0395316D01*
X0118284Y0394357D01*
X0117765Y0393103D01*
X0117765Y0391747D01*
X0118284Y0390493D01*
X0119243Y0389534D01*
X0120497Y0389015D01*
X0121853Y0389015D01*
X0122425Y0389252D01*
X0122997Y0389015D01*
X0124353Y0389015D01*
X0124925Y0389252D01*
X0125497Y0389015D01*
X0126853Y0389015D01*
X0127425Y0389252D01*
X0127997Y0389015D01*
X0129353Y0389015D01*
X0127679Y0389146D02*
X0127171Y0389146D01*
X0125179Y0389146D02*
X0124671Y0389146D01*
X0122679Y0389146D02*
X0122171Y0389146D01*
X0120179Y0389146D02*
X0046700Y0389146D01*
X0046700Y0390745D02*
X0118180Y0390745D01*
X0117765Y0392343D02*
X0046700Y0392343D01*
X0046700Y0393942D02*
X0118112Y0393942D01*
X0119785Y0395540D02*
X0046700Y0395540D01*
X0046700Y0397139D02*
X0154790Y0397139D01*
X0155109Y0396820D02*
X0158390Y0395461D01*
X0161942Y0395461D01*
X0165223Y0396820D01*
X0167735Y0399332D01*
X0169094Y0402613D01*
X0169094Y0406164D01*
X0167735Y0409446D01*
X0165223Y0411957D01*
X0161942Y0413316D01*
X0158390Y0413316D01*
X0155109Y0411957D01*
X0152598Y0409446D01*
X0151239Y0406164D01*
X0151239Y0402613D01*
X0152598Y0399332D01*
X0155109Y0396820D01*
X0153192Y0398737D02*
X0046700Y0398737D01*
X0046700Y0400336D02*
X0068727Y0400336D01*
X0068900Y0400163D02*
X0072097Y0398839D01*
X0075558Y0398839D01*
X0078755Y0400163D01*
X0081202Y0402610D01*
X0082527Y0405808D01*
X0082527Y0409269D01*
X0081202Y0412466D01*
X0078755Y0414913D01*
X0075558Y0416237D01*
X0072097Y0416237D01*
X0068900Y0414913D01*
X0066453Y0412466D01*
X0065128Y0409269D01*
X0065128Y0405808D01*
X0066453Y0402610D01*
X0068900Y0400163D01*
X0067129Y0401934D02*
X0046700Y0401934D01*
X0046700Y0403533D02*
X0066071Y0403533D01*
X0065409Y0405131D02*
X0046700Y0405131D01*
X0046700Y0406730D02*
X0065128Y0406730D01*
X0065128Y0408328D02*
X0046700Y0408328D01*
X0046700Y0409927D02*
X0065401Y0409927D01*
X0066063Y0411525D02*
X0046700Y0411525D01*
X0046700Y0413124D02*
X0067111Y0413124D01*
X0068709Y0414722D02*
X0046700Y0414722D01*
X0046700Y0416321D02*
X0294850Y0416321D01*
X0294850Y0417920D02*
X0046700Y0417920D01*
X0046700Y0419518D02*
X0294850Y0419518D01*
X0294850Y0421117D02*
X0046700Y0421117D01*
X0046700Y0422715D02*
X0294850Y0422715D01*
X0294850Y0424314D02*
X0266906Y0424314D01*
X0266495Y0423903D02*
X0268250Y0425658D01*
X0269200Y0427951D01*
X0269200Y0430433D01*
X0268250Y0432726D01*
X0266495Y0434481D01*
X0264202Y0435430D01*
X0261720Y0435430D01*
X0259428Y0434481D01*
X0257673Y0432726D01*
X0256723Y0430433D01*
X0256723Y0427951D01*
X0257673Y0425658D01*
X0259428Y0423903D01*
X0261720Y0422953D01*
X0264202Y0422953D01*
X0266495Y0423903D01*
X0268356Y0425912D02*
X0294850Y0425912D01*
X0294850Y0427511D02*
X0269018Y0427511D01*
X0269200Y0429109D02*
X0294850Y0429109D01*
X0294850Y0430708D02*
X0269086Y0430708D01*
X0268424Y0432306D02*
X0294850Y0432306D01*
X0294850Y0433905D02*
X0267071Y0433905D01*
X0272783Y0435503D02*
X0233139Y0435503D01*
X0233708Y0437102D02*
X0272215Y0437102D01*
X0272215Y0438700D02*
X0233708Y0438700D01*
X0233708Y0440299D02*
X0272215Y0440299D01*
X0272215Y0441897D02*
X0233708Y0441897D01*
X0240006Y0434014D02*
X0240797Y0434417D01*
X0241641Y0434691D01*
X0242482Y0434825D01*
X0242482Y0429671D01*
X0242482Y0428712D01*
X0243441Y0428712D01*
X0243441Y0423559D01*
X0244282Y0423692D01*
X0245126Y0423966D01*
X0245917Y0424369D01*
X0246635Y0424891D01*
X0247262Y0425518D01*
X0247784Y0426236D01*
X0248187Y0427027D01*
X0248461Y0427871D01*
X0248594Y0428712D01*
X0243441Y0428712D01*
X0243441Y0429671D01*
X0248594Y0429671D01*
X0248461Y0430512D01*
X0248187Y0431356D01*
X0247784Y0432147D01*
X0247262Y0432865D01*
X0246635Y0433493D01*
X0245917Y0434014D01*
X0245126Y0434417D01*
X0244282Y0434691D01*
X0243441Y0434825D01*
X0243441Y0429671D01*
X0242482Y0429671D01*
X0237328Y0429671D01*
X0237462Y0430512D01*
X0237736Y0431356D01*
X0238139Y0432147D01*
X0238661Y0432865D01*
X0239288Y0433493D01*
X0240006Y0434014D01*
X0239855Y0433905D02*
X0052653Y0433905D01*
X0050003Y0432306D02*
X0238254Y0432306D01*
X0237525Y0430708D02*
X0142659Y0430708D01*
X0142864Y0430667D02*
X0142172Y0430804D01*
X0141820Y0430804D01*
X0141820Y0427223D01*
X0141820Y0427223D01*
X0145401Y0427223D01*
X0145401Y0426871D01*
X0145263Y0426179D01*
X0144993Y0425527D01*
X0144601Y0424940D01*
X0144102Y0424442D01*
X0143516Y0424050D01*
X0142864Y0423780D01*
X0142172Y0423642D01*
X0141820Y0423642D01*
X0141820Y0427223D01*
X0141820Y0427223D01*
X0145401Y0427223D01*
X0145401Y0427576D01*
X0145263Y0428268D01*
X0144993Y0428920D01*
X0144601Y0429506D01*
X0144102Y0430005D01*
X0143516Y0430397D01*
X0142864Y0430667D01*
X0141820Y0430708D02*
X0141820Y0430708D01*
X0141820Y0430804D02*
X0141467Y0430804D01*
X0140775Y0430667D01*
X0140123Y0430397D01*
X0139537Y0430005D01*
X0139038Y0429506D01*
X0138646Y0428920D01*
X0138376Y0428268D01*
X0138239Y0427576D01*
X0138239Y0427223D01*
X0138239Y0426871D01*
X0138376Y0426179D01*
X0138646Y0425527D01*
X0139038Y0424940D01*
X0139537Y0424442D01*
X0140123Y0424050D01*
X0140775Y0423780D01*
X0141467Y0423642D01*
X0141820Y0423642D01*
X0141820Y0427223D01*
X0141820Y0427223D01*
X0138239Y0427223D01*
X0141820Y0427223D01*
X0141820Y0427223D01*
X0141820Y0430804D01*
X0140981Y0430708D02*
X0109037Y0430708D01*
X0109242Y0430667D02*
X0108550Y0430804D01*
X0108198Y0430804D01*
X0108198Y0427223D01*
X0108198Y0427223D01*
X0111779Y0427223D01*
X0111779Y0426871D01*
X0111641Y0426179D01*
X0111371Y0425527D01*
X0110979Y0424940D01*
X0110480Y0424442D01*
X0109894Y0424050D01*
X0109242Y0423780D01*
X0108550Y0423642D01*
X0108198Y0423642D01*
X0108198Y0427223D01*
X0108198Y0427223D01*
X0111779Y0427223D01*
X0111779Y0427576D01*
X0111641Y0428268D01*
X0111371Y0428920D01*
X0110979Y0429506D01*
X0110480Y0430005D01*
X0109894Y0430397D01*
X0109242Y0430667D01*
X0108198Y0430708D02*
X0108198Y0430708D01*
X0108198Y0430804D02*
X0107845Y0430804D01*
X0107153Y0430667D01*
X0106501Y0430397D01*
X0105915Y0430005D01*
X0105416Y0429506D01*
X0105024Y0428920D01*
X0104754Y0428268D01*
X0104617Y0427576D01*
X0104617Y0427223D01*
X0104617Y0426871D01*
X0104754Y0426179D01*
X0105024Y0425527D01*
X0105416Y0424940D01*
X0105915Y0424442D01*
X0106501Y0424050D01*
X0107153Y0423780D01*
X0107845Y0423642D01*
X0108198Y0423642D01*
X0108198Y0427223D01*
X0108198Y0427223D01*
X0104617Y0427223D01*
X0108198Y0427223D01*
X0108198Y0427223D01*
X0108198Y0430804D01*
X0107359Y0430708D02*
X0048583Y0430708D01*
X0047590Y0429109D02*
X0105151Y0429109D01*
X0104617Y0427511D02*
X0047070Y0427511D01*
X0046752Y0425912D02*
X0104865Y0425912D01*
X0106106Y0424314D02*
X0046700Y0424314D01*
X0078946Y0414722D02*
X0240778Y0414722D01*
X0240797Y0414732D02*
X0240006Y0414329D01*
X0239288Y0413808D01*
X0238661Y0413180D01*
X0238139Y0412462D01*
X0237736Y0411671D01*
X0237462Y0410827D01*
X0237328Y0409986D01*
X0242482Y0409986D01*
X0242482Y0409027D01*
X0243441Y0409027D01*
X0243441Y0403874D01*
X0244282Y0404007D01*
X0245126Y0404281D01*
X0245917Y0404684D01*
X0246635Y0405206D01*
X0247262Y0405833D01*
X0247784Y0406551D01*
X0248187Y0407342D01*
X0248461Y0408186D01*
X0248594Y0409027D01*
X0243441Y0409027D01*
X0243441Y0409986D01*
X0248594Y0409986D01*
X0248461Y0410827D01*
X0248187Y0411671D01*
X0247784Y0412462D01*
X0247262Y0413180D01*
X0246635Y0413808D01*
X0245917Y0414329D01*
X0245126Y0414732D01*
X0244282Y0415006D01*
X0243441Y0415140D01*
X0243441Y0409986D01*
X0242482Y0409986D01*
X0242482Y0415140D01*
X0241641Y0415006D01*
X0240797Y0414732D01*
X0242482Y0414722D02*
X0243441Y0414722D01*
X0243441Y0413124D02*
X0242482Y0413124D01*
X0242482Y0411525D02*
X0243441Y0411525D01*
X0243441Y0409927D02*
X0256723Y0409927D01*
X0256723Y0410748D02*
X0256723Y0408266D01*
X0257673Y0405973D01*
X0259428Y0404218D01*
X0261720Y0403268D01*
X0264202Y0403268D01*
X0266495Y0404218D01*
X0268250Y0405973D01*
X0269200Y0408266D01*
X0269200Y0410748D01*
X0268250Y0413041D01*
X0266495Y0414795D01*
X0264202Y0415745D01*
X0261720Y0415745D01*
X0259428Y0414795D01*
X0257673Y0413041D01*
X0256723Y0410748D01*
X0257045Y0411525D02*
X0248234Y0411525D01*
X0247303Y0413124D02*
X0257756Y0413124D01*
X0259355Y0414722D02*
X0245145Y0414722D01*
X0242482Y0409927D02*
X0218986Y0409927D01*
X0219467Y0409446D02*
X0216955Y0411957D01*
X0213674Y0413316D01*
X0210123Y0413316D01*
X0206841Y0411957D01*
X0204330Y0409446D01*
X0202971Y0406164D01*
X0202971Y0402613D01*
X0204330Y0399332D01*
X0206841Y0396820D01*
X0210123Y0395461D01*
X0213674Y0395461D01*
X0216955Y0396820D01*
X0219467Y0399332D01*
X0220826Y0402613D01*
X0220826Y0406164D01*
X0219467Y0409446D01*
X0219930Y0408328D02*
X0237439Y0408328D01*
X0237462Y0408186D02*
X0237736Y0407342D01*
X0238139Y0406551D01*
X0238661Y0405833D01*
X0239288Y0405206D01*
X0240006Y0404684D01*
X0240797Y0404281D01*
X0241641Y0404007D01*
X0242482Y0403874D01*
X0242482Y0409027D01*
X0237328Y0409027D01*
X0237462Y0408186D01*
X0238048Y0406730D02*
X0220592Y0406730D01*
X0220826Y0405131D02*
X0239391Y0405131D01*
X0242482Y0405131D02*
X0243441Y0405131D01*
X0243441Y0406730D02*
X0242482Y0406730D01*
X0242482Y0408328D02*
X0243441Y0408328D01*
X0246532Y0405131D02*
X0258514Y0405131D01*
X0257359Y0406730D02*
X0247875Y0406730D01*
X0248484Y0408328D02*
X0256723Y0408328D01*
X0261081Y0403533D02*
X0220826Y0403533D01*
X0220545Y0401934D02*
X0294850Y0401934D01*
X0294850Y0400336D02*
X0219883Y0400336D01*
X0218873Y0398737D02*
X0294850Y0398737D01*
X0294850Y0397139D02*
X0217274Y0397139D01*
X0213866Y0395540D02*
X0294850Y0395540D01*
X0294850Y0393942D02*
X0284481Y0393942D01*
X0284691Y0393732D02*
X0283732Y0394691D01*
X0282478Y0395210D01*
X0281122Y0395210D01*
X0279868Y0394691D01*
X0278909Y0393732D01*
X0278390Y0392478D01*
X0278390Y0391122D01*
X0278909Y0389868D01*
X0279868Y0388909D01*
X0281122Y0388390D01*
X0282478Y0388390D01*
X0283732Y0388909D01*
X0284691Y0389868D01*
X0285210Y0391122D01*
X0285210Y0392478D01*
X0284691Y0393732D01*
X0285210Y0392343D02*
X0294850Y0392343D01*
X0294850Y0390745D02*
X0285054Y0390745D01*
X0283969Y0389146D02*
X0294850Y0389146D01*
X0294850Y0387548D02*
X0219002Y0387548D01*
X0219937Y0385949D02*
X0294850Y0385949D01*
X0294850Y0384351D02*
X0220599Y0384351D01*
X0220826Y0382752D02*
X0294969Y0382752D01*
X0296046Y0381154D02*
X0220826Y0381154D01*
X0220538Y0379555D02*
X0386100Y0379555D01*
X0386100Y0377957D02*
X0219876Y0377957D01*
X0218856Y0376358D02*
X0386100Y0376358D01*
X0386100Y0374760D02*
X0217257Y0374760D01*
X0206540Y0374760D02*
X0165525Y0374760D01*
X0167123Y0376358D02*
X0204941Y0376358D01*
X0203921Y0377957D02*
X0168144Y0377957D01*
X0168806Y0379555D02*
X0169867Y0379555D01*
X0172147Y0379555D02*
X0172358Y0379555D01*
X0172358Y0381154D02*
X0172147Y0381154D01*
X0172147Y0382752D02*
X0172358Y0382752D01*
X0172358Y0383510D02*
X0176769Y0383510D01*
X0176769Y0383760D01*
X0176658Y0384462D01*
X0176438Y0385138D01*
X0176116Y0385772D01*
X0175698Y0386347D01*
X0175195Y0386849D01*
X0174620Y0387267D01*
X0173987Y0387590D01*
X0173310Y0387810D01*
X0172608Y0387921D01*
X0172358Y0387921D01*
X0172358Y0383510D01*
X0172358Y0384351D02*
X0172147Y0384351D01*
X0172147Y0385949D02*
X0172358Y0385949D01*
X0172358Y0387548D02*
X0172147Y0387548D01*
X0172147Y0389203D02*
X0172147Y0393614D01*
X0167736Y0393614D01*
X0167736Y0393364D01*
X0167847Y0392662D01*
X0168067Y0391986D01*
X0168390Y0391352D01*
X0168808Y0390777D01*
X0169310Y0390274D01*
X0169886Y0389856D01*
X0170519Y0389534D01*
X0171195Y0389314D01*
X0171897Y0389203D01*
X0172147Y0389203D01*
X0172358Y0389203D02*
X0172608Y0389203D01*
X0173310Y0389314D01*
X0173987Y0389534D01*
X0174620Y0389856D01*
X0175195Y0390274D01*
X0175698Y0390777D01*
X0176116Y0391352D01*
X0176438Y0391986D01*
X0176658Y0392662D01*
X0176769Y0393364D01*
X0176769Y0393614D01*
X0172358Y0393614D01*
X0172358Y0389203D01*
X0172358Y0390745D02*
X0172147Y0390745D01*
X0172147Y0392343D02*
X0172358Y0392343D01*
X0172358Y0393614D02*
X0172147Y0393614D01*
X0172147Y0393825D01*
X0167736Y0393825D01*
X0167736Y0394075D01*
X0167847Y0394777D01*
X0168067Y0395453D01*
X0168390Y0396086D01*
X0168808Y0396662D01*
X0169310Y0397164D01*
X0169886Y0397582D01*
X0170519Y0397905D01*
X0171195Y0398125D01*
X0171897Y0398236D01*
X0172147Y0398236D01*
X0172147Y0393825D01*
X0172358Y0393825D01*
X0172358Y0398236D01*
X0172608Y0398236D01*
X0173310Y0398125D01*
X0173987Y0397905D01*
X0174620Y0397582D01*
X0175195Y0397164D01*
X0175698Y0396662D01*
X0176116Y0396086D01*
X0176438Y0395453D01*
X0176658Y0394777D01*
X0176769Y0394075D01*
X0176769Y0393825D01*
X0172358Y0393825D01*
X0172358Y0393614D01*
X0172358Y0393942D02*
X0172147Y0393942D01*
X0172147Y0395540D02*
X0172358Y0395540D01*
X0172358Y0397139D02*
X0172147Y0397139D01*
X0169285Y0397139D02*
X0165542Y0397139D01*
X0167140Y0398737D02*
X0180840Y0398737D01*
X0181078Y0398836D02*
X0179197Y0398057D01*
X0177758Y0396618D01*
X0176979Y0394737D01*
X0176979Y0392702D01*
X0177758Y0390821D01*
X0179197Y0389382D01*
X0181078Y0388603D01*
X0183113Y0388603D01*
X0184994Y0389382D01*
X0186032Y0390420D01*
X0187071Y0389382D01*
X0188952Y0388603D01*
X0190987Y0388603D01*
X0192868Y0389382D01*
X0194307Y0390821D01*
X0194891Y0392230D01*
X0195474Y0390821D01*
X0196914Y0389382D01*
X0198794Y0388603D01*
X0200830Y0388603D01*
X0202710Y0389382D01*
X0204149Y0390821D01*
X0204928Y0392702D01*
X0204928Y0394737D01*
X0204149Y0396618D01*
X0202710Y0398057D01*
X0200830Y0398836D01*
X0198794Y0398836D01*
X0196914Y0398057D01*
X0195474Y0396618D01*
X0194891Y0395208D01*
X0194307Y0396618D01*
X0192868Y0398057D01*
X0190987Y0398836D01*
X0188952Y0398836D01*
X0187071Y0398057D01*
X0186032Y0397018D01*
X0184994Y0398057D01*
X0183113Y0398836D01*
X0181078Y0398836D01*
X0183351Y0398737D02*
X0188714Y0398737D01*
X0191225Y0398737D02*
X0198556Y0398737D01*
X0201067Y0398737D02*
X0204924Y0398737D01*
X0203914Y0400336D02*
X0168151Y0400336D01*
X0168813Y0401934D02*
X0203252Y0401934D01*
X0202971Y0403533D02*
X0169094Y0403533D01*
X0169094Y0405131D02*
X0202971Y0405131D01*
X0203205Y0406730D02*
X0168859Y0406730D01*
X0168197Y0408328D02*
X0203867Y0408328D01*
X0204811Y0409927D02*
X0167253Y0409927D01*
X0165655Y0411525D02*
X0206410Y0411525D01*
X0209659Y0413124D02*
X0162406Y0413124D01*
X0157926Y0413124D02*
X0080544Y0413124D01*
X0081592Y0411525D02*
X0106128Y0411525D01*
X0105915Y0411383D02*
X0105416Y0410884D01*
X0105024Y0410297D01*
X0104754Y0409646D01*
X0104617Y0408954D01*
X0104617Y0408601D01*
X0104617Y0408248D01*
X0104754Y0407557D01*
X0105024Y0406905D01*
X0105416Y0406318D01*
X0105915Y0405820D01*
X0106501Y0405428D01*
X0107153Y0405158D01*
X0107845Y0405020D01*
X0108198Y0405020D01*
X0108550Y0405020D01*
X0109242Y0405158D01*
X0109894Y0405428D01*
X0110480Y0405820D01*
X0110700Y0406039D01*
X0110198Y0404827D01*
X0110198Y0403320D01*
X0110774Y0401928D01*
X0111840Y0400863D01*
X0113232Y0400286D01*
X0114738Y0400286D01*
X0116130Y0400863D01*
X0116264Y0400997D01*
X0116821Y0400886D01*
X0117135Y0400886D01*
X0117449Y0400886D01*
X0118005Y0400997D01*
X0118139Y0400863D01*
X0119531Y0400286D01*
X0121038Y0400286D01*
X0121859Y0400626D01*
X0122680Y0400286D01*
X0124187Y0400286D01*
X0125009Y0400626D01*
X0125830Y0400286D01*
X0127337Y0400286D01*
X0128158Y0400626D01*
X0128980Y0400286D01*
X0130486Y0400286D01*
X0131878Y0400863D01*
X0132013Y0400997D01*
X0132569Y0400886D01*
X0132883Y0400886D01*
X0133197Y0400886D01*
X0133812Y0401009D01*
X0134392Y0401249D01*
X0134457Y0401292D01*
X0134522Y0401249D01*
X0135103Y0401009D01*
X0135718Y0400886D01*
X0136032Y0400886D01*
X0136032Y0403382D01*
X0136032Y0403382D01*
X0136032Y0400886D01*
X0136346Y0400886D01*
X0136962Y0401009D01*
X0137542Y0401249D01*
X0138064Y0401598D01*
X0138508Y0402042D01*
X0138857Y0402564D01*
X0139097Y0403144D01*
X0139220Y0403760D01*
X0139220Y0404074D01*
X0139220Y0404388D01*
X0139097Y0405003D01*
X0138857Y0405583D01*
X0138508Y0406105D01*
X0138245Y0406369D01*
X0138245Y0407583D01*
X0137668Y0408975D01*
X0136603Y0410040D01*
X0135211Y0410617D01*
X0133704Y0410617D01*
X0132883Y0410277D01*
X0132061Y0410617D01*
X0130555Y0410617D01*
X0129733Y0410277D01*
X0128912Y0410617D01*
X0127405Y0410617D01*
X0126013Y0410040D01*
X0125009Y0409036D01*
X0124004Y0410040D01*
X0122612Y0410617D01*
X0121106Y0410617D01*
X0120284Y0410277D01*
X0119463Y0410617D01*
X0117956Y0410617D01*
X0117135Y0410277D01*
X0116313Y0410617D01*
X0114806Y0410617D01*
X0113414Y0410040D01*
X0112349Y0408975D01*
X0111772Y0407583D01*
X0111772Y0407217D01*
X0111192Y0406637D01*
X0111371Y0406905D01*
X0111641Y0407557D01*
X0111779Y0408248D01*
X0111779Y0408601D01*
X0108198Y0408601D01*
X0108198Y0408601D01*
X0108198Y0405020D01*
X0108198Y0408601D01*
X0108198Y0408601D01*
X0111779Y0408601D01*
X0111779Y0408954D01*
X0111641Y0409646D01*
X0111371Y0410297D01*
X0110979Y0410884D01*
X0110480Y0411383D01*
X0109894Y0411775D01*
X0109242Y0412045D01*
X0108550Y0412182D01*
X0108198Y0412182D01*
X0108198Y0408601D01*
X0108198Y0408601D01*
X0104617Y0408601D01*
X0108198Y0408601D01*
X0108198Y0408601D01*
X0108198Y0412182D01*
X0107845Y0412182D01*
X0107153Y0412045D01*
X0106501Y0411775D01*
X0105915Y0411383D01*
X0104871Y0409927D02*
X0082254Y0409927D01*
X0082527Y0408328D02*
X0104617Y0408328D01*
X0105141Y0406730D02*
X0082527Y0406730D01*
X0082247Y0405131D02*
X0107285Y0405131D01*
X0108198Y0405131D02*
X0108198Y0405131D01*
X0109110Y0405131D02*
X0110324Y0405131D01*
X0110198Y0403533D02*
X0081584Y0403533D01*
X0080526Y0401934D02*
X0110772Y0401934D01*
X0113112Y0400336D02*
X0078928Y0400336D01*
X0076691Y0374760D02*
X0110692Y0374760D01*
X0110265Y0373161D02*
X0078052Y0373161D01*
X0078335Y0371563D02*
X0110600Y0371563D01*
X0112213Y0369964D02*
X0088072Y0369964D01*
X0089843Y0368366D02*
X0332076Y0368366D01*
X0331774Y0366767D02*
X0090210Y0366767D01*
X0089815Y0365169D02*
X0332005Y0365169D01*
X0332897Y0363570D02*
X0087914Y0363570D01*
X0085528Y0369964D02*
X0077856Y0369964D01*
X0108118Y0350782D02*
X0181006Y0350782D01*
X0180824Y0350650D02*
X0180263Y0350089D01*
X0179796Y0349446D01*
X0179435Y0348738D01*
X0179189Y0347982D01*
X0179065Y0347197D01*
X0179065Y0347083D01*
X0183830Y0347083D01*
X0183830Y0351848D01*
X0183716Y0351848D01*
X0182931Y0351724D01*
X0182175Y0351478D01*
X0181467Y0351117D01*
X0180824Y0350650D01*
X0179662Y0349184D02*
X0109239Y0349184D01*
X0109761Y0347585D02*
X0179126Y0347585D01*
X0179065Y0346517D02*
X0179065Y0346403D01*
X0179189Y0345618D01*
X0179435Y0344862D01*
X0179796Y0344154D01*
X0180263Y0343511D01*
X0180824Y0342950D01*
X0181467Y0342483D01*
X0182175Y0342122D01*
X0182931Y0341876D01*
X0183716Y0341752D01*
X0183830Y0341752D01*
X0183830Y0346517D01*
X0179065Y0346517D01*
X0179131Y0345987D02*
X0109761Y0345987D01*
X0109227Y0344388D02*
X0179676Y0344388D01*
X0181045Y0342789D02*
X0108090Y0342789D01*
X0100554Y0301228D02*
X0046700Y0301228D01*
X0046700Y0299630D02*
X0099172Y0299630D01*
X0098510Y0298031D02*
X0046700Y0298031D01*
X0046700Y0296433D02*
X0098465Y0296433D01*
X0098814Y0294834D02*
X0046700Y0294834D01*
X0046700Y0293236D02*
X0099690Y0293236D01*
X0113050Y0243682D02*
X0046700Y0243682D01*
X0046700Y0242083D02*
X0113050Y0242083D01*
X0113050Y0240485D02*
X0046700Y0240485D01*
X0046700Y0238886D02*
X0113050Y0238886D01*
X0113050Y0237288D02*
X0046700Y0237288D01*
X0046700Y0235689D02*
X0113050Y0235689D01*
X0113050Y0234091D02*
X0046700Y0234091D01*
X0046700Y0232492D02*
X0068919Y0232492D01*
X0068909Y0232482D02*
X0068390Y0231228D01*
X0068390Y0229872D01*
X0068909Y0228618D01*
X0069868Y0227659D01*
X0071122Y0227140D01*
X0072478Y0227140D01*
X0073732Y0227659D01*
X0074691Y0228618D01*
X0075210Y0229872D01*
X0075210Y0231228D01*
X0074691Y0232482D01*
X0073732Y0233441D01*
X0072478Y0233960D01*
X0071122Y0233960D01*
X0069868Y0233441D01*
X0068909Y0232482D01*
X0068390Y0230894D02*
X0046700Y0230894D01*
X0046700Y0229295D02*
X0068629Y0229295D01*
X0069831Y0227697D02*
X0046700Y0227697D01*
X0046700Y0226098D02*
X0113050Y0226098D01*
X0113050Y0224500D02*
X0069548Y0224500D01*
X0069357Y0224691D02*
X0070316Y0223732D01*
X0070835Y0222478D01*
X0070835Y0221122D01*
X0070365Y0219987D01*
X0070521Y0220143D01*
X0071108Y0220535D01*
X0071759Y0220804D01*
X0072451Y0220942D01*
X0072804Y0220942D01*
X0073157Y0220942D01*
X0073848Y0220804D01*
X0074500Y0220535D01*
X0075087Y0220143D01*
X0075586Y0219644D01*
X0075977Y0219057D01*
X0076247Y0218406D01*
X0076385Y0217714D01*
X0076385Y0217361D01*
X0072804Y0217361D01*
X0072804Y0217361D01*
X0076385Y0217361D01*
X0076385Y0217008D01*
X0076247Y0216316D01*
X0075977Y0215665D01*
X0075586Y0215078D01*
X0075087Y0214579D01*
X0074500Y0214187D01*
X0073848Y0213918D01*
X0073157Y0213780D01*
X0072804Y0213780D01*
X0072804Y0217361D01*
X0072804Y0217361D01*
X0072804Y0217361D01*
X0072804Y0220942D01*
X0072804Y0217361D01*
X0072804Y0213780D01*
X0072451Y0213780D01*
X0071759Y0213918D01*
X0071108Y0214187D01*
X0070521Y0214579D01*
X0070022Y0215078D01*
X0069630Y0215665D01*
X0069360Y0216316D01*
X0069223Y0217008D01*
X0069223Y0217361D01*
X0072804Y0217361D01*
X0072804Y0217361D01*
X0069223Y0217361D01*
X0069223Y0217714D01*
X0069360Y0218406D01*
X0069630Y0219057D01*
X0069883Y0219435D01*
X0069357Y0218909D01*
X0068103Y0218390D01*
X0066747Y0218390D01*
X0065493Y0218909D01*
X0064534Y0219868D01*
X0064015Y0221122D01*
X0064015Y0222478D01*
X0064534Y0223732D01*
X0065493Y0224691D01*
X0066747Y0225210D01*
X0068103Y0225210D01*
X0069357Y0224691D01*
X0070660Y0222901D02*
X0113050Y0222901D01*
X0113050Y0221303D02*
X0070835Y0221303D01*
X0072804Y0219704D02*
X0072804Y0219704D01*
X0072804Y0218106D02*
X0072804Y0218106D01*
X0072804Y0216507D02*
X0072804Y0216507D01*
X0072804Y0214909D02*
X0072804Y0214909D01*
X0073822Y0213786D02*
X0072430Y0213210D01*
X0071365Y0212144D01*
X0070788Y0210752D01*
X0070788Y0209245D01*
X0071128Y0208424D01*
X0070788Y0207603D01*
X0070788Y0206096D01*
X0071128Y0205274D01*
X0070788Y0204453D01*
X0070788Y0202946D01*
X0071365Y0201554D01*
X0072369Y0200550D01*
X0071365Y0199546D01*
X0070788Y0198154D01*
X0070788Y0196647D01*
X0071128Y0195826D01*
X0070788Y0195004D01*
X0070788Y0193497D01*
X0071128Y0192676D01*
X0070788Y0191855D01*
X0070788Y0190348D01*
X0071365Y0188956D01*
X0072430Y0187890D01*
X0073822Y0187314D01*
X0074188Y0187314D01*
X0074768Y0186733D01*
X0074500Y0186912D01*
X0073848Y0187182D01*
X0073157Y0187320D01*
X0072804Y0187320D01*
X0072804Y0183739D01*
X0076385Y0183739D01*
X0076385Y0184092D01*
X0076247Y0184784D01*
X0075977Y0185435D01*
X0075586Y0186022D01*
X0075366Y0186241D01*
X0076578Y0185739D01*
X0078085Y0185739D01*
X0079477Y0186316D01*
X0080542Y0187381D01*
X0081119Y0188773D01*
X0081119Y0190280D01*
X0080542Y0191672D01*
X0080408Y0191806D01*
X0080519Y0192362D01*
X0080519Y0192676D01*
X0080519Y0192990D01*
X0080408Y0193546D01*
X0080542Y0193680D01*
X0081119Y0195072D01*
X0081119Y0196579D01*
X0080779Y0197400D01*
X0081119Y0198222D01*
X0081119Y0199729D01*
X0080779Y0200550D01*
X0081119Y0201371D01*
X0081119Y0202878D01*
X0080779Y0203700D01*
X0081119Y0204521D01*
X0081119Y0206028D01*
X0080542Y0207420D01*
X0080408Y0207554D01*
X0080519Y0208110D01*
X0080519Y0208424D01*
X0080519Y0208738D01*
X0080396Y0209354D01*
X0080156Y0209934D01*
X0080113Y0209999D01*
X0080156Y0210064D01*
X0080396Y0210644D01*
X0080519Y0211260D01*
X0080519Y0211574D01*
X0080519Y0211888D01*
X0080396Y0212503D01*
X0080156Y0213083D01*
X0079807Y0213605D01*
X0079363Y0214049D01*
X0078841Y0214398D01*
X0078261Y0214639D01*
X0077645Y0214761D01*
X0077332Y0214761D01*
X0077332Y0212599D01*
X0077331Y0212599D01*
X0077331Y0214761D01*
X0077018Y0214761D01*
X0076402Y0214639D01*
X0075822Y0214398D01*
X0075300Y0214049D01*
X0075036Y0213786D01*
X0073822Y0213786D01*
X0072673Y0213310D02*
X0046700Y0213310D01*
X0046700Y0211712D02*
X0071186Y0211712D01*
X0070788Y0210113D02*
X0046700Y0210113D01*
X0046700Y0208515D02*
X0071091Y0208515D01*
X0070788Y0206916D02*
X0046700Y0206916D01*
X0046700Y0205318D02*
X0071111Y0205318D01*
X0070788Y0203719D02*
X0046700Y0203719D01*
X0046700Y0202120D02*
X0071130Y0202120D01*
X0072341Y0200522D02*
X0046700Y0200522D01*
X0046700Y0198923D02*
X0071107Y0198923D01*
X0070788Y0197325D02*
X0046700Y0197325D01*
X0046700Y0195726D02*
X0071087Y0195726D01*
X0070788Y0194128D02*
X0046700Y0194128D01*
X0046700Y0192529D02*
X0071068Y0192529D01*
X0070788Y0190931D02*
X0046700Y0190931D01*
X0046700Y0189332D02*
X0071209Y0189332D01*
X0071759Y0187182D02*
X0071108Y0186912D01*
X0070521Y0186521D01*
X0070022Y0186022D01*
X0069630Y0185435D01*
X0069360Y0184784D01*
X0069223Y0184092D01*
X0069223Y0183739D01*
X0072804Y0183739D01*
X0072804Y0183739D01*
X0072804Y0183739D01*
X0076385Y0183739D01*
X0076385Y0183386D01*
X0076247Y0182694D01*
X0075977Y0182043D01*
X0075586Y0181456D01*
X0075087Y0180957D01*
X0074500Y0180565D01*
X0073848Y0180295D01*
X0073157Y0180158D01*
X0072804Y0180158D01*
X0072804Y0183739D01*
X0072804Y0187320D01*
X0072451Y0187320D01*
X0071759Y0187182D01*
X0072808Y0187734D02*
X0046700Y0187734D01*
X0046700Y0186135D02*
X0051514Y0186135D01*
X0051400Y0186022D02*
X0051008Y0185435D01*
X0050738Y0184784D01*
X0050601Y0184092D01*
X0050601Y0183739D01*
X0054182Y0183739D01*
X0057763Y0183739D01*
X0057763Y0184092D01*
X0057625Y0184784D01*
X0057355Y0185435D01*
X0056964Y0186022D01*
X0056465Y0186521D01*
X0055878Y0186912D01*
X0055226Y0187182D01*
X0054535Y0187320D01*
X0054182Y0187320D01*
X0054182Y0183739D01*
X0054182Y0183739D01*
X0057763Y0183739D01*
X0057763Y0183386D01*
X0057625Y0182694D01*
X0057355Y0182043D01*
X0056964Y0181456D01*
X0056465Y0180957D01*
X0055878Y0180565D01*
X0055226Y0180295D01*
X0054535Y0180158D01*
X0054182Y0180158D01*
X0054182Y0183739D01*
X0054182Y0183739D01*
X0054182Y0183739D01*
X0054182Y0187320D01*
X0053829Y0187320D01*
X0053137Y0187182D01*
X0052486Y0186912D01*
X0051899Y0186521D01*
X0051400Y0186022D01*
X0050689Y0184537D02*
X0046700Y0184537D01*
X0046700Y0182938D02*
X0050690Y0182938D01*
X0050738Y0182694D02*
X0051008Y0182043D01*
X0051400Y0181456D01*
X0051899Y0180957D01*
X0052486Y0180565D01*
X0053137Y0180295D01*
X0053829Y0180158D01*
X0054182Y0180158D01*
X0054182Y0183739D01*
X0054182Y0183739D01*
X0050601Y0183739D01*
X0050601Y0183386D01*
X0050738Y0182694D01*
X0051517Y0181340D02*
X0046700Y0181340D01*
X0046700Y0179741D02*
X0113050Y0179741D01*
X0113050Y0178143D02*
X0046700Y0178143D01*
X0046700Y0176544D02*
X0113050Y0176544D01*
X0113050Y0174946D02*
X0046700Y0174946D01*
X0054182Y0181340D02*
X0054182Y0181340D01*
X0054182Y0182938D02*
X0054182Y0182938D01*
X0054182Y0184537D02*
X0054182Y0184537D01*
X0054182Y0186135D02*
X0054182Y0186135D01*
X0056850Y0186135D02*
X0070136Y0186135D01*
X0069311Y0184537D02*
X0057674Y0184537D01*
X0057674Y0182938D02*
X0069312Y0182938D01*
X0069360Y0182694D02*
X0069630Y0182043D01*
X0070022Y0181456D01*
X0070521Y0180957D01*
X0071108Y0180565D01*
X0071759Y0180295D01*
X0072451Y0180158D01*
X0072804Y0180158D01*
X0072804Y0183739D01*
X0072804Y0183739D01*
X0072804Y0183739D01*
X0069223Y0183739D01*
X0069223Y0183386D01*
X0069360Y0182694D01*
X0070139Y0181340D02*
X0056847Y0181340D01*
X0072804Y0181340D02*
X0072804Y0181340D01*
X0072804Y0182938D02*
X0072804Y0182938D01*
X0072804Y0184537D02*
X0072804Y0184537D01*
X0072804Y0186135D02*
X0072804Y0186135D01*
X0075472Y0186135D02*
X0075621Y0186135D01*
X0076296Y0184537D02*
X0113050Y0184537D01*
X0113050Y0186135D02*
X0079042Y0186135D01*
X0080688Y0187734D02*
X0113050Y0187734D01*
X0113050Y0189332D02*
X0081119Y0189332D01*
X0080849Y0190931D02*
X0113050Y0190931D01*
X0113050Y0192529D02*
X0080519Y0192529D01*
X0080519Y0192676D02*
X0079538Y0192676D01*
X0079538Y0192676D01*
X0079538Y0192676D01*
X0080519Y0192676D01*
X0080728Y0194128D02*
X0113050Y0194128D01*
X0113050Y0195726D02*
X0081119Y0195726D01*
X0080810Y0197325D02*
X0113050Y0197325D01*
X0113050Y0198923D02*
X0081119Y0198923D01*
X0080790Y0200522D02*
X0113050Y0200522D01*
X0113050Y0202120D02*
X0081119Y0202120D01*
X0080787Y0203719D02*
X0113050Y0203719D01*
X0113050Y0205318D02*
X0081119Y0205318D01*
X0080751Y0206916D02*
X0113050Y0206916D01*
X0113050Y0208515D02*
X0080519Y0208515D01*
X0080519Y0208424D02*
X0079538Y0208424D01*
X0079538Y0208424D01*
X0080519Y0208424D01*
X0080177Y0210113D02*
X0113050Y0210113D01*
X0113050Y0211712D02*
X0080519Y0211712D01*
X0080519Y0211574D02*
X0078023Y0211574D01*
X0078023Y0211574D01*
X0080519Y0211574D01*
X0080005Y0213310D02*
X0113050Y0213310D01*
X0113050Y0214909D02*
X0075416Y0214909D01*
X0076285Y0216507D02*
X0113050Y0216507D01*
X0113050Y0218106D02*
X0076307Y0218106D01*
X0075525Y0219704D02*
X0113050Y0219704D01*
X0113050Y0227697D02*
X0073769Y0227697D01*
X0074971Y0229295D02*
X0113050Y0229295D01*
X0113050Y0230894D02*
X0075210Y0230894D01*
X0074681Y0232492D02*
X0113050Y0232492D01*
X0077332Y0213310D02*
X0077331Y0213310D01*
X0070192Y0214909D02*
X0056794Y0214909D01*
X0056964Y0215078D02*
X0057355Y0215665D01*
X0057625Y0216316D01*
X0057763Y0217008D01*
X0057763Y0217361D01*
X0054182Y0217361D01*
X0054182Y0217361D01*
X0057763Y0217361D01*
X0057763Y0217714D01*
X0057625Y0218406D01*
X0057355Y0219057D01*
X0056964Y0219644D01*
X0056465Y0220143D01*
X0055878Y0220535D01*
X0055226Y0220804D01*
X0054535Y0220942D01*
X0054182Y0220942D01*
X0054182Y0217361D01*
X0054182Y0213780D01*
X0054535Y0213780D01*
X0055226Y0213918D01*
X0055878Y0214187D01*
X0056465Y0214579D01*
X0056964Y0215078D01*
X0057663Y0216507D02*
X0069323Y0216507D01*
X0069301Y0218106D02*
X0057685Y0218106D01*
X0056903Y0219704D02*
X0064698Y0219704D01*
X0064015Y0221303D02*
X0046700Y0221303D01*
X0046700Y0222901D02*
X0064190Y0222901D01*
X0065302Y0224500D02*
X0046700Y0224500D01*
X0046700Y0219704D02*
X0051461Y0219704D01*
X0051400Y0219644D02*
X0051008Y0219057D01*
X0050738Y0218406D01*
X0050601Y0217714D01*
X0050601Y0217361D01*
X0050601Y0217008D01*
X0050738Y0216316D01*
X0051008Y0215665D01*
X0051400Y0215078D01*
X0051899Y0214579D01*
X0052486Y0214187D01*
X0053137Y0213918D01*
X0053829Y0213780D01*
X0054182Y0213780D01*
X0054182Y0217361D01*
X0054182Y0217361D01*
X0054182Y0217361D01*
X0054182Y0220942D01*
X0053829Y0220942D01*
X0053137Y0220804D01*
X0052486Y0220535D01*
X0051899Y0220143D01*
X0051400Y0219644D01*
X0050679Y0218106D02*
X0046700Y0218106D01*
X0046700Y0216507D02*
X0050700Y0216507D01*
X0050601Y0217361D02*
X0054182Y0217361D01*
X0054182Y0217361D01*
X0050601Y0217361D01*
X0051570Y0214909D02*
X0046700Y0214909D01*
X0054182Y0214909D02*
X0054182Y0214909D01*
X0054182Y0216507D02*
X0054182Y0216507D01*
X0054182Y0218106D02*
X0054182Y0218106D01*
X0054182Y0219704D02*
X0054182Y0219704D01*
X0076296Y0182938D02*
X0113050Y0182938D01*
X0113050Y0181340D02*
X0075469Y0181340D01*
X0046700Y0302827D02*
X0180099Y0302827D01*
X0178983Y0304425D02*
X0046700Y0304425D01*
X0046700Y0306024D02*
X0178465Y0306024D01*
X0178465Y0307622D02*
X0046700Y0307622D01*
X0046700Y0309221D02*
X0179002Y0309221D01*
X0180145Y0310819D02*
X0046700Y0310819D01*
X0131670Y0390745D02*
X0157886Y0390745D01*
X0162447Y0390745D02*
X0168840Y0390745D01*
X0167951Y0392343D02*
X0132085Y0392343D01*
X0131738Y0393942D02*
X0167736Y0393942D01*
X0168112Y0395540D02*
X0162133Y0395540D01*
X0158199Y0395540D02*
X0130065Y0395540D01*
X0130606Y0400336D02*
X0152182Y0400336D01*
X0151520Y0401934D02*
X0138401Y0401934D01*
X0139175Y0403533D02*
X0151239Y0403533D01*
X0151239Y0405131D02*
X0142732Y0405131D01*
X0142864Y0405158D02*
X0143516Y0405428D01*
X0144102Y0405820D01*
X0144601Y0406318D01*
X0144993Y0406905D01*
X0145263Y0407557D01*
X0145401Y0408248D01*
X0145401Y0408601D01*
X0141820Y0408601D01*
X0141820Y0408601D01*
X0141820Y0405020D01*
X0142172Y0405020D01*
X0142864Y0405158D01*
X0141820Y0405131D02*
X0141820Y0405131D01*
X0141820Y0405020D02*
X0141820Y0408601D01*
X0141820Y0408601D01*
X0145401Y0408601D01*
X0145401Y0408954D01*
X0145263Y0409646D01*
X0144993Y0410297D01*
X0144601Y0410884D01*
X0144102Y0411383D01*
X0143516Y0411775D01*
X0142864Y0412045D01*
X0142172Y0412182D01*
X0141820Y0412182D01*
X0141820Y0408601D01*
X0141820Y0408601D01*
X0138239Y0408601D01*
X0138239Y0408248D01*
X0138376Y0407557D01*
X0138646Y0406905D01*
X0139038Y0406318D01*
X0139537Y0405820D01*
X0140123Y0405428D01*
X0140775Y0405158D01*
X0141467Y0405020D01*
X0141820Y0405020D01*
X0140907Y0405131D02*
X0139044Y0405131D01*
X0139220Y0404074D02*
X0137058Y0404074D01*
X0137058Y0404074D01*
X0139220Y0404074D01*
X0138763Y0406730D02*
X0138245Y0406730D01*
X0138239Y0408328D02*
X0137936Y0408328D01*
X0138239Y0408601D02*
X0141820Y0408601D01*
X0141820Y0408601D01*
X0141820Y0412182D01*
X0141467Y0412182D01*
X0140775Y0412045D01*
X0140123Y0411775D01*
X0139537Y0411383D01*
X0139038Y0410884D01*
X0138646Y0410297D01*
X0138376Y0409646D01*
X0138239Y0408954D01*
X0138239Y0408601D01*
X0138493Y0409927D02*
X0136716Y0409927D01*
X0139750Y0411525D02*
X0110267Y0411525D01*
X0111525Y0409927D02*
X0113301Y0409927D01*
X0112081Y0408328D02*
X0111779Y0408328D01*
X0111285Y0406730D02*
X0111254Y0406730D01*
X0108198Y0406730D02*
X0108198Y0406730D01*
X0108198Y0408328D02*
X0108198Y0408328D01*
X0108198Y0409927D02*
X0108198Y0409927D01*
X0108198Y0411525D02*
X0108198Y0411525D01*
X0108198Y0424314D02*
X0108198Y0424314D01*
X0108198Y0425912D02*
X0108198Y0425912D01*
X0108198Y0427511D02*
X0108198Y0427511D01*
X0108198Y0429109D02*
X0108198Y0429109D01*
X0111245Y0429109D02*
X0138773Y0429109D01*
X0138239Y0427511D02*
X0111779Y0427511D01*
X0111531Y0425912D02*
X0138487Y0425912D01*
X0139728Y0424314D02*
X0110289Y0424314D01*
X0124118Y0409927D02*
X0125900Y0409927D01*
X0132883Y0401867D02*
X0132883Y0400886D01*
X0132883Y0401867D01*
X0132883Y0401867D01*
X0136032Y0401934D02*
X0136032Y0401934D01*
X0141820Y0406730D02*
X0141820Y0406730D01*
X0141820Y0408328D02*
X0141820Y0408328D01*
X0141820Y0409927D02*
X0141820Y0409927D01*
X0141820Y0411525D02*
X0141820Y0411525D01*
X0143889Y0411525D02*
X0154678Y0411525D01*
X0153079Y0409927D02*
X0145147Y0409927D01*
X0145401Y0408328D02*
X0152135Y0408328D01*
X0151473Y0406730D02*
X0144876Y0406730D01*
X0143911Y0424314D02*
X0240115Y0424314D01*
X0240006Y0424369D02*
X0240797Y0423966D01*
X0241641Y0423692D01*
X0242482Y0423559D01*
X0242482Y0428712D01*
X0237328Y0428712D01*
X0237462Y0427871D01*
X0237736Y0427027D01*
X0238139Y0426236D01*
X0238661Y0425518D01*
X0239288Y0424891D01*
X0240006Y0424369D01*
X0238375Y0425912D02*
X0145153Y0425912D01*
X0145401Y0427511D02*
X0237579Y0427511D01*
X0242482Y0427511D02*
X0243441Y0427511D01*
X0243441Y0429109D02*
X0256723Y0429109D01*
X0256837Y0430708D02*
X0248398Y0430708D01*
X0247668Y0432306D02*
X0257499Y0432306D01*
X0258852Y0433905D02*
X0246068Y0433905D01*
X0243441Y0433905D02*
X0242482Y0433905D01*
X0242482Y0432306D02*
X0243441Y0432306D01*
X0243441Y0430708D02*
X0242482Y0430708D01*
X0242482Y0429109D02*
X0144867Y0429109D01*
X0141820Y0429109D02*
X0141820Y0429109D01*
X0141820Y0427511D02*
X0141820Y0427511D01*
X0141820Y0425912D02*
X0141820Y0425912D01*
X0141820Y0424314D02*
X0141820Y0424314D01*
X0128860Y0400336D02*
X0127457Y0400336D01*
X0125710Y0400336D02*
X0124307Y0400336D01*
X0122561Y0400336D02*
X0121158Y0400336D01*
X0119411Y0400336D02*
X0114858Y0400336D01*
X0117135Y0400886D02*
X0117135Y0401867D01*
X0117135Y0400886D01*
X0117135Y0401867D02*
X0117135Y0401867D01*
X0117135Y0401867D01*
X0165672Y0389146D02*
X0179765Y0389146D01*
X0179003Y0387548D02*
X0174069Y0387548D01*
X0175986Y0385949D02*
X0177611Y0385949D01*
X0176979Y0384351D02*
X0176676Y0384351D01*
X0176722Y0382752D02*
X0176979Y0382752D01*
X0177489Y0381154D02*
X0176175Y0381154D01*
X0174639Y0379555D02*
X0178708Y0379555D01*
X0185482Y0379555D02*
X0186583Y0379555D01*
X0193356Y0379555D02*
X0196425Y0379555D01*
X0195206Y0381154D02*
X0194575Y0381154D01*
X0194453Y0385949D02*
X0195328Y0385949D01*
X0196719Y0387548D02*
X0193062Y0387548D01*
X0192299Y0389146D02*
X0197482Y0389146D01*
X0195550Y0390745D02*
X0194231Y0390745D01*
X0194753Y0395540D02*
X0195028Y0395540D01*
X0195996Y0397139D02*
X0193786Y0397139D01*
X0186153Y0397139D02*
X0185912Y0397139D01*
X0178279Y0397139D02*
X0175221Y0397139D01*
X0176394Y0395540D02*
X0177311Y0395540D01*
X0176979Y0393942D02*
X0176769Y0393942D01*
X0176555Y0392343D02*
X0177127Y0392343D01*
X0177834Y0390745D02*
X0175666Y0390745D01*
X0170436Y0387548D02*
X0167270Y0387548D01*
X0168204Y0385949D02*
X0168519Y0385949D01*
X0184425Y0389146D02*
X0187639Y0389146D01*
X0186877Y0387548D02*
X0185188Y0387548D01*
X0202142Y0389146D02*
X0206393Y0389146D01*
X0204794Y0387548D02*
X0202904Y0387548D01*
X0204073Y0390745D02*
X0209618Y0390745D01*
X0214179Y0390745D02*
X0278546Y0390745D01*
X0278390Y0392343D02*
X0204780Y0392343D01*
X0204928Y0393942D02*
X0279119Y0393942D01*
X0279631Y0389146D02*
X0217404Y0389146D01*
X0209931Y0395540D02*
X0204596Y0395540D01*
X0203628Y0397139D02*
X0206523Y0397139D01*
X0214138Y0413124D02*
X0238620Y0413124D01*
X0237689Y0411525D02*
X0217387Y0411525D01*
X0242482Y0424314D02*
X0243441Y0424314D01*
X0243441Y0425912D02*
X0242482Y0425912D01*
X0245807Y0424314D02*
X0259017Y0424314D01*
X0257567Y0425912D02*
X0247548Y0425912D01*
X0248344Y0427511D02*
X0256905Y0427511D01*
X0266568Y0414722D02*
X0294850Y0414722D01*
X0294850Y0413124D02*
X0268167Y0413124D01*
X0268878Y0411525D02*
X0294850Y0411525D01*
X0294850Y0409927D02*
X0269200Y0409927D01*
X0269200Y0408328D02*
X0294850Y0408328D01*
X0294850Y0406730D02*
X0268564Y0406730D01*
X0267409Y0405131D02*
X0294850Y0405131D01*
X0294850Y0403533D02*
X0264842Y0403533D01*
X0298050Y0403533D02*
X0335884Y0403533D01*
X0336524Y0403268D02*
X0339005Y0403268D01*
X0341298Y0404218D01*
X0343053Y0405973D01*
X0344003Y0408266D01*
X0344003Y0410748D01*
X0343053Y0413041D01*
X0341298Y0414795D01*
X0339005Y0415745D01*
X0336524Y0415745D01*
X0334231Y0414795D01*
X0332476Y0413041D01*
X0331526Y0410748D01*
X0331526Y0408266D01*
X0332476Y0405973D01*
X0334231Y0404218D01*
X0336524Y0403268D01*
X0339645Y0403533D02*
X0381031Y0403533D01*
X0381413Y0402610D02*
X0383860Y0400163D01*
X0387058Y0398839D01*
X0390519Y0398839D01*
X0393716Y0400163D01*
X0396163Y0402610D01*
X0397487Y0405808D01*
X0397487Y0409269D01*
X0396163Y0412466D01*
X0393716Y0414913D01*
X0390519Y0416237D01*
X0387058Y0416237D01*
X0383860Y0414913D01*
X0381413Y0412466D01*
X0380089Y0409269D01*
X0380089Y0405808D01*
X0381413Y0402610D01*
X0382089Y0401934D02*
X0298050Y0401934D01*
X0298050Y0400336D02*
X0383688Y0400336D01*
X0380369Y0405131D02*
X0342212Y0405131D01*
X0343367Y0406730D02*
X0380089Y0406730D01*
X0380089Y0408328D02*
X0344003Y0408328D01*
X0344003Y0409927D02*
X0380362Y0409927D01*
X0381024Y0411525D02*
X0343681Y0411525D01*
X0342970Y0413124D02*
X0382071Y0413124D01*
X0383670Y0414722D02*
X0341371Y0414722D01*
X0334158Y0414722D02*
X0319948Y0414722D01*
X0319929Y0414732D02*
X0319085Y0415006D01*
X0318244Y0415140D01*
X0318244Y0409986D01*
X0323397Y0409986D01*
X0323264Y0410827D01*
X0322990Y0411671D01*
X0322587Y0412462D01*
X0322065Y0413180D01*
X0321438Y0413808D01*
X0320720Y0414329D01*
X0319929Y0414732D01*
X0318244Y0414722D02*
X0317285Y0414722D01*
X0317285Y0415140D02*
X0316444Y0415006D01*
X0315600Y0414732D01*
X0314809Y0414329D01*
X0314091Y0413808D01*
X0313464Y0413180D01*
X0312942Y0412462D01*
X0312539Y0411671D01*
X0312265Y0410827D01*
X0312132Y0409986D01*
X0317285Y0409986D01*
X0317285Y0409027D01*
X0318244Y0409027D01*
X0318244Y0403874D01*
X0319085Y0404007D01*
X0319929Y0404281D01*
X0320720Y0404684D01*
X0321438Y0405206D01*
X0322065Y0405833D01*
X0322587Y0406551D01*
X0322990Y0407342D01*
X0323264Y0408186D01*
X0323397Y0409027D01*
X0318244Y0409027D01*
X0318244Y0409986D01*
X0317285Y0409986D01*
X0317285Y0415140D01*
X0315581Y0414722D02*
X0298050Y0414722D01*
X0298050Y0413124D02*
X0313423Y0413124D01*
X0312492Y0411525D02*
X0298050Y0411525D01*
X0298050Y0409927D02*
X0317285Y0409927D01*
X0317285Y0409027D02*
X0312132Y0409027D01*
X0312265Y0408186D01*
X0312539Y0407342D01*
X0312942Y0406551D01*
X0313464Y0405833D01*
X0314091Y0405206D01*
X0314809Y0404684D01*
X0315600Y0404281D01*
X0316444Y0404007D01*
X0317285Y0403874D01*
X0317285Y0409027D01*
X0317285Y0408328D02*
X0318244Y0408328D01*
X0318244Y0406730D02*
X0317285Y0406730D01*
X0317285Y0405131D02*
X0318244Y0405131D01*
X0321335Y0405131D02*
X0333317Y0405131D01*
X0332162Y0406730D02*
X0322678Y0406730D01*
X0323287Y0408328D02*
X0331526Y0408328D01*
X0331526Y0409927D02*
X0318244Y0409927D01*
X0318244Y0411525D02*
X0317285Y0411525D01*
X0317285Y0413124D02*
X0318244Y0413124D01*
X0322106Y0413124D02*
X0332559Y0413124D01*
X0331848Y0411525D02*
X0323037Y0411525D01*
X0314194Y0405131D02*
X0298050Y0405131D01*
X0298050Y0406730D02*
X0312851Y0406730D01*
X0312242Y0408328D02*
X0298050Y0408328D01*
X0298050Y0416321D02*
X0415916Y0416321D01*
X0415916Y0417920D02*
X0298050Y0417920D01*
X0298050Y0419518D02*
X0415916Y0419518D01*
X0415916Y0421117D02*
X0298050Y0421117D01*
X0298050Y0422715D02*
X0415916Y0422715D01*
X0415916Y0424314D02*
X0341709Y0424314D01*
X0341298Y0423903D02*
X0343053Y0425658D01*
X0344003Y0427951D01*
X0344003Y0430433D01*
X0343053Y0432726D01*
X0341298Y0434481D01*
X0339005Y0435430D01*
X0336524Y0435430D01*
X0334231Y0434481D01*
X0332476Y0432726D01*
X0331526Y0430433D01*
X0331526Y0427951D01*
X0332476Y0425658D01*
X0334231Y0423903D01*
X0336524Y0422953D01*
X0339005Y0422953D01*
X0341298Y0423903D01*
X0343159Y0425912D02*
X0415864Y0425912D01*
X0415916Y0425255D02*
X0415916Y0234925D01*
X0389300Y0234925D01*
X0389300Y0383675D01*
X0298050Y0383675D01*
X0298050Y0434666D01*
X0306588Y0434666D01*
X0307471Y0435031D01*
X0308146Y0435706D01*
X0308511Y0436588D01*
X0308511Y0442540D01*
X0347018Y0442540D01*
X0347018Y0436588D01*
X0347383Y0435706D01*
X0348059Y0435031D01*
X0348941Y0434666D01*
X0406505Y0434666D01*
X0407977Y0434550D01*
X0410777Y0433640D01*
X0413159Y0431909D01*
X0414890Y0429527D01*
X0415800Y0426727D01*
X0415916Y0425255D01*
X0415545Y0427511D02*
X0343821Y0427511D01*
X0344003Y0429109D02*
X0415026Y0429109D01*
X0414032Y0430708D02*
X0343889Y0430708D01*
X0343227Y0432306D02*
X0412613Y0432306D01*
X0409963Y0433905D02*
X0341874Y0433905D01*
X0347018Y0437102D02*
X0308511Y0437102D01*
X0308511Y0438700D02*
X0347018Y0438700D01*
X0347018Y0440299D02*
X0308511Y0440299D01*
X0308511Y0441897D02*
X0347018Y0441897D01*
X0347587Y0435503D02*
X0307943Y0435503D01*
X0312942Y0432147D02*
X0312539Y0431356D01*
X0312265Y0430512D01*
X0312132Y0429671D01*
X0317285Y0429671D01*
X0317285Y0428712D01*
X0318244Y0428712D01*
X0318244Y0423559D01*
X0319085Y0423692D01*
X0319929Y0423966D01*
X0320720Y0424369D01*
X0321438Y0424891D01*
X0322065Y0425518D01*
X0322587Y0426236D01*
X0322990Y0427027D01*
X0323264Y0427871D01*
X0323397Y0428712D01*
X0318244Y0428712D01*
X0318244Y0429671D01*
X0323397Y0429671D01*
X0323264Y0430512D01*
X0322990Y0431356D01*
X0322587Y0432147D01*
X0322065Y0432865D01*
X0321438Y0433493D01*
X0320720Y0434014D01*
X0319929Y0434417D01*
X0319085Y0434691D01*
X0318244Y0434825D01*
X0318244Y0429671D01*
X0317285Y0429671D01*
X0317285Y0434825D01*
X0316444Y0434691D01*
X0315600Y0434417D01*
X0314809Y0434014D01*
X0314091Y0433493D01*
X0313464Y0432865D01*
X0312942Y0432147D01*
X0313058Y0432306D02*
X0298050Y0432306D01*
X0298050Y0430708D02*
X0312328Y0430708D01*
X0312132Y0428712D02*
X0312265Y0427871D01*
X0312539Y0427027D01*
X0312942Y0426236D01*
X0313464Y0425518D01*
X0314091Y0424891D01*
X0314809Y0424369D01*
X0315600Y0423966D01*
X0316444Y0423692D01*
X0317285Y0423559D01*
X0317285Y0428712D01*
X0312132Y0428712D01*
X0312382Y0427511D02*
X0298050Y0427511D01*
X0298050Y0429109D02*
X0317285Y0429109D01*
X0318244Y0429109D02*
X0331526Y0429109D01*
X0331640Y0430708D02*
X0323201Y0430708D01*
X0322471Y0432306D02*
X0332302Y0432306D01*
X0333655Y0433905D02*
X0320871Y0433905D01*
X0318244Y0433905D02*
X0317285Y0433905D01*
X0317285Y0432306D02*
X0318244Y0432306D01*
X0318244Y0430708D02*
X0317285Y0430708D01*
X0317285Y0427511D02*
X0318244Y0427511D01*
X0318244Y0425912D02*
X0317285Y0425912D01*
X0317285Y0424314D02*
X0318244Y0424314D01*
X0320611Y0424314D02*
X0333820Y0424314D01*
X0332370Y0425912D02*
X0322351Y0425912D01*
X0323147Y0427511D02*
X0331708Y0427511D01*
X0314918Y0424314D02*
X0298050Y0424314D01*
X0298050Y0425912D02*
X0313178Y0425912D01*
X0314658Y0433905D02*
X0298050Y0433905D01*
X0298050Y0398737D02*
X0415916Y0398737D01*
X0415916Y0397139D02*
X0298050Y0397139D01*
X0298050Y0395540D02*
X0355410Y0395540D01*
X0354868Y0395316D02*
X0353909Y0394357D01*
X0353390Y0393103D01*
X0353390Y0391747D01*
X0353909Y0390493D01*
X0354868Y0389534D01*
X0356122Y0389015D01*
X0357478Y0389015D01*
X0358732Y0389534D01*
X0359691Y0390493D01*
X0360210Y0391747D01*
X0360210Y0393103D01*
X0359691Y0394357D01*
X0358732Y0395316D01*
X0357478Y0395835D01*
X0356122Y0395835D01*
X0354868Y0395316D01*
X0353737Y0393942D02*
X0298050Y0393942D01*
X0298050Y0392343D02*
X0353390Y0392343D01*
X0353805Y0390745D02*
X0298050Y0390745D01*
X0298050Y0389146D02*
X0355804Y0389146D01*
X0357796Y0389146D02*
X0415916Y0389146D01*
X0415916Y0387548D02*
X0298050Y0387548D01*
X0298050Y0385949D02*
X0415916Y0385949D01*
X0415916Y0384351D02*
X0298050Y0384351D01*
X0281700Y0358775D02*
X0322926Y0358775D01*
X0322400Y0357176D02*
X0281700Y0357176D01*
X0281093Y0355578D02*
X0322516Y0355578D01*
X0323346Y0353979D02*
X0279724Y0353979D01*
X0273561Y0353979D02*
X0258786Y0353979D01*
X0257043Y0353979D02*
X0256872Y0353979D01*
X0256872Y0355578D02*
X0257043Y0355578D01*
X0257043Y0357176D02*
X0256872Y0357176D01*
X0257043Y0358136D02*
X0261415Y0358136D01*
X0261415Y0358401D01*
X0261305Y0359094D01*
X0261088Y0359761D01*
X0260770Y0360386D01*
X0260357Y0360954D01*
X0259861Y0361450D01*
X0259294Y0361862D01*
X0258669Y0362181D01*
X0258001Y0362398D01*
X0257308Y0362507D01*
X0257043Y0362507D01*
X0257043Y0358136D01*
X0257043Y0358775D02*
X0256872Y0358775D01*
X0256872Y0360373D02*
X0257043Y0360373D01*
X0257043Y0361972D02*
X0256872Y0361972D01*
X0259079Y0361972D02*
X0273412Y0361972D01*
X0272131Y0360373D02*
X0260777Y0360373D01*
X0261356Y0358775D02*
X0271585Y0358775D01*
X0271585Y0357176D02*
X0261332Y0357176D01*
X0260671Y0355578D02*
X0272192Y0355578D01*
X0291223Y0344388D02*
X0188550Y0344388D01*
X0188430Y0344154D02*
X0188791Y0344862D01*
X0189037Y0345618D01*
X0189161Y0346403D01*
X0189161Y0346517D01*
X0184396Y0346517D01*
X0184396Y0347083D01*
X0183830Y0347083D01*
X0183830Y0346517D01*
X0184396Y0346517D01*
X0184396Y0341752D01*
X0184510Y0341752D01*
X0185295Y0341876D01*
X0186051Y0342122D01*
X0186759Y0342483D01*
X0187402Y0342950D01*
X0187963Y0343511D01*
X0188430Y0344154D01*
X0187181Y0342789D02*
X0290753Y0342789D01*
X0292622Y0345987D02*
X0189095Y0345987D01*
X0189161Y0347083D02*
X0189161Y0347197D01*
X0189037Y0347982D01*
X0188791Y0348738D01*
X0188430Y0349446D01*
X0187963Y0350089D01*
X0187402Y0350650D01*
X0186759Y0351117D01*
X0186051Y0351478D01*
X0185295Y0351724D01*
X0184510Y0351848D01*
X0184396Y0351848D01*
X0184396Y0347083D01*
X0189161Y0347083D01*
X0189100Y0347585D02*
X0386100Y0347585D01*
X0386100Y0345987D02*
X0297228Y0345987D01*
X0298627Y0344388D02*
X0386100Y0344388D01*
X0386100Y0342789D02*
X0299097Y0342789D01*
X0298929Y0341191D02*
X0386100Y0341191D01*
X0386100Y0339592D02*
X0297992Y0339592D01*
X0326574Y0353979D02*
X0326574Y0353979D01*
X0326574Y0355578D02*
X0326574Y0355578D01*
X0326574Y0357176D02*
X0326574Y0357176D01*
X0326574Y0358775D02*
X0326574Y0358775D01*
X0348732Y0352381D02*
X0386100Y0352381D01*
X0386100Y0353979D02*
X0350650Y0353979D01*
X0351312Y0355578D02*
X0386100Y0355578D01*
X0386100Y0357176D02*
X0351374Y0357176D01*
X0350902Y0358775D02*
X0386100Y0358775D01*
X0386100Y0360373D02*
X0349671Y0360373D01*
X0359795Y0390745D02*
X0415916Y0390745D01*
X0415916Y0392343D02*
X0360210Y0392343D01*
X0359863Y0393942D02*
X0415916Y0393942D01*
X0415916Y0395540D02*
X0358190Y0395540D01*
X0389300Y0382752D02*
X0415916Y0382752D01*
X0415916Y0381154D02*
X0389300Y0381154D01*
X0389300Y0379555D02*
X0415916Y0379555D01*
X0415916Y0377957D02*
X0389300Y0377957D01*
X0389300Y0376358D02*
X0415916Y0376358D01*
X0415916Y0374760D02*
X0389300Y0374760D01*
X0389300Y0373161D02*
X0415916Y0373161D01*
X0415916Y0371563D02*
X0389300Y0371563D01*
X0389300Y0369964D02*
X0415916Y0369964D01*
X0415916Y0368366D02*
X0389300Y0368366D01*
X0389300Y0366767D02*
X0415916Y0366767D01*
X0415916Y0365169D02*
X0389300Y0365169D01*
X0389300Y0363570D02*
X0415916Y0363570D01*
X0415916Y0361972D02*
X0389300Y0361972D01*
X0389300Y0360373D02*
X0415916Y0360373D01*
X0415916Y0358775D02*
X0389300Y0358775D01*
X0389300Y0357176D02*
X0415916Y0357176D01*
X0415916Y0355578D02*
X0389300Y0355578D01*
X0389300Y0353979D02*
X0415916Y0353979D01*
X0415916Y0352381D02*
X0389300Y0352381D01*
X0389300Y0350782D02*
X0415916Y0350782D01*
X0415916Y0349184D02*
X0389300Y0349184D01*
X0389300Y0347585D02*
X0415916Y0347585D01*
X0415916Y0345987D02*
X0389300Y0345987D01*
X0389300Y0344388D02*
X0415916Y0344388D01*
X0415916Y0342789D02*
X0389300Y0342789D01*
X0389300Y0341191D02*
X0415916Y0341191D01*
X0415916Y0339592D02*
X0389300Y0339592D01*
X0389300Y0337994D02*
X0415916Y0337994D01*
X0415916Y0336395D02*
X0389300Y0336395D01*
X0389300Y0334797D02*
X0415916Y0334797D01*
X0415916Y0333198D02*
X0389300Y0333198D01*
X0389300Y0331600D02*
X0415916Y0331600D01*
X0415916Y0330001D02*
X0389300Y0330001D01*
X0389300Y0328403D02*
X0415916Y0328403D01*
X0415916Y0326804D02*
X0389300Y0326804D01*
X0389300Y0325206D02*
X0415916Y0325206D01*
X0415916Y0323607D02*
X0389300Y0323607D01*
X0389300Y0322009D02*
X0415916Y0322009D01*
X0415916Y0320410D02*
X0389300Y0320410D01*
X0389300Y0318812D02*
X0415916Y0318812D01*
X0415916Y0294834D02*
X0389300Y0294834D01*
X0389300Y0293236D02*
X0415916Y0293236D01*
X0415916Y0291637D02*
X0389300Y0291637D01*
X0389300Y0290039D02*
X0415916Y0290039D01*
X0415916Y0288440D02*
X0389300Y0288440D01*
X0389300Y0286842D02*
X0415916Y0286842D01*
X0415916Y0285243D02*
X0389300Y0285243D01*
X0389300Y0283645D02*
X0415916Y0283645D01*
X0415916Y0282046D02*
X0389300Y0282046D01*
X0389300Y0280448D02*
X0415916Y0280448D01*
X0415916Y0278849D02*
X0389300Y0278849D01*
X0389300Y0277251D02*
X0415916Y0277251D01*
X0415916Y0275652D02*
X0389300Y0275652D01*
X0389300Y0274053D02*
X0403464Y0274053D01*
X0403690Y0274218D02*
X0402934Y0273669D01*
X0402274Y0273008D01*
X0401725Y0272253D01*
X0401301Y0271420D01*
X0401012Y0270532D01*
X0400884Y0269720D01*
X0406222Y0269720D01*
X0406222Y0268565D01*
X0400884Y0268565D01*
X0401012Y0267753D01*
X0401301Y0266865D01*
X0401725Y0266032D01*
X0402274Y0265277D01*
X0402934Y0264616D01*
X0403690Y0264067D01*
X0404522Y0263643D01*
X0405410Y0263355D01*
X0406222Y0263226D01*
X0406222Y0268564D01*
X0407378Y0268564D01*
X0407378Y0263226D01*
X0408190Y0263355D01*
X0409078Y0263643D01*
X0409910Y0264067D01*
X0410666Y0264616D01*
X0411326Y0265277D01*
X0411875Y0266032D01*
X0412299Y0266865D01*
X0412588Y0267753D01*
X0412716Y0268565D01*
X0407378Y0268565D01*
X0407378Y0269720D01*
X0412716Y0269720D01*
X0412588Y0270532D01*
X0412299Y0271420D01*
X0411875Y0272253D01*
X0411326Y0273008D01*
X0410666Y0273669D01*
X0409910Y0274218D01*
X0409078Y0274642D01*
X0408190Y0274930D01*
X0407378Y0275059D01*
X0407378Y0269721D01*
X0406222Y0269721D01*
X0406222Y0275059D01*
X0405410Y0274930D01*
X0404522Y0274642D01*
X0403690Y0274218D01*
X0401872Y0272455D02*
X0389300Y0272455D01*
X0389300Y0270856D02*
X0401118Y0270856D01*
X0401043Y0267659D02*
X0389300Y0267659D01*
X0389300Y0266061D02*
X0401710Y0266061D01*
X0403146Y0264462D02*
X0389300Y0264462D01*
X0389300Y0262864D02*
X0415916Y0262864D01*
X0415916Y0264462D02*
X0410454Y0264462D01*
X0411890Y0266061D02*
X0415916Y0266061D01*
X0415916Y0267659D02*
X0412557Y0267659D01*
X0412482Y0270856D02*
X0415916Y0270856D01*
X0415916Y0269258D02*
X0407378Y0269258D01*
X0406222Y0269258D02*
X0389300Y0269258D01*
X0389300Y0261265D02*
X0415916Y0261265D01*
X0415916Y0259667D02*
X0389300Y0259667D01*
X0389300Y0258068D02*
X0415916Y0258068D01*
X0415916Y0256470D02*
X0389300Y0256470D01*
X0389300Y0254871D02*
X0402974Y0254871D01*
X0403099Y0254997D02*
X0401261Y0253159D01*
X0400266Y0250757D01*
X0400266Y0248158D01*
X0401261Y0245756D01*
X0403099Y0243918D01*
X0405500Y0242924D01*
X0408100Y0242924D01*
X0410501Y0243918D01*
X0412339Y0245756D01*
X0413334Y0248158D01*
X0413334Y0250757D01*
X0412339Y0253159D01*
X0410501Y0254997D01*
X0408100Y0255991D01*
X0405500Y0255991D01*
X0403099Y0254997D01*
X0401375Y0253273D02*
X0389300Y0253273D01*
X0389300Y0251674D02*
X0400646Y0251674D01*
X0400266Y0250076D02*
X0389300Y0250076D01*
X0389300Y0248477D02*
X0400266Y0248477D01*
X0400796Y0246879D02*
X0389300Y0246879D01*
X0389300Y0245280D02*
X0401737Y0245280D01*
X0403670Y0243682D02*
X0389300Y0243682D01*
X0389300Y0242083D02*
X0415916Y0242083D01*
X0415916Y0240485D02*
X0389300Y0240485D01*
X0389300Y0238886D02*
X0415916Y0238886D01*
X0415916Y0237288D02*
X0389300Y0237288D01*
X0389300Y0235689D02*
X0415916Y0235689D01*
X0415916Y0243682D02*
X0409930Y0243682D01*
X0411863Y0245280D02*
X0415916Y0245280D01*
X0415916Y0246879D02*
X0412804Y0246879D01*
X0413334Y0248477D02*
X0415916Y0248477D01*
X0415916Y0250076D02*
X0413334Y0250076D01*
X0412954Y0251674D02*
X0415916Y0251674D01*
X0415916Y0253273D02*
X0412225Y0253273D01*
X0410626Y0254871D02*
X0415916Y0254871D01*
X0407378Y0264462D02*
X0406222Y0264462D01*
X0406222Y0266061D02*
X0407378Y0266061D01*
X0407378Y0267659D02*
X0406222Y0267659D01*
X0406222Y0270856D02*
X0407378Y0270856D01*
X0407378Y0272455D02*
X0406222Y0272455D01*
X0406222Y0274053D02*
X0407378Y0274053D01*
X0410136Y0274053D02*
X0415916Y0274053D01*
X0415916Y0272455D02*
X0411728Y0272455D01*
X0386100Y0304425D02*
X0330835Y0304425D01*
X0330661Y0306024D02*
X0386100Y0306024D01*
X0386100Y0307622D02*
X0329551Y0307622D01*
X0330149Y0302827D02*
X0382379Y0302827D01*
X0376555Y0301228D02*
X0375795Y0301228D01*
X0375757Y0294834D02*
X0376593Y0294834D01*
X0375109Y0315615D02*
X0330210Y0315615D01*
X0329802Y0317213D02*
X0374640Y0317213D01*
X0386100Y0330001D02*
X0226074Y0330001D01*
X0225607Y0329534D02*
X0226566Y0330493D01*
X0227085Y0331747D01*
X0227085Y0333103D01*
X0226719Y0333988D01*
X0227085Y0334872D01*
X0227085Y0336228D01*
X0226566Y0337482D01*
X0225607Y0338441D01*
X0224353Y0338960D01*
X0222997Y0338960D01*
X0222112Y0338594D01*
X0221228Y0338960D01*
X0219872Y0338960D01*
X0218987Y0338594D01*
X0218103Y0338960D01*
X0216747Y0338960D01*
X0215493Y0338441D01*
X0214534Y0337482D01*
X0214015Y0336228D01*
X0214015Y0334872D01*
X0214381Y0333988D01*
X0214015Y0333103D01*
X0214015Y0331747D01*
X0214534Y0330493D01*
X0215493Y0329534D01*
X0216747Y0329015D01*
X0218103Y0329015D01*
X0218987Y0329381D01*
X0219872Y0329015D01*
X0221228Y0329015D01*
X0222112Y0329381D01*
X0222997Y0329015D01*
X0224353Y0329015D01*
X0225607Y0329534D01*
X0227024Y0331600D02*
X0386100Y0331600D01*
X0386100Y0333198D02*
X0227046Y0333198D01*
X0227054Y0334797D02*
X0386100Y0334797D01*
X0386100Y0336395D02*
X0227016Y0336395D01*
X0226054Y0337994D02*
X0386100Y0337994D01*
X0386100Y0349184D02*
X0188564Y0349184D01*
X0187220Y0350782D02*
X0386100Y0350782D01*
X0393888Y0400336D02*
X0415916Y0400336D01*
X0415916Y0401934D02*
X0395487Y0401934D01*
X0396545Y0403533D02*
X0415916Y0403533D01*
X0415916Y0405131D02*
X0397207Y0405131D01*
X0397487Y0406730D02*
X0415916Y0406730D01*
X0415916Y0408328D02*
X0397487Y0408328D01*
X0397215Y0409927D02*
X0415916Y0409927D01*
X0415916Y0411525D02*
X0396553Y0411525D01*
X0395505Y0413124D02*
X0415916Y0413124D01*
X0415916Y0414722D02*
X0393906Y0414722D01*
X0304194Y0312418D02*
X0281906Y0312418D01*
X0283253Y0310819D02*
X0302847Y0310819D01*
X0302185Y0309221D02*
X0283915Y0309221D01*
X0283934Y0307622D02*
X0302166Y0307622D01*
X0302540Y0306024D02*
X0283560Y0306024D01*
X0282649Y0304425D02*
X0303451Y0304425D01*
X0273923Y0304425D02*
X0227272Y0304425D01*
X0225674Y0306024D02*
X0273012Y0306024D01*
X0215026Y0330001D02*
X0168574Y0330001D01*
X0169524Y0331600D02*
X0214076Y0331600D01*
X0214054Y0333198D02*
X0169546Y0333198D01*
X0169554Y0334797D02*
X0214046Y0334797D01*
X0214084Y0336395D02*
X0169516Y0336395D01*
X0168554Y0337994D02*
X0215046Y0337994D01*
X0197400Y0310819D02*
X0188081Y0310819D01*
X0189224Y0309221D02*
X0197400Y0309221D01*
X0197991Y0307622D02*
X0189761Y0307622D01*
X0189761Y0306024D02*
X0199479Y0306024D01*
X0201077Y0304425D02*
X0189243Y0304425D01*
X0188127Y0302827D02*
X0202676Y0302827D01*
X0184396Y0342789D02*
X0183830Y0342789D01*
X0183830Y0344388D02*
X0184396Y0344388D01*
X0184396Y0345987D02*
X0183830Y0345987D01*
X0183830Y0347585D02*
X0184396Y0347585D01*
X0184396Y0349184D02*
X0183830Y0349184D01*
X0183830Y0350782D02*
X0184396Y0350782D01*
X0203199Y0379555D02*
X0203259Y0379555D01*
D28*
X0301800Y0277425D02*
X0344300Y0277425D01*
X0343050Y0283675D02*
X0339925Y0286800D01*
X0339925Y0289300D01*
X0343050Y0283675D02*
X0355550Y0283675D01*
X0370550Y0268050D02*
X0370550Y0243050D01*
X0374300Y0239300D01*
X0374300Y0221800D01*
X0371175Y0218675D01*
D29*
X0294925Y0342425D03*
X0183675Y0287425D03*
D30*
X0201800Y0309925D02*
X0201800Y0316175D01*
X0201800Y0309925D02*
X0229300Y0282425D01*
X0268675Y0282425D01*
X0278050Y0273050D01*
X0278050Y0263050D01*
X0278050Y0253050D01*
X0288050Y0253050D02*
X0288050Y0263050D01*
X0288050Y0276800D01*
X0276175Y0288675D01*
X0236800Y0288675D01*
X0222425Y0303050D01*
X0216175Y0303050D01*
X0378050Y0247425D02*
X0379925Y0245550D01*
X0379925Y0118050D01*
X0342425Y0080550D01*
X0331800Y0080550D01*
D31*
X0081175Y0192425D02*
X0080924Y0192676D01*
X0077331Y0192676D01*
X0077331Y0208424D02*
X0077331Y0211574D01*
X0117425Y0399300D02*
X0117135Y0399590D01*
X0117135Y0404074D01*
M02*
