G75*
%MOIN*%
%OFA0B0*%
%FSLAX25Y25*%
%IPPOS*%
%LPD*%
%AMOC8*
5,1,8,0,0,1.08239X$1,22.5*
%
%ADD10C,0.00000*%
%ADD11C,0.00039*%
D10*
X0056111Y0063050D02*
X0406505Y0063050D01*
X0406790Y0063053D01*
X0407076Y0063064D01*
X0407361Y0063081D01*
X0407645Y0063105D01*
X0407929Y0063136D01*
X0408212Y0063174D01*
X0408493Y0063219D01*
X0408774Y0063270D01*
X0409054Y0063328D01*
X0409332Y0063393D01*
X0409608Y0063465D01*
X0409882Y0063543D01*
X0410155Y0063628D01*
X0410425Y0063720D01*
X0410693Y0063818D01*
X0410959Y0063922D01*
X0411222Y0064033D01*
X0411482Y0064150D01*
X0411740Y0064273D01*
X0411994Y0064403D01*
X0412245Y0064539D01*
X0412493Y0064680D01*
X0412737Y0064828D01*
X0412978Y0064981D01*
X0413214Y0065141D01*
X0413447Y0065306D01*
X0413676Y0065476D01*
X0413901Y0065652D01*
X0414121Y0065834D01*
X0414337Y0066020D01*
X0414548Y0066212D01*
X0414755Y0066409D01*
X0414957Y0066611D01*
X0415154Y0066818D01*
X0415346Y0067029D01*
X0415532Y0067245D01*
X0415714Y0067465D01*
X0415890Y0067690D01*
X0416060Y0067919D01*
X0416225Y0068152D01*
X0416385Y0068388D01*
X0416538Y0068629D01*
X0416686Y0068873D01*
X0416827Y0069121D01*
X0416963Y0069372D01*
X0417093Y0069626D01*
X0417216Y0069884D01*
X0417333Y0070144D01*
X0417444Y0070407D01*
X0417548Y0070673D01*
X0417646Y0070941D01*
X0417738Y0071211D01*
X0417823Y0071484D01*
X0417901Y0071758D01*
X0417973Y0072034D01*
X0418038Y0072312D01*
X0418096Y0072592D01*
X0418147Y0072873D01*
X0418192Y0073154D01*
X0418230Y0073437D01*
X0418261Y0073721D01*
X0418285Y0074005D01*
X0418302Y0074290D01*
X0418313Y0074576D01*
X0418316Y0074861D01*
X0418316Y0425255D01*
X0418313Y0425540D01*
X0418302Y0425826D01*
X0418285Y0426111D01*
X0418261Y0426395D01*
X0418230Y0426679D01*
X0418192Y0426962D01*
X0418147Y0427243D01*
X0418096Y0427524D01*
X0418038Y0427804D01*
X0417973Y0428082D01*
X0417901Y0428358D01*
X0417823Y0428632D01*
X0417738Y0428905D01*
X0417646Y0429175D01*
X0417548Y0429443D01*
X0417444Y0429709D01*
X0417333Y0429972D01*
X0417216Y0430232D01*
X0417093Y0430490D01*
X0416963Y0430744D01*
X0416827Y0430995D01*
X0416686Y0431243D01*
X0416538Y0431487D01*
X0416385Y0431728D01*
X0416225Y0431964D01*
X0416060Y0432197D01*
X0415890Y0432426D01*
X0415714Y0432651D01*
X0415532Y0432871D01*
X0415346Y0433087D01*
X0415154Y0433298D01*
X0414957Y0433505D01*
X0414755Y0433707D01*
X0414548Y0433904D01*
X0414337Y0434096D01*
X0414121Y0434282D01*
X0413901Y0434464D01*
X0413676Y0434640D01*
X0413447Y0434810D01*
X0413214Y0434975D01*
X0412978Y0435135D01*
X0412737Y0435288D01*
X0412493Y0435436D01*
X0412245Y0435577D01*
X0411994Y0435713D01*
X0411740Y0435843D01*
X0411482Y0435966D01*
X0411222Y0436083D01*
X0410959Y0436194D01*
X0410693Y0436298D01*
X0410425Y0436396D01*
X0410155Y0436488D01*
X0409882Y0436573D01*
X0409608Y0436651D01*
X0409332Y0436723D01*
X0409054Y0436788D01*
X0408774Y0436846D01*
X0408493Y0436897D01*
X0408212Y0436942D01*
X0407929Y0436980D01*
X0407645Y0437011D01*
X0407361Y0437035D01*
X0407076Y0437052D01*
X0406790Y0437063D01*
X0406505Y0437066D01*
X0349418Y0437066D01*
X0349418Y0444940D01*
X0306111Y0444940D01*
X0306111Y0437066D01*
X0274615Y0437066D01*
X0274615Y0444940D01*
X0231308Y0444940D01*
X0231308Y0437066D01*
X0056111Y0437066D01*
X0055826Y0437063D01*
X0055540Y0437052D01*
X0055255Y0437035D01*
X0054971Y0437011D01*
X0054687Y0436980D01*
X0054404Y0436942D01*
X0054123Y0436897D01*
X0053842Y0436846D01*
X0053562Y0436788D01*
X0053284Y0436723D01*
X0053008Y0436651D01*
X0052734Y0436573D01*
X0052461Y0436488D01*
X0052191Y0436396D01*
X0051923Y0436298D01*
X0051657Y0436194D01*
X0051394Y0436083D01*
X0051134Y0435966D01*
X0050876Y0435843D01*
X0050622Y0435713D01*
X0050371Y0435577D01*
X0050123Y0435436D01*
X0049879Y0435288D01*
X0049638Y0435135D01*
X0049402Y0434975D01*
X0049169Y0434810D01*
X0048940Y0434640D01*
X0048715Y0434464D01*
X0048495Y0434282D01*
X0048279Y0434096D01*
X0048068Y0433904D01*
X0047861Y0433707D01*
X0047659Y0433505D01*
X0047462Y0433298D01*
X0047270Y0433087D01*
X0047084Y0432871D01*
X0046902Y0432651D01*
X0046726Y0432426D01*
X0046556Y0432197D01*
X0046391Y0431964D01*
X0046231Y0431728D01*
X0046078Y0431487D01*
X0045930Y0431243D01*
X0045789Y0430995D01*
X0045653Y0430744D01*
X0045523Y0430490D01*
X0045400Y0430232D01*
X0045283Y0429972D01*
X0045172Y0429709D01*
X0045068Y0429443D01*
X0044970Y0429175D01*
X0044878Y0428905D01*
X0044793Y0428632D01*
X0044715Y0428358D01*
X0044643Y0428082D01*
X0044578Y0427804D01*
X0044520Y0427524D01*
X0044469Y0427243D01*
X0044424Y0426962D01*
X0044386Y0426679D01*
X0044355Y0426395D01*
X0044331Y0426111D01*
X0044314Y0425826D01*
X0044303Y0425540D01*
X0044300Y0425255D01*
X0044300Y0074861D01*
X0044303Y0074576D01*
X0044314Y0074290D01*
X0044331Y0074005D01*
X0044355Y0073721D01*
X0044386Y0073437D01*
X0044424Y0073154D01*
X0044469Y0072873D01*
X0044520Y0072592D01*
X0044578Y0072312D01*
X0044643Y0072034D01*
X0044715Y0071758D01*
X0044793Y0071484D01*
X0044878Y0071211D01*
X0044970Y0070941D01*
X0045068Y0070673D01*
X0045172Y0070407D01*
X0045283Y0070144D01*
X0045400Y0069884D01*
X0045523Y0069626D01*
X0045653Y0069372D01*
X0045789Y0069121D01*
X0045930Y0068873D01*
X0046078Y0068629D01*
X0046231Y0068388D01*
X0046391Y0068152D01*
X0046556Y0067919D01*
X0046726Y0067690D01*
X0046902Y0067465D01*
X0047084Y0067245D01*
X0047270Y0067029D01*
X0047462Y0066818D01*
X0047659Y0066611D01*
X0047861Y0066409D01*
X0048068Y0066212D01*
X0048279Y0066020D01*
X0048495Y0065834D01*
X0048715Y0065652D01*
X0048940Y0065476D01*
X0049169Y0065306D01*
X0049402Y0065141D01*
X0049638Y0064981D01*
X0049879Y0064828D01*
X0050123Y0064680D01*
X0050371Y0064539D01*
X0050622Y0064403D01*
X0050876Y0064273D01*
X0051134Y0064150D01*
X0051394Y0064033D01*
X0051657Y0063922D01*
X0051923Y0063818D01*
X0052191Y0063720D01*
X0052461Y0063628D01*
X0052734Y0063543D01*
X0053008Y0063465D01*
X0053284Y0063393D01*
X0053562Y0063328D01*
X0053842Y0063270D01*
X0054123Y0063219D01*
X0054404Y0063174D01*
X0054687Y0063136D01*
X0054971Y0063105D01*
X0055255Y0063081D01*
X0055540Y0063064D01*
X0055826Y0063053D01*
X0056111Y0063050D01*
X0067529Y0092578D02*
X0067531Y0092736D01*
X0067537Y0092894D01*
X0067547Y0093052D01*
X0067561Y0093210D01*
X0067579Y0093367D01*
X0067600Y0093524D01*
X0067626Y0093680D01*
X0067656Y0093836D01*
X0067689Y0093991D01*
X0067727Y0094144D01*
X0067768Y0094297D01*
X0067813Y0094449D01*
X0067862Y0094600D01*
X0067915Y0094749D01*
X0067971Y0094897D01*
X0068031Y0095043D01*
X0068095Y0095188D01*
X0068163Y0095331D01*
X0068234Y0095473D01*
X0068308Y0095613D01*
X0068386Y0095750D01*
X0068468Y0095886D01*
X0068552Y0096020D01*
X0068641Y0096151D01*
X0068732Y0096280D01*
X0068827Y0096407D01*
X0068924Y0096532D01*
X0069025Y0096654D01*
X0069129Y0096773D01*
X0069236Y0096890D01*
X0069346Y0097004D01*
X0069459Y0097115D01*
X0069574Y0097224D01*
X0069692Y0097329D01*
X0069813Y0097431D01*
X0069936Y0097531D01*
X0070062Y0097627D01*
X0070190Y0097720D01*
X0070320Y0097810D01*
X0070453Y0097896D01*
X0070588Y0097980D01*
X0070724Y0098059D01*
X0070863Y0098136D01*
X0071004Y0098208D01*
X0071146Y0098278D01*
X0071290Y0098343D01*
X0071436Y0098405D01*
X0071583Y0098463D01*
X0071732Y0098518D01*
X0071882Y0098569D01*
X0072033Y0098616D01*
X0072185Y0098659D01*
X0072338Y0098698D01*
X0072493Y0098734D01*
X0072648Y0098765D01*
X0072804Y0098793D01*
X0072960Y0098817D01*
X0073117Y0098837D01*
X0073275Y0098853D01*
X0073432Y0098865D01*
X0073591Y0098873D01*
X0073749Y0098877D01*
X0073907Y0098877D01*
X0074065Y0098873D01*
X0074224Y0098865D01*
X0074381Y0098853D01*
X0074539Y0098837D01*
X0074696Y0098817D01*
X0074852Y0098793D01*
X0075008Y0098765D01*
X0075163Y0098734D01*
X0075318Y0098698D01*
X0075471Y0098659D01*
X0075623Y0098616D01*
X0075774Y0098569D01*
X0075924Y0098518D01*
X0076073Y0098463D01*
X0076220Y0098405D01*
X0076366Y0098343D01*
X0076510Y0098278D01*
X0076652Y0098208D01*
X0076793Y0098136D01*
X0076932Y0098059D01*
X0077068Y0097980D01*
X0077203Y0097896D01*
X0077336Y0097810D01*
X0077466Y0097720D01*
X0077594Y0097627D01*
X0077720Y0097531D01*
X0077843Y0097431D01*
X0077964Y0097329D01*
X0078082Y0097224D01*
X0078197Y0097115D01*
X0078310Y0097004D01*
X0078420Y0096890D01*
X0078527Y0096773D01*
X0078631Y0096654D01*
X0078732Y0096532D01*
X0078829Y0096407D01*
X0078924Y0096280D01*
X0079015Y0096151D01*
X0079104Y0096020D01*
X0079188Y0095886D01*
X0079270Y0095750D01*
X0079348Y0095613D01*
X0079422Y0095473D01*
X0079493Y0095331D01*
X0079561Y0095188D01*
X0079625Y0095043D01*
X0079685Y0094897D01*
X0079741Y0094749D01*
X0079794Y0094600D01*
X0079843Y0094449D01*
X0079888Y0094297D01*
X0079929Y0094144D01*
X0079967Y0093991D01*
X0080000Y0093836D01*
X0080030Y0093680D01*
X0080056Y0093524D01*
X0080077Y0093367D01*
X0080095Y0093210D01*
X0080109Y0093052D01*
X0080119Y0092894D01*
X0080125Y0092736D01*
X0080127Y0092578D01*
X0080125Y0092420D01*
X0080119Y0092262D01*
X0080109Y0092104D01*
X0080095Y0091946D01*
X0080077Y0091789D01*
X0080056Y0091632D01*
X0080030Y0091476D01*
X0080000Y0091320D01*
X0079967Y0091165D01*
X0079929Y0091012D01*
X0079888Y0090859D01*
X0079843Y0090707D01*
X0079794Y0090556D01*
X0079741Y0090407D01*
X0079685Y0090259D01*
X0079625Y0090113D01*
X0079561Y0089968D01*
X0079493Y0089825D01*
X0079422Y0089683D01*
X0079348Y0089543D01*
X0079270Y0089406D01*
X0079188Y0089270D01*
X0079104Y0089136D01*
X0079015Y0089005D01*
X0078924Y0088876D01*
X0078829Y0088749D01*
X0078732Y0088624D01*
X0078631Y0088502D01*
X0078527Y0088383D01*
X0078420Y0088266D01*
X0078310Y0088152D01*
X0078197Y0088041D01*
X0078082Y0087932D01*
X0077964Y0087827D01*
X0077843Y0087725D01*
X0077720Y0087625D01*
X0077594Y0087529D01*
X0077466Y0087436D01*
X0077336Y0087346D01*
X0077203Y0087260D01*
X0077068Y0087176D01*
X0076932Y0087097D01*
X0076793Y0087020D01*
X0076652Y0086948D01*
X0076510Y0086878D01*
X0076366Y0086813D01*
X0076220Y0086751D01*
X0076073Y0086693D01*
X0075924Y0086638D01*
X0075774Y0086587D01*
X0075623Y0086540D01*
X0075471Y0086497D01*
X0075318Y0086458D01*
X0075163Y0086422D01*
X0075008Y0086391D01*
X0074852Y0086363D01*
X0074696Y0086339D01*
X0074539Y0086319D01*
X0074381Y0086303D01*
X0074224Y0086291D01*
X0074065Y0086283D01*
X0073907Y0086279D01*
X0073749Y0086279D01*
X0073591Y0086283D01*
X0073432Y0086291D01*
X0073275Y0086303D01*
X0073117Y0086319D01*
X0072960Y0086339D01*
X0072804Y0086363D01*
X0072648Y0086391D01*
X0072493Y0086422D01*
X0072338Y0086458D01*
X0072185Y0086497D01*
X0072033Y0086540D01*
X0071882Y0086587D01*
X0071732Y0086638D01*
X0071583Y0086693D01*
X0071436Y0086751D01*
X0071290Y0086813D01*
X0071146Y0086878D01*
X0071004Y0086948D01*
X0070863Y0087020D01*
X0070724Y0087097D01*
X0070588Y0087176D01*
X0070453Y0087260D01*
X0070320Y0087346D01*
X0070190Y0087436D01*
X0070062Y0087529D01*
X0069936Y0087625D01*
X0069813Y0087725D01*
X0069692Y0087827D01*
X0069574Y0087932D01*
X0069459Y0088041D01*
X0069346Y0088152D01*
X0069236Y0088266D01*
X0069129Y0088383D01*
X0069025Y0088502D01*
X0068924Y0088624D01*
X0068827Y0088749D01*
X0068732Y0088876D01*
X0068641Y0089005D01*
X0068552Y0089136D01*
X0068468Y0089270D01*
X0068386Y0089406D01*
X0068308Y0089543D01*
X0068234Y0089683D01*
X0068163Y0089825D01*
X0068095Y0089968D01*
X0068031Y0090113D01*
X0067971Y0090259D01*
X0067915Y0090407D01*
X0067862Y0090556D01*
X0067813Y0090707D01*
X0067768Y0090859D01*
X0067727Y0091012D01*
X0067689Y0091165D01*
X0067656Y0091320D01*
X0067626Y0091476D01*
X0067600Y0091632D01*
X0067579Y0091789D01*
X0067561Y0091946D01*
X0067547Y0092104D01*
X0067537Y0092262D01*
X0067531Y0092420D01*
X0067529Y0092578D01*
X0136652Y0096770D02*
X0136654Y0096930D01*
X0136660Y0097089D01*
X0136670Y0097248D01*
X0136684Y0097407D01*
X0136702Y0097566D01*
X0136723Y0097724D01*
X0136749Y0097881D01*
X0136779Y0098038D01*
X0136812Y0098194D01*
X0136850Y0098349D01*
X0136891Y0098503D01*
X0136936Y0098656D01*
X0136985Y0098808D01*
X0137038Y0098958D01*
X0137094Y0099107D01*
X0137154Y0099255D01*
X0137218Y0099401D01*
X0137286Y0099546D01*
X0137357Y0099689D01*
X0137431Y0099830D01*
X0137509Y0099969D01*
X0137591Y0100106D01*
X0137676Y0100241D01*
X0137764Y0100374D01*
X0137855Y0100505D01*
X0137950Y0100633D01*
X0138048Y0100759D01*
X0138149Y0100883D01*
X0138253Y0101003D01*
X0138360Y0101122D01*
X0138470Y0101237D01*
X0138583Y0101350D01*
X0138698Y0101460D01*
X0138817Y0101567D01*
X0138937Y0101671D01*
X0139061Y0101772D01*
X0139187Y0101870D01*
X0139315Y0101965D01*
X0139446Y0102056D01*
X0139579Y0102144D01*
X0139714Y0102229D01*
X0139851Y0102311D01*
X0139990Y0102389D01*
X0140131Y0102463D01*
X0140274Y0102534D01*
X0140419Y0102602D01*
X0140565Y0102666D01*
X0140713Y0102726D01*
X0140862Y0102782D01*
X0141012Y0102835D01*
X0141164Y0102884D01*
X0141317Y0102929D01*
X0141471Y0102970D01*
X0141626Y0103008D01*
X0141782Y0103041D01*
X0141939Y0103071D01*
X0142096Y0103097D01*
X0142254Y0103118D01*
X0142413Y0103136D01*
X0142572Y0103150D01*
X0142731Y0103160D01*
X0142890Y0103166D01*
X0143050Y0103168D01*
X0143210Y0103166D01*
X0143369Y0103160D01*
X0143528Y0103150D01*
X0143687Y0103136D01*
X0143846Y0103118D01*
X0144004Y0103097D01*
X0144161Y0103071D01*
X0144318Y0103041D01*
X0144474Y0103008D01*
X0144629Y0102970D01*
X0144783Y0102929D01*
X0144936Y0102884D01*
X0145088Y0102835D01*
X0145238Y0102782D01*
X0145387Y0102726D01*
X0145535Y0102666D01*
X0145681Y0102602D01*
X0145826Y0102534D01*
X0145969Y0102463D01*
X0146110Y0102389D01*
X0146249Y0102311D01*
X0146386Y0102229D01*
X0146521Y0102144D01*
X0146654Y0102056D01*
X0146785Y0101965D01*
X0146913Y0101870D01*
X0147039Y0101772D01*
X0147163Y0101671D01*
X0147283Y0101567D01*
X0147402Y0101460D01*
X0147517Y0101350D01*
X0147630Y0101237D01*
X0147740Y0101122D01*
X0147847Y0101003D01*
X0147951Y0100883D01*
X0148052Y0100759D01*
X0148150Y0100633D01*
X0148245Y0100505D01*
X0148336Y0100374D01*
X0148424Y0100241D01*
X0148509Y0100106D01*
X0148591Y0099969D01*
X0148669Y0099830D01*
X0148743Y0099689D01*
X0148814Y0099546D01*
X0148882Y0099401D01*
X0148946Y0099255D01*
X0149006Y0099107D01*
X0149062Y0098958D01*
X0149115Y0098808D01*
X0149164Y0098656D01*
X0149209Y0098503D01*
X0149250Y0098349D01*
X0149288Y0098194D01*
X0149321Y0098038D01*
X0149351Y0097881D01*
X0149377Y0097724D01*
X0149398Y0097566D01*
X0149416Y0097407D01*
X0149430Y0097248D01*
X0149440Y0097089D01*
X0149446Y0096930D01*
X0149448Y0096770D01*
X0149446Y0096610D01*
X0149440Y0096451D01*
X0149430Y0096292D01*
X0149416Y0096133D01*
X0149398Y0095974D01*
X0149377Y0095816D01*
X0149351Y0095659D01*
X0149321Y0095502D01*
X0149288Y0095346D01*
X0149250Y0095191D01*
X0149209Y0095037D01*
X0149164Y0094884D01*
X0149115Y0094732D01*
X0149062Y0094582D01*
X0149006Y0094433D01*
X0148946Y0094285D01*
X0148882Y0094139D01*
X0148814Y0093994D01*
X0148743Y0093851D01*
X0148669Y0093710D01*
X0148591Y0093571D01*
X0148509Y0093434D01*
X0148424Y0093299D01*
X0148336Y0093166D01*
X0148245Y0093035D01*
X0148150Y0092907D01*
X0148052Y0092781D01*
X0147951Y0092657D01*
X0147847Y0092537D01*
X0147740Y0092418D01*
X0147630Y0092303D01*
X0147517Y0092190D01*
X0147402Y0092080D01*
X0147283Y0091973D01*
X0147163Y0091869D01*
X0147039Y0091768D01*
X0146913Y0091670D01*
X0146785Y0091575D01*
X0146654Y0091484D01*
X0146521Y0091396D01*
X0146386Y0091311D01*
X0146249Y0091229D01*
X0146110Y0091151D01*
X0145969Y0091077D01*
X0145826Y0091006D01*
X0145681Y0090938D01*
X0145535Y0090874D01*
X0145387Y0090814D01*
X0145238Y0090758D01*
X0145088Y0090705D01*
X0144936Y0090656D01*
X0144783Y0090611D01*
X0144629Y0090570D01*
X0144474Y0090532D01*
X0144318Y0090499D01*
X0144161Y0090469D01*
X0144004Y0090443D01*
X0143846Y0090422D01*
X0143687Y0090404D01*
X0143528Y0090390D01*
X0143369Y0090380D01*
X0143210Y0090374D01*
X0143050Y0090372D01*
X0142890Y0090374D01*
X0142731Y0090380D01*
X0142572Y0090390D01*
X0142413Y0090404D01*
X0142254Y0090422D01*
X0142096Y0090443D01*
X0141939Y0090469D01*
X0141782Y0090499D01*
X0141626Y0090532D01*
X0141471Y0090570D01*
X0141317Y0090611D01*
X0141164Y0090656D01*
X0141012Y0090705D01*
X0140862Y0090758D01*
X0140713Y0090814D01*
X0140565Y0090874D01*
X0140419Y0090938D01*
X0140274Y0091006D01*
X0140131Y0091077D01*
X0139990Y0091151D01*
X0139851Y0091229D01*
X0139714Y0091311D01*
X0139579Y0091396D01*
X0139446Y0091484D01*
X0139315Y0091575D01*
X0139187Y0091670D01*
X0139061Y0091768D01*
X0138937Y0091869D01*
X0138817Y0091973D01*
X0138698Y0092080D01*
X0138583Y0092190D01*
X0138470Y0092303D01*
X0138360Y0092418D01*
X0138253Y0092537D01*
X0138149Y0092657D01*
X0138048Y0092781D01*
X0137950Y0092907D01*
X0137855Y0093035D01*
X0137764Y0093166D01*
X0137676Y0093299D01*
X0137591Y0093434D01*
X0137509Y0093571D01*
X0137431Y0093710D01*
X0137357Y0093851D01*
X0137286Y0093994D01*
X0137218Y0094139D01*
X0137154Y0094285D01*
X0137094Y0094433D01*
X0137038Y0094582D01*
X0136985Y0094732D01*
X0136936Y0094884D01*
X0136891Y0095037D01*
X0136850Y0095191D01*
X0136812Y0095346D01*
X0136779Y0095502D01*
X0136749Y0095659D01*
X0136723Y0095816D01*
X0136702Y0095974D01*
X0136684Y0096133D01*
X0136670Y0096292D01*
X0136660Y0096451D01*
X0136654Y0096610D01*
X0136652Y0096770D01*
X0236652Y0096770D02*
X0236654Y0096930D01*
X0236660Y0097089D01*
X0236670Y0097248D01*
X0236684Y0097407D01*
X0236702Y0097566D01*
X0236723Y0097724D01*
X0236749Y0097881D01*
X0236779Y0098038D01*
X0236812Y0098194D01*
X0236850Y0098349D01*
X0236891Y0098503D01*
X0236936Y0098656D01*
X0236985Y0098808D01*
X0237038Y0098958D01*
X0237094Y0099107D01*
X0237154Y0099255D01*
X0237218Y0099401D01*
X0237286Y0099546D01*
X0237357Y0099689D01*
X0237431Y0099830D01*
X0237509Y0099969D01*
X0237591Y0100106D01*
X0237676Y0100241D01*
X0237764Y0100374D01*
X0237855Y0100505D01*
X0237950Y0100633D01*
X0238048Y0100759D01*
X0238149Y0100883D01*
X0238253Y0101003D01*
X0238360Y0101122D01*
X0238470Y0101237D01*
X0238583Y0101350D01*
X0238698Y0101460D01*
X0238817Y0101567D01*
X0238937Y0101671D01*
X0239061Y0101772D01*
X0239187Y0101870D01*
X0239315Y0101965D01*
X0239446Y0102056D01*
X0239579Y0102144D01*
X0239714Y0102229D01*
X0239851Y0102311D01*
X0239990Y0102389D01*
X0240131Y0102463D01*
X0240274Y0102534D01*
X0240419Y0102602D01*
X0240565Y0102666D01*
X0240713Y0102726D01*
X0240862Y0102782D01*
X0241012Y0102835D01*
X0241164Y0102884D01*
X0241317Y0102929D01*
X0241471Y0102970D01*
X0241626Y0103008D01*
X0241782Y0103041D01*
X0241939Y0103071D01*
X0242096Y0103097D01*
X0242254Y0103118D01*
X0242413Y0103136D01*
X0242572Y0103150D01*
X0242731Y0103160D01*
X0242890Y0103166D01*
X0243050Y0103168D01*
X0243210Y0103166D01*
X0243369Y0103160D01*
X0243528Y0103150D01*
X0243687Y0103136D01*
X0243846Y0103118D01*
X0244004Y0103097D01*
X0244161Y0103071D01*
X0244318Y0103041D01*
X0244474Y0103008D01*
X0244629Y0102970D01*
X0244783Y0102929D01*
X0244936Y0102884D01*
X0245088Y0102835D01*
X0245238Y0102782D01*
X0245387Y0102726D01*
X0245535Y0102666D01*
X0245681Y0102602D01*
X0245826Y0102534D01*
X0245969Y0102463D01*
X0246110Y0102389D01*
X0246249Y0102311D01*
X0246386Y0102229D01*
X0246521Y0102144D01*
X0246654Y0102056D01*
X0246785Y0101965D01*
X0246913Y0101870D01*
X0247039Y0101772D01*
X0247163Y0101671D01*
X0247283Y0101567D01*
X0247402Y0101460D01*
X0247517Y0101350D01*
X0247630Y0101237D01*
X0247740Y0101122D01*
X0247847Y0101003D01*
X0247951Y0100883D01*
X0248052Y0100759D01*
X0248150Y0100633D01*
X0248245Y0100505D01*
X0248336Y0100374D01*
X0248424Y0100241D01*
X0248509Y0100106D01*
X0248591Y0099969D01*
X0248669Y0099830D01*
X0248743Y0099689D01*
X0248814Y0099546D01*
X0248882Y0099401D01*
X0248946Y0099255D01*
X0249006Y0099107D01*
X0249062Y0098958D01*
X0249115Y0098808D01*
X0249164Y0098656D01*
X0249209Y0098503D01*
X0249250Y0098349D01*
X0249288Y0098194D01*
X0249321Y0098038D01*
X0249351Y0097881D01*
X0249377Y0097724D01*
X0249398Y0097566D01*
X0249416Y0097407D01*
X0249430Y0097248D01*
X0249440Y0097089D01*
X0249446Y0096930D01*
X0249448Y0096770D01*
X0249446Y0096610D01*
X0249440Y0096451D01*
X0249430Y0096292D01*
X0249416Y0096133D01*
X0249398Y0095974D01*
X0249377Y0095816D01*
X0249351Y0095659D01*
X0249321Y0095502D01*
X0249288Y0095346D01*
X0249250Y0095191D01*
X0249209Y0095037D01*
X0249164Y0094884D01*
X0249115Y0094732D01*
X0249062Y0094582D01*
X0249006Y0094433D01*
X0248946Y0094285D01*
X0248882Y0094139D01*
X0248814Y0093994D01*
X0248743Y0093851D01*
X0248669Y0093710D01*
X0248591Y0093571D01*
X0248509Y0093434D01*
X0248424Y0093299D01*
X0248336Y0093166D01*
X0248245Y0093035D01*
X0248150Y0092907D01*
X0248052Y0092781D01*
X0247951Y0092657D01*
X0247847Y0092537D01*
X0247740Y0092418D01*
X0247630Y0092303D01*
X0247517Y0092190D01*
X0247402Y0092080D01*
X0247283Y0091973D01*
X0247163Y0091869D01*
X0247039Y0091768D01*
X0246913Y0091670D01*
X0246785Y0091575D01*
X0246654Y0091484D01*
X0246521Y0091396D01*
X0246386Y0091311D01*
X0246249Y0091229D01*
X0246110Y0091151D01*
X0245969Y0091077D01*
X0245826Y0091006D01*
X0245681Y0090938D01*
X0245535Y0090874D01*
X0245387Y0090814D01*
X0245238Y0090758D01*
X0245088Y0090705D01*
X0244936Y0090656D01*
X0244783Y0090611D01*
X0244629Y0090570D01*
X0244474Y0090532D01*
X0244318Y0090499D01*
X0244161Y0090469D01*
X0244004Y0090443D01*
X0243846Y0090422D01*
X0243687Y0090404D01*
X0243528Y0090390D01*
X0243369Y0090380D01*
X0243210Y0090374D01*
X0243050Y0090372D01*
X0242890Y0090374D01*
X0242731Y0090380D01*
X0242572Y0090390D01*
X0242413Y0090404D01*
X0242254Y0090422D01*
X0242096Y0090443D01*
X0241939Y0090469D01*
X0241782Y0090499D01*
X0241626Y0090532D01*
X0241471Y0090570D01*
X0241317Y0090611D01*
X0241164Y0090656D01*
X0241012Y0090705D01*
X0240862Y0090758D01*
X0240713Y0090814D01*
X0240565Y0090874D01*
X0240419Y0090938D01*
X0240274Y0091006D01*
X0240131Y0091077D01*
X0239990Y0091151D01*
X0239851Y0091229D01*
X0239714Y0091311D01*
X0239579Y0091396D01*
X0239446Y0091484D01*
X0239315Y0091575D01*
X0239187Y0091670D01*
X0239061Y0091768D01*
X0238937Y0091869D01*
X0238817Y0091973D01*
X0238698Y0092080D01*
X0238583Y0092190D01*
X0238470Y0092303D01*
X0238360Y0092418D01*
X0238253Y0092537D01*
X0238149Y0092657D01*
X0238048Y0092781D01*
X0237950Y0092907D01*
X0237855Y0093035D01*
X0237764Y0093166D01*
X0237676Y0093299D01*
X0237591Y0093434D01*
X0237509Y0093571D01*
X0237431Y0093710D01*
X0237357Y0093851D01*
X0237286Y0093994D01*
X0237218Y0094139D01*
X0237154Y0094285D01*
X0237094Y0094433D01*
X0237038Y0094582D01*
X0236985Y0094732D01*
X0236936Y0094884D01*
X0236891Y0095037D01*
X0236850Y0095191D01*
X0236812Y0095346D01*
X0236779Y0095502D01*
X0236749Y0095659D01*
X0236723Y0095816D01*
X0236702Y0095974D01*
X0236684Y0096133D01*
X0236670Y0096292D01*
X0236660Y0096451D01*
X0236654Y0096610D01*
X0236652Y0096770D01*
X0382489Y0092578D02*
X0382491Y0092736D01*
X0382497Y0092894D01*
X0382507Y0093052D01*
X0382521Y0093210D01*
X0382539Y0093367D01*
X0382560Y0093524D01*
X0382586Y0093680D01*
X0382616Y0093836D01*
X0382649Y0093991D01*
X0382687Y0094144D01*
X0382728Y0094297D01*
X0382773Y0094449D01*
X0382822Y0094600D01*
X0382875Y0094749D01*
X0382931Y0094897D01*
X0382991Y0095043D01*
X0383055Y0095188D01*
X0383123Y0095331D01*
X0383194Y0095473D01*
X0383268Y0095613D01*
X0383346Y0095750D01*
X0383428Y0095886D01*
X0383512Y0096020D01*
X0383601Y0096151D01*
X0383692Y0096280D01*
X0383787Y0096407D01*
X0383884Y0096532D01*
X0383985Y0096654D01*
X0384089Y0096773D01*
X0384196Y0096890D01*
X0384306Y0097004D01*
X0384419Y0097115D01*
X0384534Y0097224D01*
X0384652Y0097329D01*
X0384773Y0097431D01*
X0384896Y0097531D01*
X0385022Y0097627D01*
X0385150Y0097720D01*
X0385280Y0097810D01*
X0385413Y0097896D01*
X0385548Y0097980D01*
X0385684Y0098059D01*
X0385823Y0098136D01*
X0385964Y0098208D01*
X0386106Y0098278D01*
X0386250Y0098343D01*
X0386396Y0098405D01*
X0386543Y0098463D01*
X0386692Y0098518D01*
X0386842Y0098569D01*
X0386993Y0098616D01*
X0387145Y0098659D01*
X0387298Y0098698D01*
X0387453Y0098734D01*
X0387608Y0098765D01*
X0387764Y0098793D01*
X0387920Y0098817D01*
X0388077Y0098837D01*
X0388235Y0098853D01*
X0388392Y0098865D01*
X0388551Y0098873D01*
X0388709Y0098877D01*
X0388867Y0098877D01*
X0389025Y0098873D01*
X0389184Y0098865D01*
X0389341Y0098853D01*
X0389499Y0098837D01*
X0389656Y0098817D01*
X0389812Y0098793D01*
X0389968Y0098765D01*
X0390123Y0098734D01*
X0390278Y0098698D01*
X0390431Y0098659D01*
X0390583Y0098616D01*
X0390734Y0098569D01*
X0390884Y0098518D01*
X0391033Y0098463D01*
X0391180Y0098405D01*
X0391326Y0098343D01*
X0391470Y0098278D01*
X0391612Y0098208D01*
X0391753Y0098136D01*
X0391892Y0098059D01*
X0392028Y0097980D01*
X0392163Y0097896D01*
X0392296Y0097810D01*
X0392426Y0097720D01*
X0392554Y0097627D01*
X0392680Y0097531D01*
X0392803Y0097431D01*
X0392924Y0097329D01*
X0393042Y0097224D01*
X0393157Y0097115D01*
X0393270Y0097004D01*
X0393380Y0096890D01*
X0393487Y0096773D01*
X0393591Y0096654D01*
X0393692Y0096532D01*
X0393789Y0096407D01*
X0393884Y0096280D01*
X0393975Y0096151D01*
X0394064Y0096020D01*
X0394148Y0095886D01*
X0394230Y0095750D01*
X0394308Y0095613D01*
X0394382Y0095473D01*
X0394453Y0095331D01*
X0394521Y0095188D01*
X0394585Y0095043D01*
X0394645Y0094897D01*
X0394701Y0094749D01*
X0394754Y0094600D01*
X0394803Y0094449D01*
X0394848Y0094297D01*
X0394889Y0094144D01*
X0394927Y0093991D01*
X0394960Y0093836D01*
X0394990Y0093680D01*
X0395016Y0093524D01*
X0395037Y0093367D01*
X0395055Y0093210D01*
X0395069Y0093052D01*
X0395079Y0092894D01*
X0395085Y0092736D01*
X0395087Y0092578D01*
X0395085Y0092420D01*
X0395079Y0092262D01*
X0395069Y0092104D01*
X0395055Y0091946D01*
X0395037Y0091789D01*
X0395016Y0091632D01*
X0394990Y0091476D01*
X0394960Y0091320D01*
X0394927Y0091165D01*
X0394889Y0091012D01*
X0394848Y0090859D01*
X0394803Y0090707D01*
X0394754Y0090556D01*
X0394701Y0090407D01*
X0394645Y0090259D01*
X0394585Y0090113D01*
X0394521Y0089968D01*
X0394453Y0089825D01*
X0394382Y0089683D01*
X0394308Y0089543D01*
X0394230Y0089406D01*
X0394148Y0089270D01*
X0394064Y0089136D01*
X0393975Y0089005D01*
X0393884Y0088876D01*
X0393789Y0088749D01*
X0393692Y0088624D01*
X0393591Y0088502D01*
X0393487Y0088383D01*
X0393380Y0088266D01*
X0393270Y0088152D01*
X0393157Y0088041D01*
X0393042Y0087932D01*
X0392924Y0087827D01*
X0392803Y0087725D01*
X0392680Y0087625D01*
X0392554Y0087529D01*
X0392426Y0087436D01*
X0392296Y0087346D01*
X0392163Y0087260D01*
X0392028Y0087176D01*
X0391892Y0087097D01*
X0391753Y0087020D01*
X0391612Y0086948D01*
X0391470Y0086878D01*
X0391326Y0086813D01*
X0391180Y0086751D01*
X0391033Y0086693D01*
X0390884Y0086638D01*
X0390734Y0086587D01*
X0390583Y0086540D01*
X0390431Y0086497D01*
X0390278Y0086458D01*
X0390123Y0086422D01*
X0389968Y0086391D01*
X0389812Y0086363D01*
X0389656Y0086339D01*
X0389499Y0086319D01*
X0389341Y0086303D01*
X0389184Y0086291D01*
X0389025Y0086283D01*
X0388867Y0086279D01*
X0388709Y0086279D01*
X0388551Y0086283D01*
X0388392Y0086291D01*
X0388235Y0086303D01*
X0388077Y0086319D01*
X0387920Y0086339D01*
X0387764Y0086363D01*
X0387608Y0086391D01*
X0387453Y0086422D01*
X0387298Y0086458D01*
X0387145Y0086497D01*
X0386993Y0086540D01*
X0386842Y0086587D01*
X0386692Y0086638D01*
X0386543Y0086693D01*
X0386396Y0086751D01*
X0386250Y0086813D01*
X0386106Y0086878D01*
X0385964Y0086948D01*
X0385823Y0087020D01*
X0385684Y0087097D01*
X0385548Y0087176D01*
X0385413Y0087260D01*
X0385280Y0087346D01*
X0385150Y0087436D01*
X0385022Y0087529D01*
X0384896Y0087625D01*
X0384773Y0087725D01*
X0384652Y0087827D01*
X0384534Y0087932D01*
X0384419Y0088041D01*
X0384306Y0088152D01*
X0384196Y0088266D01*
X0384089Y0088383D01*
X0383985Y0088502D01*
X0383884Y0088624D01*
X0383787Y0088749D01*
X0383692Y0088876D01*
X0383601Y0089005D01*
X0383512Y0089136D01*
X0383428Y0089270D01*
X0383346Y0089406D01*
X0383268Y0089543D01*
X0383194Y0089683D01*
X0383123Y0089825D01*
X0383055Y0089968D01*
X0382991Y0090113D01*
X0382931Y0090259D01*
X0382875Y0090407D01*
X0382822Y0090556D01*
X0382773Y0090707D01*
X0382728Y0090859D01*
X0382687Y0091012D01*
X0382649Y0091165D01*
X0382616Y0091320D01*
X0382586Y0091476D01*
X0382560Y0091632D01*
X0382539Y0091789D01*
X0382521Y0091946D01*
X0382507Y0092104D01*
X0382497Y0092262D01*
X0382491Y0092420D01*
X0382489Y0092578D01*
X0382489Y0407538D02*
X0382491Y0407696D01*
X0382497Y0407854D01*
X0382507Y0408012D01*
X0382521Y0408170D01*
X0382539Y0408327D01*
X0382560Y0408484D01*
X0382586Y0408640D01*
X0382616Y0408796D01*
X0382649Y0408951D01*
X0382687Y0409104D01*
X0382728Y0409257D01*
X0382773Y0409409D01*
X0382822Y0409560D01*
X0382875Y0409709D01*
X0382931Y0409857D01*
X0382991Y0410003D01*
X0383055Y0410148D01*
X0383123Y0410291D01*
X0383194Y0410433D01*
X0383268Y0410573D01*
X0383346Y0410710D01*
X0383428Y0410846D01*
X0383512Y0410980D01*
X0383601Y0411111D01*
X0383692Y0411240D01*
X0383787Y0411367D01*
X0383884Y0411492D01*
X0383985Y0411614D01*
X0384089Y0411733D01*
X0384196Y0411850D01*
X0384306Y0411964D01*
X0384419Y0412075D01*
X0384534Y0412184D01*
X0384652Y0412289D01*
X0384773Y0412391D01*
X0384896Y0412491D01*
X0385022Y0412587D01*
X0385150Y0412680D01*
X0385280Y0412770D01*
X0385413Y0412856D01*
X0385548Y0412940D01*
X0385684Y0413019D01*
X0385823Y0413096D01*
X0385964Y0413168D01*
X0386106Y0413238D01*
X0386250Y0413303D01*
X0386396Y0413365D01*
X0386543Y0413423D01*
X0386692Y0413478D01*
X0386842Y0413529D01*
X0386993Y0413576D01*
X0387145Y0413619D01*
X0387298Y0413658D01*
X0387453Y0413694D01*
X0387608Y0413725D01*
X0387764Y0413753D01*
X0387920Y0413777D01*
X0388077Y0413797D01*
X0388235Y0413813D01*
X0388392Y0413825D01*
X0388551Y0413833D01*
X0388709Y0413837D01*
X0388867Y0413837D01*
X0389025Y0413833D01*
X0389184Y0413825D01*
X0389341Y0413813D01*
X0389499Y0413797D01*
X0389656Y0413777D01*
X0389812Y0413753D01*
X0389968Y0413725D01*
X0390123Y0413694D01*
X0390278Y0413658D01*
X0390431Y0413619D01*
X0390583Y0413576D01*
X0390734Y0413529D01*
X0390884Y0413478D01*
X0391033Y0413423D01*
X0391180Y0413365D01*
X0391326Y0413303D01*
X0391470Y0413238D01*
X0391612Y0413168D01*
X0391753Y0413096D01*
X0391892Y0413019D01*
X0392028Y0412940D01*
X0392163Y0412856D01*
X0392296Y0412770D01*
X0392426Y0412680D01*
X0392554Y0412587D01*
X0392680Y0412491D01*
X0392803Y0412391D01*
X0392924Y0412289D01*
X0393042Y0412184D01*
X0393157Y0412075D01*
X0393270Y0411964D01*
X0393380Y0411850D01*
X0393487Y0411733D01*
X0393591Y0411614D01*
X0393692Y0411492D01*
X0393789Y0411367D01*
X0393884Y0411240D01*
X0393975Y0411111D01*
X0394064Y0410980D01*
X0394148Y0410846D01*
X0394230Y0410710D01*
X0394308Y0410573D01*
X0394382Y0410433D01*
X0394453Y0410291D01*
X0394521Y0410148D01*
X0394585Y0410003D01*
X0394645Y0409857D01*
X0394701Y0409709D01*
X0394754Y0409560D01*
X0394803Y0409409D01*
X0394848Y0409257D01*
X0394889Y0409104D01*
X0394927Y0408951D01*
X0394960Y0408796D01*
X0394990Y0408640D01*
X0395016Y0408484D01*
X0395037Y0408327D01*
X0395055Y0408170D01*
X0395069Y0408012D01*
X0395079Y0407854D01*
X0395085Y0407696D01*
X0395087Y0407538D01*
X0395085Y0407380D01*
X0395079Y0407222D01*
X0395069Y0407064D01*
X0395055Y0406906D01*
X0395037Y0406749D01*
X0395016Y0406592D01*
X0394990Y0406436D01*
X0394960Y0406280D01*
X0394927Y0406125D01*
X0394889Y0405972D01*
X0394848Y0405819D01*
X0394803Y0405667D01*
X0394754Y0405516D01*
X0394701Y0405367D01*
X0394645Y0405219D01*
X0394585Y0405073D01*
X0394521Y0404928D01*
X0394453Y0404785D01*
X0394382Y0404643D01*
X0394308Y0404503D01*
X0394230Y0404366D01*
X0394148Y0404230D01*
X0394064Y0404096D01*
X0393975Y0403965D01*
X0393884Y0403836D01*
X0393789Y0403709D01*
X0393692Y0403584D01*
X0393591Y0403462D01*
X0393487Y0403343D01*
X0393380Y0403226D01*
X0393270Y0403112D01*
X0393157Y0403001D01*
X0393042Y0402892D01*
X0392924Y0402787D01*
X0392803Y0402685D01*
X0392680Y0402585D01*
X0392554Y0402489D01*
X0392426Y0402396D01*
X0392296Y0402306D01*
X0392163Y0402220D01*
X0392028Y0402136D01*
X0391892Y0402057D01*
X0391753Y0401980D01*
X0391612Y0401908D01*
X0391470Y0401838D01*
X0391326Y0401773D01*
X0391180Y0401711D01*
X0391033Y0401653D01*
X0390884Y0401598D01*
X0390734Y0401547D01*
X0390583Y0401500D01*
X0390431Y0401457D01*
X0390278Y0401418D01*
X0390123Y0401382D01*
X0389968Y0401351D01*
X0389812Y0401323D01*
X0389656Y0401299D01*
X0389499Y0401279D01*
X0389341Y0401263D01*
X0389184Y0401251D01*
X0389025Y0401243D01*
X0388867Y0401239D01*
X0388709Y0401239D01*
X0388551Y0401243D01*
X0388392Y0401251D01*
X0388235Y0401263D01*
X0388077Y0401279D01*
X0387920Y0401299D01*
X0387764Y0401323D01*
X0387608Y0401351D01*
X0387453Y0401382D01*
X0387298Y0401418D01*
X0387145Y0401457D01*
X0386993Y0401500D01*
X0386842Y0401547D01*
X0386692Y0401598D01*
X0386543Y0401653D01*
X0386396Y0401711D01*
X0386250Y0401773D01*
X0386106Y0401838D01*
X0385964Y0401908D01*
X0385823Y0401980D01*
X0385684Y0402057D01*
X0385548Y0402136D01*
X0385413Y0402220D01*
X0385280Y0402306D01*
X0385150Y0402396D01*
X0385022Y0402489D01*
X0384896Y0402585D01*
X0384773Y0402685D01*
X0384652Y0402787D01*
X0384534Y0402892D01*
X0384419Y0403001D01*
X0384306Y0403112D01*
X0384196Y0403226D01*
X0384089Y0403343D01*
X0383985Y0403462D01*
X0383884Y0403584D01*
X0383787Y0403709D01*
X0383692Y0403836D01*
X0383601Y0403965D01*
X0383512Y0404096D01*
X0383428Y0404230D01*
X0383346Y0404366D01*
X0383268Y0404503D01*
X0383194Y0404643D01*
X0383123Y0404785D01*
X0383055Y0404928D01*
X0382991Y0405073D01*
X0382931Y0405219D01*
X0382875Y0405367D01*
X0382822Y0405516D01*
X0382773Y0405667D01*
X0382728Y0405819D01*
X0382687Y0405972D01*
X0382649Y0406125D01*
X0382616Y0406280D01*
X0382586Y0406436D01*
X0382560Y0406592D01*
X0382539Y0406749D01*
X0382521Y0406906D01*
X0382507Y0407064D01*
X0382497Y0407222D01*
X0382491Y0407380D01*
X0382489Y0407538D01*
X0067529Y0407538D02*
X0067531Y0407696D01*
X0067537Y0407854D01*
X0067547Y0408012D01*
X0067561Y0408170D01*
X0067579Y0408327D01*
X0067600Y0408484D01*
X0067626Y0408640D01*
X0067656Y0408796D01*
X0067689Y0408951D01*
X0067727Y0409104D01*
X0067768Y0409257D01*
X0067813Y0409409D01*
X0067862Y0409560D01*
X0067915Y0409709D01*
X0067971Y0409857D01*
X0068031Y0410003D01*
X0068095Y0410148D01*
X0068163Y0410291D01*
X0068234Y0410433D01*
X0068308Y0410573D01*
X0068386Y0410710D01*
X0068468Y0410846D01*
X0068552Y0410980D01*
X0068641Y0411111D01*
X0068732Y0411240D01*
X0068827Y0411367D01*
X0068924Y0411492D01*
X0069025Y0411614D01*
X0069129Y0411733D01*
X0069236Y0411850D01*
X0069346Y0411964D01*
X0069459Y0412075D01*
X0069574Y0412184D01*
X0069692Y0412289D01*
X0069813Y0412391D01*
X0069936Y0412491D01*
X0070062Y0412587D01*
X0070190Y0412680D01*
X0070320Y0412770D01*
X0070453Y0412856D01*
X0070588Y0412940D01*
X0070724Y0413019D01*
X0070863Y0413096D01*
X0071004Y0413168D01*
X0071146Y0413238D01*
X0071290Y0413303D01*
X0071436Y0413365D01*
X0071583Y0413423D01*
X0071732Y0413478D01*
X0071882Y0413529D01*
X0072033Y0413576D01*
X0072185Y0413619D01*
X0072338Y0413658D01*
X0072493Y0413694D01*
X0072648Y0413725D01*
X0072804Y0413753D01*
X0072960Y0413777D01*
X0073117Y0413797D01*
X0073275Y0413813D01*
X0073432Y0413825D01*
X0073591Y0413833D01*
X0073749Y0413837D01*
X0073907Y0413837D01*
X0074065Y0413833D01*
X0074224Y0413825D01*
X0074381Y0413813D01*
X0074539Y0413797D01*
X0074696Y0413777D01*
X0074852Y0413753D01*
X0075008Y0413725D01*
X0075163Y0413694D01*
X0075318Y0413658D01*
X0075471Y0413619D01*
X0075623Y0413576D01*
X0075774Y0413529D01*
X0075924Y0413478D01*
X0076073Y0413423D01*
X0076220Y0413365D01*
X0076366Y0413303D01*
X0076510Y0413238D01*
X0076652Y0413168D01*
X0076793Y0413096D01*
X0076932Y0413019D01*
X0077068Y0412940D01*
X0077203Y0412856D01*
X0077336Y0412770D01*
X0077466Y0412680D01*
X0077594Y0412587D01*
X0077720Y0412491D01*
X0077843Y0412391D01*
X0077964Y0412289D01*
X0078082Y0412184D01*
X0078197Y0412075D01*
X0078310Y0411964D01*
X0078420Y0411850D01*
X0078527Y0411733D01*
X0078631Y0411614D01*
X0078732Y0411492D01*
X0078829Y0411367D01*
X0078924Y0411240D01*
X0079015Y0411111D01*
X0079104Y0410980D01*
X0079188Y0410846D01*
X0079270Y0410710D01*
X0079348Y0410573D01*
X0079422Y0410433D01*
X0079493Y0410291D01*
X0079561Y0410148D01*
X0079625Y0410003D01*
X0079685Y0409857D01*
X0079741Y0409709D01*
X0079794Y0409560D01*
X0079843Y0409409D01*
X0079888Y0409257D01*
X0079929Y0409104D01*
X0079967Y0408951D01*
X0080000Y0408796D01*
X0080030Y0408640D01*
X0080056Y0408484D01*
X0080077Y0408327D01*
X0080095Y0408170D01*
X0080109Y0408012D01*
X0080119Y0407854D01*
X0080125Y0407696D01*
X0080127Y0407538D01*
X0080125Y0407380D01*
X0080119Y0407222D01*
X0080109Y0407064D01*
X0080095Y0406906D01*
X0080077Y0406749D01*
X0080056Y0406592D01*
X0080030Y0406436D01*
X0080000Y0406280D01*
X0079967Y0406125D01*
X0079929Y0405972D01*
X0079888Y0405819D01*
X0079843Y0405667D01*
X0079794Y0405516D01*
X0079741Y0405367D01*
X0079685Y0405219D01*
X0079625Y0405073D01*
X0079561Y0404928D01*
X0079493Y0404785D01*
X0079422Y0404643D01*
X0079348Y0404503D01*
X0079270Y0404366D01*
X0079188Y0404230D01*
X0079104Y0404096D01*
X0079015Y0403965D01*
X0078924Y0403836D01*
X0078829Y0403709D01*
X0078732Y0403584D01*
X0078631Y0403462D01*
X0078527Y0403343D01*
X0078420Y0403226D01*
X0078310Y0403112D01*
X0078197Y0403001D01*
X0078082Y0402892D01*
X0077964Y0402787D01*
X0077843Y0402685D01*
X0077720Y0402585D01*
X0077594Y0402489D01*
X0077466Y0402396D01*
X0077336Y0402306D01*
X0077203Y0402220D01*
X0077068Y0402136D01*
X0076932Y0402057D01*
X0076793Y0401980D01*
X0076652Y0401908D01*
X0076510Y0401838D01*
X0076366Y0401773D01*
X0076220Y0401711D01*
X0076073Y0401653D01*
X0075924Y0401598D01*
X0075774Y0401547D01*
X0075623Y0401500D01*
X0075471Y0401457D01*
X0075318Y0401418D01*
X0075163Y0401382D01*
X0075008Y0401351D01*
X0074852Y0401323D01*
X0074696Y0401299D01*
X0074539Y0401279D01*
X0074381Y0401263D01*
X0074224Y0401251D01*
X0074065Y0401243D01*
X0073907Y0401239D01*
X0073749Y0401239D01*
X0073591Y0401243D01*
X0073432Y0401251D01*
X0073275Y0401263D01*
X0073117Y0401279D01*
X0072960Y0401299D01*
X0072804Y0401323D01*
X0072648Y0401351D01*
X0072493Y0401382D01*
X0072338Y0401418D01*
X0072185Y0401457D01*
X0072033Y0401500D01*
X0071882Y0401547D01*
X0071732Y0401598D01*
X0071583Y0401653D01*
X0071436Y0401711D01*
X0071290Y0401773D01*
X0071146Y0401838D01*
X0071004Y0401908D01*
X0070863Y0401980D01*
X0070724Y0402057D01*
X0070588Y0402136D01*
X0070453Y0402220D01*
X0070320Y0402306D01*
X0070190Y0402396D01*
X0070062Y0402489D01*
X0069936Y0402585D01*
X0069813Y0402685D01*
X0069692Y0402787D01*
X0069574Y0402892D01*
X0069459Y0403001D01*
X0069346Y0403112D01*
X0069236Y0403226D01*
X0069129Y0403343D01*
X0069025Y0403462D01*
X0068924Y0403584D01*
X0068827Y0403709D01*
X0068732Y0403836D01*
X0068641Y0403965D01*
X0068552Y0404096D01*
X0068468Y0404230D01*
X0068386Y0404366D01*
X0068308Y0404503D01*
X0068234Y0404643D01*
X0068163Y0404785D01*
X0068095Y0404928D01*
X0068031Y0405073D01*
X0067971Y0405219D01*
X0067915Y0405367D01*
X0067862Y0405516D01*
X0067813Y0405667D01*
X0067768Y0405819D01*
X0067727Y0405972D01*
X0067689Y0406125D01*
X0067656Y0406280D01*
X0067626Y0406436D01*
X0067600Y0406592D01*
X0067579Y0406749D01*
X0067561Y0406906D01*
X0067547Y0407064D01*
X0067537Y0407222D01*
X0067531Y0407380D01*
X0067529Y0407538D01*
D11*
X0107017Y0406790D02*
X0107017Y0410412D01*
X0107019Y0410458D01*
X0107025Y0410503D01*
X0107034Y0410547D01*
X0107047Y0410591D01*
X0107063Y0410633D01*
X0107083Y0410674D01*
X0107107Y0410713D01*
X0107133Y0410750D01*
X0107163Y0410785D01*
X0107195Y0410817D01*
X0107230Y0410847D01*
X0107267Y0410873D01*
X0107306Y0410897D01*
X0107347Y0410917D01*
X0107389Y0410933D01*
X0107433Y0410946D01*
X0107477Y0410955D01*
X0107522Y0410961D01*
X0107568Y0410963D01*
X0108828Y0410963D01*
X0108874Y0410961D01*
X0108919Y0410955D01*
X0108963Y0410946D01*
X0109007Y0410933D01*
X0109049Y0410917D01*
X0109090Y0410897D01*
X0109129Y0410873D01*
X0109166Y0410847D01*
X0109201Y0410817D01*
X0109233Y0410785D01*
X0109263Y0410750D01*
X0109289Y0410713D01*
X0109313Y0410674D01*
X0109333Y0410633D01*
X0109349Y0410591D01*
X0109362Y0410547D01*
X0109371Y0410503D01*
X0109377Y0410458D01*
X0109379Y0410412D01*
X0109379Y0406790D01*
X0109377Y0406744D01*
X0109371Y0406699D01*
X0109362Y0406655D01*
X0109349Y0406611D01*
X0109333Y0406569D01*
X0109313Y0406528D01*
X0109289Y0406489D01*
X0109263Y0406452D01*
X0109233Y0406417D01*
X0109201Y0406385D01*
X0109166Y0406355D01*
X0109129Y0406329D01*
X0109090Y0406305D01*
X0109049Y0406285D01*
X0109007Y0406269D01*
X0108963Y0406256D01*
X0108919Y0406247D01*
X0108874Y0406241D01*
X0108828Y0406239D01*
X0107568Y0406239D01*
X0107522Y0406241D01*
X0107477Y0406247D01*
X0107433Y0406256D01*
X0107389Y0406269D01*
X0107347Y0406285D01*
X0107306Y0406305D01*
X0107267Y0406329D01*
X0107230Y0406355D01*
X0107195Y0406385D01*
X0107163Y0406417D01*
X0107133Y0406452D01*
X0107107Y0406489D01*
X0107083Y0406528D01*
X0107063Y0406569D01*
X0107047Y0406611D01*
X0107034Y0406655D01*
X0107025Y0406699D01*
X0107019Y0406744D01*
X0107017Y0406790D01*
X0107568Y0424861D02*
X0108828Y0424861D01*
X0108874Y0424863D01*
X0108919Y0424869D01*
X0108963Y0424878D01*
X0109007Y0424891D01*
X0109049Y0424907D01*
X0109090Y0424927D01*
X0109129Y0424951D01*
X0109166Y0424977D01*
X0109201Y0425007D01*
X0109233Y0425039D01*
X0109263Y0425074D01*
X0109289Y0425111D01*
X0109313Y0425150D01*
X0109333Y0425191D01*
X0109349Y0425233D01*
X0109362Y0425277D01*
X0109371Y0425321D01*
X0109377Y0425366D01*
X0109379Y0425412D01*
X0109379Y0429034D01*
X0109377Y0429080D01*
X0109371Y0429125D01*
X0109362Y0429169D01*
X0109349Y0429213D01*
X0109333Y0429255D01*
X0109313Y0429296D01*
X0109289Y0429335D01*
X0109263Y0429372D01*
X0109233Y0429407D01*
X0109201Y0429439D01*
X0109166Y0429469D01*
X0109129Y0429495D01*
X0109090Y0429519D01*
X0109049Y0429539D01*
X0109007Y0429555D01*
X0108963Y0429568D01*
X0108919Y0429577D01*
X0108874Y0429583D01*
X0108828Y0429585D01*
X0107568Y0429585D01*
X0107522Y0429583D01*
X0107477Y0429577D01*
X0107433Y0429568D01*
X0107389Y0429555D01*
X0107347Y0429539D01*
X0107306Y0429519D01*
X0107267Y0429495D01*
X0107230Y0429469D01*
X0107195Y0429439D01*
X0107163Y0429407D01*
X0107133Y0429372D01*
X0107107Y0429335D01*
X0107083Y0429296D01*
X0107063Y0429255D01*
X0107047Y0429213D01*
X0107034Y0429169D01*
X0107025Y0429125D01*
X0107019Y0429080D01*
X0107017Y0429034D01*
X0107017Y0425412D01*
X0107019Y0425366D01*
X0107025Y0425321D01*
X0107034Y0425277D01*
X0107047Y0425233D01*
X0107063Y0425191D01*
X0107083Y0425150D01*
X0107107Y0425111D01*
X0107133Y0425074D01*
X0107163Y0425039D01*
X0107195Y0425007D01*
X0107230Y0424977D01*
X0107267Y0424951D01*
X0107306Y0424927D01*
X0107347Y0424907D01*
X0107389Y0424891D01*
X0107433Y0424878D01*
X0107477Y0424869D01*
X0107522Y0424863D01*
X0107568Y0424861D01*
X0140639Y0425412D02*
X0140639Y0429034D01*
X0140641Y0429080D01*
X0140647Y0429125D01*
X0140656Y0429169D01*
X0140669Y0429213D01*
X0140685Y0429255D01*
X0140705Y0429296D01*
X0140729Y0429335D01*
X0140755Y0429372D01*
X0140785Y0429407D01*
X0140817Y0429439D01*
X0140852Y0429469D01*
X0140889Y0429495D01*
X0140928Y0429519D01*
X0140969Y0429539D01*
X0141011Y0429555D01*
X0141055Y0429568D01*
X0141099Y0429577D01*
X0141144Y0429583D01*
X0141190Y0429585D01*
X0142450Y0429585D01*
X0142496Y0429583D01*
X0142541Y0429577D01*
X0142585Y0429568D01*
X0142629Y0429555D01*
X0142671Y0429539D01*
X0142712Y0429519D01*
X0142751Y0429495D01*
X0142788Y0429469D01*
X0142823Y0429439D01*
X0142855Y0429407D01*
X0142885Y0429372D01*
X0142911Y0429335D01*
X0142935Y0429296D01*
X0142955Y0429255D01*
X0142971Y0429213D01*
X0142984Y0429169D01*
X0142993Y0429125D01*
X0142999Y0429080D01*
X0143001Y0429034D01*
X0143001Y0425412D01*
X0142999Y0425366D01*
X0142993Y0425321D01*
X0142984Y0425277D01*
X0142971Y0425233D01*
X0142955Y0425191D01*
X0142935Y0425150D01*
X0142911Y0425111D01*
X0142885Y0425074D01*
X0142855Y0425039D01*
X0142823Y0425007D01*
X0142788Y0424977D01*
X0142751Y0424951D01*
X0142712Y0424927D01*
X0142671Y0424907D01*
X0142629Y0424891D01*
X0142585Y0424878D01*
X0142541Y0424869D01*
X0142496Y0424863D01*
X0142450Y0424861D01*
X0141190Y0424861D01*
X0141144Y0424863D01*
X0141099Y0424869D01*
X0141055Y0424878D01*
X0141011Y0424891D01*
X0140969Y0424907D01*
X0140928Y0424927D01*
X0140889Y0424951D01*
X0140852Y0424977D01*
X0140817Y0425007D01*
X0140785Y0425039D01*
X0140755Y0425074D01*
X0140729Y0425111D01*
X0140705Y0425150D01*
X0140685Y0425191D01*
X0140669Y0425233D01*
X0140656Y0425277D01*
X0140647Y0425321D01*
X0140641Y0425366D01*
X0140639Y0425412D01*
X0141190Y0410963D02*
X0142450Y0410963D01*
X0142496Y0410961D01*
X0142541Y0410955D01*
X0142585Y0410946D01*
X0142629Y0410933D01*
X0142671Y0410917D01*
X0142712Y0410897D01*
X0142751Y0410873D01*
X0142788Y0410847D01*
X0142823Y0410817D01*
X0142855Y0410785D01*
X0142885Y0410750D01*
X0142911Y0410713D01*
X0142935Y0410674D01*
X0142955Y0410633D01*
X0142971Y0410591D01*
X0142984Y0410547D01*
X0142993Y0410503D01*
X0142999Y0410458D01*
X0143001Y0410412D01*
X0143001Y0406790D01*
X0142999Y0406744D01*
X0142993Y0406699D01*
X0142984Y0406655D01*
X0142971Y0406611D01*
X0142955Y0406569D01*
X0142935Y0406528D01*
X0142911Y0406489D01*
X0142885Y0406452D01*
X0142855Y0406417D01*
X0142823Y0406385D01*
X0142788Y0406355D01*
X0142751Y0406329D01*
X0142712Y0406305D01*
X0142671Y0406285D01*
X0142629Y0406269D01*
X0142585Y0406256D01*
X0142541Y0406247D01*
X0142496Y0406241D01*
X0142450Y0406239D01*
X0141190Y0406239D01*
X0141144Y0406241D01*
X0141099Y0406247D01*
X0141055Y0406256D01*
X0141011Y0406269D01*
X0140969Y0406285D01*
X0140928Y0406305D01*
X0140889Y0406329D01*
X0140852Y0406355D01*
X0140817Y0406385D01*
X0140785Y0406417D01*
X0140755Y0406452D01*
X0140729Y0406489D01*
X0140705Y0406528D01*
X0140685Y0406569D01*
X0140669Y0406611D01*
X0140656Y0406655D01*
X0140647Y0406699D01*
X0140641Y0406744D01*
X0140639Y0406790D01*
X0140639Y0410412D01*
X0140641Y0410458D01*
X0140647Y0410503D01*
X0140656Y0410547D01*
X0140669Y0410591D01*
X0140685Y0410633D01*
X0140705Y0410674D01*
X0140729Y0410713D01*
X0140755Y0410750D01*
X0140785Y0410785D01*
X0140817Y0410817D01*
X0140852Y0410847D01*
X0140889Y0410873D01*
X0140928Y0410897D01*
X0140969Y0410917D01*
X0141011Y0410933D01*
X0141055Y0410946D01*
X0141099Y0410955D01*
X0141144Y0410961D01*
X0141190Y0410963D01*
X0074615Y0218542D02*
X0070993Y0218542D01*
X0070947Y0218540D01*
X0070902Y0218534D01*
X0070858Y0218525D01*
X0070814Y0218512D01*
X0070772Y0218496D01*
X0070731Y0218476D01*
X0070692Y0218452D01*
X0070655Y0218426D01*
X0070620Y0218396D01*
X0070588Y0218364D01*
X0070558Y0218329D01*
X0070532Y0218292D01*
X0070508Y0218253D01*
X0070488Y0218212D01*
X0070472Y0218170D01*
X0070459Y0218126D01*
X0070450Y0218082D01*
X0070444Y0218037D01*
X0070442Y0217991D01*
X0070442Y0216731D01*
X0070444Y0216685D01*
X0070450Y0216640D01*
X0070459Y0216596D01*
X0070472Y0216552D01*
X0070488Y0216510D01*
X0070508Y0216469D01*
X0070532Y0216430D01*
X0070558Y0216393D01*
X0070588Y0216358D01*
X0070620Y0216326D01*
X0070655Y0216296D01*
X0070692Y0216270D01*
X0070731Y0216246D01*
X0070772Y0216226D01*
X0070814Y0216210D01*
X0070858Y0216197D01*
X0070902Y0216188D01*
X0070947Y0216182D01*
X0070993Y0216180D01*
X0074615Y0216180D01*
X0074661Y0216182D01*
X0074706Y0216188D01*
X0074750Y0216197D01*
X0074794Y0216210D01*
X0074836Y0216226D01*
X0074877Y0216246D01*
X0074916Y0216270D01*
X0074953Y0216296D01*
X0074988Y0216326D01*
X0075020Y0216358D01*
X0075050Y0216393D01*
X0075076Y0216430D01*
X0075100Y0216469D01*
X0075120Y0216510D01*
X0075136Y0216552D01*
X0075149Y0216596D01*
X0075158Y0216640D01*
X0075164Y0216685D01*
X0075166Y0216731D01*
X0075166Y0217991D01*
X0075164Y0218037D01*
X0075158Y0218082D01*
X0075149Y0218126D01*
X0075136Y0218170D01*
X0075120Y0218212D01*
X0075100Y0218253D01*
X0075076Y0218292D01*
X0075050Y0218329D01*
X0075020Y0218364D01*
X0074988Y0218396D01*
X0074953Y0218426D01*
X0074916Y0218452D01*
X0074877Y0218476D01*
X0074836Y0218496D01*
X0074794Y0218512D01*
X0074750Y0218525D01*
X0074706Y0218534D01*
X0074661Y0218540D01*
X0074615Y0218542D01*
X0056544Y0217991D02*
X0056544Y0216731D01*
X0056542Y0216685D01*
X0056536Y0216640D01*
X0056527Y0216596D01*
X0056514Y0216552D01*
X0056498Y0216510D01*
X0056478Y0216469D01*
X0056454Y0216430D01*
X0056428Y0216393D01*
X0056398Y0216358D01*
X0056366Y0216326D01*
X0056331Y0216296D01*
X0056294Y0216270D01*
X0056255Y0216246D01*
X0056214Y0216226D01*
X0056172Y0216210D01*
X0056128Y0216197D01*
X0056084Y0216188D01*
X0056039Y0216182D01*
X0055993Y0216180D01*
X0052371Y0216180D01*
X0052325Y0216182D01*
X0052280Y0216188D01*
X0052236Y0216197D01*
X0052192Y0216210D01*
X0052150Y0216226D01*
X0052109Y0216246D01*
X0052070Y0216270D01*
X0052033Y0216296D01*
X0051998Y0216326D01*
X0051966Y0216358D01*
X0051936Y0216393D01*
X0051910Y0216430D01*
X0051886Y0216469D01*
X0051866Y0216510D01*
X0051850Y0216552D01*
X0051837Y0216596D01*
X0051828Y0216640D01*
X0051822Y0216685D01*
X0051820Y0216731D01*
X0051820Y0217991D01*
X0051822Y0218037D01*
X0051828Y0218082D01*
X0051837Y0218126D01*
X0051850Y0218170D01*
X0051866Y0218212D01*
X0051886Y0218253D01*
X0051910Y0218292D01*
X0051936Y0218329D01*
X0051966Y0218364D01*
X0051998Y0218396D01*
X0052033Y0218426D01*
X0052070Y0218452D01*
X0052109Y0218476D01*
X0052150Y0218496D01*
X0052192Y0218512D01*
X0052236Y0218525D01*
X0052280Y0218534D01*
X0052325Y0218540D01*
X0052371Y0218542D01*
X0055993Y0218542D01*
X0056039Y0218540D01*
X0056084Y0218534D01*
X0056128Y0218525D01*
X0056172Y0218512D01*
X0056214Y0218496D01*
X0056255Y0218476D01*
X0056294Y0218452D01*
X0056331Y0218426D01*
X0056366Y0218396D01*
X0056398Y0218364D01*
X0056428Y0218329D01*
X0056454Y0218292D01*
X0056478Y0218253D01*
X0056498Y0218212D01*
X0056514Y0218170D01*
X0056527Y0218126D01*
X0056536Y0218082D01*
X0056542Y0218037D01*
X0056544Y0217991D01*
X0055993Y0184920D02*
X0052371Y0184920D01*
X0052325Y0184918D01*
X0052280Y0184912D01*
X0052236Y0184903D01*
X0052192Y0184890D01*
X0052150Y0184874D01*
X0052109Y0184854D01*
X0052070Y0184830D01*
X0052033Y0184804D01*
X0051998Y0184774D01*
X0051966Y0184742D01*
X0051936Y0184707D01*
X0051910Y0184670D01*
X0051886Y0184631D01*
X0051866Y0184590D01*
X0051850Y0184548D01*
X0051837Y0184504D01*
X0051828Y0184460D01*
X0051822Y0184415D01*
X0051820Y0184369D01*
X0051820Y0183109D01*
X0051822Y0183063D01*
X0051828Y0183018D01*
X0051837Y0182974D01*
X0051850Y0182930D01*
X0051866Y0182888D01*
X0051886Y0182847D01*
X0051910Y0182808D01*
X0051936Y0182771D01*
X0051966Y0182736D01*
X0051998Y0182704D01*
X0052033Y0182674D01*
X0052070Y0182648D01*
X0052109Y0182624D01*
X0052150Y0182604D01*
X0052192Y0182588D01*
X0052236Y0182575D01*
X0052280Y0182566D01*
X0052325Y0182560D01*
X0052371Y0182558D01*
X0055993Y0182558D01*
X0056039Y0182560D01*
X0056084Y0182566D01*
X0056128Y0182575D01*
X0056172Y0182588D01*
X0056214Y0182604D01*
X0056255Y0182624D01*
X0056294Y0182648D01*
X0056331Y0182674D01*
X0056366Y0182704D01*
X0056398Y0182736D01*
X0056428Y0182771D01*
X0056454Y0182808D01*
X0056478Y0182847D01*
X0056498Y0182888D01*
X0056514Y0182930D01*
X0056527Y0182974D01*
X0056536Y0183018D01*
X0056542Y0183063D01*
X0056544Y0183109D01*
X0056544Y0184369D01*
X0056542Y0184415D01*
X0056536Y0184460D01*
X0056527Y0184504D01*
X0056514Y0184548D01*
X0056498Y0184590D01*
X0056478Y0184631D01*
X0056454Y0184670D01*
X0056428Y0184707D01*
X0056398Y0184742D01*
X0056366Y0184774D01*
X0056331Y0184804D01*
X0056294Y0184830D01*
X0056255Y0184854D01*
X0056214Y0184874D01*
X0056172Y0184890D01*
X0056128Y0184903D01*
X0056084Y0184912D01*
X0056039Y0184918D01*
X0055993Y0184920D01*
X0070442Y0184369D02*
X0070442Y0183109D01*
X0070444Y0183063D01*
X0070450Y0183018D01*
X0070459Y0182974D01*
X0070472Y0182930D01*
X0070488Y0182888D01*
X0070508Y0182847D01*
X0070532Y0182808D01*
X0070558Y0182771D01*
X0070588Y0182736D01*
X0070620Y0182704D01*
X0070655Y0182674D01*
X0070692Y0182648D01*
X0070731Y0182624D01*
X0070772Y0182604D01*
X0070814Y0182588D01*
X0070858Y0182575D01*
X0070902Y0182566D01*
X0070947Y0182560D01*
X0070993Y0182558D01*
X0074615Y0182558D01*
X0074661Y0182560D01*
X0074706Y0182566D01*
X0074750Y0182575D01*
X0074794Y0182588D01*
X0074836Y0182604D01*
X0074877Y0182624D01*
X0074916Y0182648D01*
X0074953Y0182674D01*
X0074988Y0182704D01*
X0075020Y0182736D01*
X0075050Y0182771D01*
X0075076Y0182808D01*
X0075100Y0182847D01*
X0075120Y0182888D01*
X0075136Y0182930D01*
X0075149Y0182974D01*
X0075158Y0183018D01*
X0075164Y0183063D01*
X0075166Y0183109D01*
X0075166Y0184369D01*
X0075164Y0184415D01*
X0075158Y0184460D01*
X0075149Y0184504D01*
X0075136Y0184548D01*
X0075120Y0184590D01*
X0075100Y0184631D01*
X0075076Y0184670D01*
X0075050Y0184707D01*
X0075020Y0184742D01*
X0074988Y0184774D01*
X0074953Y0184804D01*
X0074916Y0184830D01*
X0074877Y0184854D01*
X0074836Y0184874D01*
X0074794Y0184890D01*
X0074750Y0184903D01*
X0074706Y0184912D01*
X0074661Y0184918D01*
X0074615Y0184920D01*
X0070993Y0184920D01*
X0070947Y0184918D01*
X0070902Y0184912D01*
X0070858Y0184903D01*
X0070814Y0184890D01*
X0070772Y0184874D01*
X0070731Y0184854D01*
X0070692Y0184830D01*
X0070655Y0184804D01*
X0070620Y0184774D01*
X0070588Y0184742D01*
X0070558Y0184707D01*
X0070532Y0184670D01*
X0070508Y0184631D01*
X0070488Y0184590D01*
X0070472Y0184548D01*
X0070459Y0184504D01*
X0070450Y0184460D01*
X0070444Y0184415D01*
X0070442Y0184369D01*
M02*
