%
M48
M72
T01C0.01220
T02C0.01575
T03C0.02362
T04C0.03150
T05C0.03200
T06C0.03543
T07C0.03622
T08C0.03937
T09C0.04331
T10C0.05118
T11C0.05512
T12C0.06299
T13C0.09055
T14C0.12598
T15C0.12795
%
T01
X81800Y119300
X81800Y129300
X81800Y139300
X81800Y149300
X88050Y188050
X67425Y221800
X71800Y230550
X91175Y230550
X158675Y216362
X158675Y212612
X158675Y201362
X158675Y197612
X158675Y186362
X158675Y182612
X158675Y171362
X158675Y167612
X212425Y206987
X214925Y206987
X217425Y206987
X230550Y201362
X233050Y201362
X235550Y201362
X235550Y197612
X233050Y197612
X230550Y197612
X230550Y186362
X233050Y186362
X235550Y186362
X235550Y182612
X233050Y182612
X230550Y182612
X230550Y171362
X233050Y171362
X235550Y171362
X235550Y167612
X233050Y167612
X230550Y167612
X230550Y212612
X233050Y212612
X235550Y212612
X235550Y216362
X233050Y216362
X230550Y216362
X217425Y221987
X214925Y221987
X212425Y221987
X250550Y249300
X301800Y277425
X327425Y304925
X326800Y315550
X331800Y326175
X339925Y289300
X344300Y277425
X344300Y273675
X346800Y273675
X350550Y277425
X346800Y262425
X345550Y260550
X344300Y262425
X343675Y248675
X349925Y248675
X345801Y240550
X342051Y232425
X336800Y219300
X337425Y216175
X338301Y209925
X337676Y204925
X347425Y209925
X352051Y211175
X355176Y211175
X358301Y211175
X358301Y214300
X358301Y217425
X355176Y217425
X355176Y214300
X352051Y214300
X352051Y217425
X356175Y204300
X352425Y198050
X347425Y188050
X366175Y200550
X371800Y213050
X371175Y218675
X370550Y221800
X370550Y236800
X389925Y214925
X389925Y211800
X389925Y208675
X353050Y167425
X353050Y156800
X340550Y166800
X338050Y169300
X330550Y167425
X330550Y174925
X321175Y174925
X321175Y167425
X318675Y167425
X316175Y167425
X308675Y176175
X294925Y179300
X294300Y176175
X292425Y173675
X291800Y160550
X289300Y160550
X294300Y160550
X294925Y149300
X294925Y146175
X294300Y138050
X291800Y138050
X289300Y138050
X308675Y146175
X316175Y137425
X318675Y137425
X321175Y137425
X321175Y131175
X318675Y131175
X316175Y131175
X321800Y121800
X332425Y123675
X330550Y136800
X338050Y139300
X340550Y136800
X330550Y145550
X332425Y153675
X321800Y152425
X321175Y144925
X321175Y161175
X318675Y161175
X316175Y161175
X353050Y137425
X353050Y126175
X325550Y230550
X319300Y244300
X314300Y245550
X310550Y244300
X384925Y300550
X378050Y317425
X379300Y321800
X408675Y312425
X356800Y392425
X281800Y391800
X223675Y335550
X223675Y332425
X220550Y332425
X220550Y335550
X217425Y335550
X217425Y332425
X201800Y316175
X201800Y313675
X201800Y311175
X216175Y303050
X219300Y303050
X222425Y303050
X166175Y332425
X166175Y335550
X163050Y335550
X159925Y335550
X159925Y332425
X163050Y332425
X131175Y373050
X113675Y373050
X121175Y392425
X123675Y392425
X126175Y392425
X128675Y392425
X109925Y396175
X86800Y366800
X74925Y371800
X55550Y371800
T02
X113985Y404074
X117135Y404074
X120284Y404074
X123434Y404074
X126583Y404074
X129733Y404074
X132883Y404074
X136032Y404074
X134457Y406830
X131308Y406830
X128158Y406830
X121859Y406830
X118709Y406830
X115560Y406830
X77331Y211574
X77331Y208424
X77331Y205274
X77331Y202125
X77331Y198975
X77331Y195826
X77331Y192676
X77331Y189526
X74576Y191101
X74576Y194251
X74576Y197400
X74576Y203700
X74576Y206849
X74576Y209999
T03
X72804Y217361
X54182Y217361
X54182Y183739
X72804Y183739
X183675Y287425
X294925Y342425
X141820Y408601
X141820Y427223
X108198Y427223
X108198Y408601
T04
X372238Y298050
X380112Y298050
T05
X346574Y356682
X336574Y366682
X326574Y356682
T06
X276643Y358050
X256957Y358050
X238050Y131770
X228050Y131770
X218050Y131770
X208050Y131770
X203050Y121770
X213050Y121770
X223050Y121770
X233050Y121770
X183050Y131770
X173050Y131770
X163050Y131770
X153050Y131770
X148050Y121770
X158050Y121770
X168050Y121770
X178050Y121770
T07
X182095Y383404
X189969Y383404
X199812Y383404
X199812Y393719
X189969Y393719
X182095Y393719
X172253Y393719
X172253Y383404
T08
X258050Y263050
X258050Y253050
X268050Y253050
X268050Y263050
X278050Y263050
X278050Y253050
X288050Y253050
X288050Y263050
X298050Y263050
X298050Y253050
T09
X307814Y308050
X278286Y308050
X184113Y306800
X184113Y346800
X184113Y266800
X104113Y296800
X104113Y316800
X104113Y346800
T10
X242961Y409507
X242961Y429192
X262961Y429192
X262961Y409507
X317765Y409507
X317765Y429192
X337765Y429192
X337765Y409507
T11
X406800Y269143
X406800Y249457
X406800Y176643
X406800Y156957
T12
X253818Y78778
X193050Y137085
X132282Y78778
T13
X160166Y382026
X160166Y404389
X211898Y404389
X211898Y382026
T14
X73828Y92578
X331800Y80550
X388788Y92578
X388788Y407538
X73828Y407538
T15
X143050Y96770
X243050Y96770
M30
